<svg id="egtcbvzlywgd1" xmlns="http://www.w3.org/2000/svg" xmlns:xlink="http://www.w3.org/1999/xlink" viewBox="0 0 864 864" shape-rendering="geometricPrecision" text-rendering="geometricPrecision"><style><![CDATA[#egtcbvzlywgd2_to {animation: egtcbvzlywgd2_to__to 4000ms linear infinite normal forwards}@keyframes egtcbvzlywgd2_to__to { 0% {transform: translate(438.961151px,437.308075px)} 37.500000% {transform: translate(438.961151px,437.308075px)} 50% {transform: translate(578.487340px,437.308075px)} 62.500000% {transform: translate(534.426438px,437.308075px)} 75% {transform: translate(465.887258px,437.308075px)} 87.500000% {transform: translate(573.591684px,432.003517px)} 100% {transform: translate(-285.595901px,432.003517px)} }#egtcbvzlywgd2 {animation: egtcbvzlywgd2_c_o 4000ms linear infinite normal forwards}@keyframes egtcbvzlywgd2_c_o { 0% {opacity: 0} 12.500000% {opacity: 0.500000} 25% {opacity: 1} 100% {opacity: 1} }#egtcbvzlywgd4_to {animation: egtcbvzlywgd4_to__to 4000ms linear infinite normal forwards}@keyframes egtcbvzlywgd4_to__to { 0% {transform: translate(481.821991px,272.654694px)} 37.500000% {transform: translate(481.821991px,272.654694px)} 50% {transform: translate(621.348180px,272.654694px)} 62.500000% {transform: translate(577.287278px,272.654694px)} 75% {transform: translate(508.748098px,272.654694px)} 87.500000% {transform: translate(616.452524px,267.350136px)} 100% {transform: translate(-242.735061px,267.350136px)} }#egtcbvzlywgd4 {animation: egtcbvzlywgd4_c_o 4000ms linear infinite normal forwards}@keyframes egtcbvzlywgd4_c_o { 0% {opacity: 0} 12.500000% {opacity: 0.500000} 25% {opacity: 1} 100% {opacity: 1} }#egtcbvzlywgd6_to {animation: egtcbvzlywgd6_to__to 4000ms linear infinite normal forwards}@keyframes egtcbvzlywgd6_to__to { 0% {transform: translate(280.659096px,549.147552px)} 37.500000% {transform: translate(280.659096px,549.147552px)} 50% {transform: translate(420.185285px,549.147552px)} 62.500000% {transform: translate(376.124383px,549.147552px)} 75% {transform: translate(307.585203px,549.147552px)} 87.500000% {transform: translate(415.289629px,543.842995px)} 100% {transform: translate(-443.897956px,543.842995px)} }#egtcbvzlywgd6 {animation: egtcbvzlywgd6_c_o 4000ms linear infinite normal forwards}@keyframes egtcbvzlywgd6_c_o { 0% {opacity: 0} 12.500000% {opacity: 0.500000} 25% {opacity: 1} 100% {opacity: 1} }#egtcbvzlywgd7_to {animation: egtcbvzlywgd7_to__to 4000ms linear infinite normal forwards}@keyframes egtcbvzlywgd7_to__to { 0% {transform: translate(538.396255px,368.082932px)} 37.500000% {transform: translate(538.396255px,368.082932px)} 50% {transform: translate(677.922444px,368.082932px)} 62.500000% {transform: translate(633.861542px,368.082932px)} 75% {transform: translate(565.322362px,368.082932px)} 87.500000% {transform: translate(673.026788px,362.778374px)} 100% {transform: translate(-186.160797px,362.778374px)} }#egtcbvzlywgd7 {animation: egtcbvzlywgd7_c_o 4000ms linear infinite normal forwards}@keyframes egtcbvzlywgd7_c_o { 0% {opacity: 0} 12.500000% {opacity: 0.500000} 25% {opacity: 1} 100% {opacity: 1} }#egtcbvzlywgd8_to {animation: egtcbvzlywgd8_to__to 4000ms linear infinite normal forwards}@keyframes egtcbvzlywgd8_to__to { 0% {transform: translate(608.474335px,382.161072px)} 37.500000% {transform: translate(608.474335px,382.161072px)} 50% {transform: translate(748.000524px,382.161072px)} 62.500000% {transform: translate(703.939622px,382.161072px)} 75% {transform: translate(635.400442px,382.161072px)} 87.500000% {transform: translate(743.104868px,376.856514px)} 100% {transform: translate(-116.082717px,376.856514px)} }#egtcbvzlywgd8 {animation: egtcbvzlywgd8_c_o 4000ms linear infinite normal forwards}@keyframes egtcbvzlywgd8_c_o { 0% {opacity: 0} 12.500000% {opacity: 0.500000} 25% {opacity: 1} 100% {opacity: 1} }#egtcbvzlywgd9_to {animation: egtcbvzlywgd9_to__to 4000ms linear infinite normal forwards}@keyframes egtcbvzlywgd9_to__to { 0% {transform: translate(609.964020px,734.136932px)} 37.500000% {transform: translate(609.964020px,734.136932px)} 50% {transform: translate(749.490209px,734.136932px)} 62.500000% {transform: translate(705.429307px,734.136932px)} 75% {transform: translate(636.890127px,734.136932px)} 87.500000% {transform: translate(744.594553px,728.832375px)} 100% {transform: translate(-114.593032px,728.832375px)} }#egtcbvzlywgd9 {animation: egtcbvzlywgd9_c_o 4000ms linear infinite normal forwards}@keyframes egtcbvzlywgd9_c_o { 0% {opacity: 0} 12.500000% {opacity: 0.500000} 25% {opacity: 1} 100% {opacity: 1} }#egtcbvzlywgd10_to {animation: egtcbvzlywgd10_to__to 4000ms linear infinite normal forwards}@keyframes egtcbvzlywgd10_to__to { 0% {transform: translate(508.446899px,786.241882px)} 37.500000% {transform: translate(508.446899px,786.241882px)} 50% {transform: translate(647.973088px,786.241882px)} 62.500000% {transform: translate(603.912186px,786.241882px)} 75% {transform: translate(535.373006px,786.241882px)} 87.500000% {transform: translate(643.077432px,780.937325px)} 100% {transform: translate(-216.110153px,780.937325px)} }#egtcbvzlywgd10 {animation: egtcbvzlywgd10_c_o 4000ms linear infinite normal forwards}@keyframes egtcbvzlywgd10_c_o { 0% {opacity: 0} 12.500000% {opacity: 0.500000} 25% {opacity: 1} 100% {opacity: 1} }#egtcbvzlywgd11_to {animation: egtcbvzlywgd11_to__to 4000ms linear infinite normal forwards}@keyframes egtcbvzlywgd11_to__to { 0% {transform: translate(579.386536px,736.932281px)} 37.500000% {transform: translate(579.386536px,736.932281px)} 50% {transform: translate(718.912725px,736.932281px)} 62.500000% {transform: translate(674.851823px,736.932281px)} 75% {transform: translate(606.312643px,736.932281px)} 87.500000% {transform: translate(714.017069px,731.627724px)} 100% {transform: translate(-145.170516px,731.627724px)} }#egtcbvzlywgd11 {animation: egtcbvzlywgd11_c_o 4000ms linear infinite normal forwards}@keyframes egtcbvzlywgd11_c_o { 0% {opacity: 0} 12.500000% {opacity: 0.500000} 25% {opacity: 1} 100% {opacity: 1} }#egtcbvzlywgd12_to {animation: egtcbvzlywgd12_to__to 4000ms linear infinite normal forwards}@keyframes egtcbvzlywgd12_to__to { 0% {transform: translate(225.906204px,489.286423px)} 37.500000% {transform: translate(225.906204px,489.286423px)} 50% {transform: translate(365.432393px,489.286423px)} 62.500000% {transform: translate(321.371491px,489.286423px)} 75% {transform: translate(252.832311px,489.286423px)} 87.500000% {transform: translate(360.536737px,483.981865px)} 100% {transform: translate(-498.650848px,483.981865px)} }#egtcbvzlywgd12 {animation: egtcbvzlywgd12_c_o 4000ms linear infinite normal forwards}@keyframes egtcbvzlywgd12_c_o { 0% {opacity: 0} 12.500000% {opacity: 0.500000} 25% {opacity: 1} 100% {opacity: 1} }#egtcbvzlywgd13_to {animation: egtcbvzlywgd13_to__to 4000ms linear infinite normal forwards}@keyframes egtcbvzlywgd13_to__to { 0% {transform: translate(521.474472px,736.053436px)} 37.500000% {transform: translate(521.474472px,736.053436px)} 50% {transform: translate(661.000661px,736.053436px)} 62.500000% {transform: translate(616.939759px,736.053436px)} 75% {transform: translate(548.400579px,736.053436px)} 87.500000% {transform: translate(656.105005px,730.748878px)} 100% {transform: translate(-203.082580px,730.748878px)} }#egtcbvzlywgd13 {animation: egtcbvzlywgd13_c_o 4000ms linear infinite normal forwards}@keyframes egtcbvzlywgd13_c_o { 0% {opacity: 0} 12.500000% {opacity: 0.500000} 25% {opacity: 1} 100% {opacity: 1} }#egtcbvzlywgd14_to {animation: egtcbvzlywgd14_to__to 4000ms linear infinite normal forwards}@keyframes egtcbvzlywgd14_to__to { 0% {transform: translate(331.125229px,577.379486px)} 37.500000% {transform: translate(331.125229px,577.379486px)} 50% {transform: translate(470.651418px,577.379486px)} 62.500000% {transform: translate(426.590516px,577.379486px)} 75% {transform: translate(358.051336px,577.379486px)} 87.500000% {transform: translate(465.755762px,572.074928px)} 100% {transform: translate(-393.431823px,572.074928px)} }#egtcbvzlywgd14 {animation: egtcbvzlywgd14_c_o 4000ms linear infinite normal forwards}@keyframes egtcbvzlywgd14_c_o { 0% {opacity: 0} 12.500000% {opacity: 0.500000} 25% {opacity: 1} 100% {opacity: 1} }#egtcbvzlywgd15_to {animation: egtcbvzlywgd15_to__to 4000ms linear infinite normal forwards}@keyframes egtcbvzlywgd15_to__to { 0% {transform: translate(277.455078px,666.962494px)} 37.500000% {transform: translate(277.455078px,666.962494px)} 50% {transform: translate(416.981267px,666.962494px)} 62.500000% {transform: translate(372.920365px,666.962494px)} 75% {transform: translate(304.381185px,666.962494px)} 87.500000% {transform: translate(412.085611px,661.657936px)} 100% {transform: translate(-447.101974px,661.657936px)} }#egtcbvzlywgd15 {animation: egtcbvzlywgd15_c_o 4000ms linear infinite normal forwards}@keyframes egtcbvzlywgd15_c_o { 0% {opacity: 0} 12.500000% {opacity: 0.500000} 25% {opacity: 1} 100% {opacity: 1} }#egtcbvzlywgd16_to {animation: egtcbvzlywgd16_to__to 4000ms linear infinite normal forwards}@keyframes egtcbvzlywgd16_to__to { 0% {transform: translate(473.812256px,140.418999px)} 37.500000% {transform: translate(473.812256px,140.418999px)} 50% {transform: translate(613.338445px,140.418999px)} 62.500000% {transform: translate(569.277543px,140.418999px)} 75% {transform: translate(500.738363px,140.418999px)} 87.500000% {transform: translate(608.442789px,135.114441px)} 100% {transform: translate(-250.744796px,135.114441px)} }#egtcbvzlywgd16 {animation: egtcbvzlywgd16_c_o 4000ms linear infinite normal forwards}@keyframes egtcbvzlywgd16_c_o { 0% {opacity: 0} 12.500000% {opacity: 0.500000} 25% {opacity: 1} 100% {opacity: 1} }#egtcbvzlywgd17_to {animation: egtcbvzlywgd17_to__to 4000ms linear infinite normal forwards}@keyframes egtcbvzlywgd17_to__to { 0% {transform: translate(439.179016px,151.558350px)} 37.500000% {transform: translate(439.179016px,151.558350px)} 50% {transform: translate(578.705205px,151.558350px)} 62.500000% {transform: translate(534.644303px,151.558350px)} 75% {transform: translate(466.105123px,151.558350px)} 87.500000% {transform: translate(573.809549px,146.253792px)} 100% {transform: translate(-285.378036px,146.253792px)} }#egtcbvzlywgd17 {animation: egtcbvzlywgd17_c_o 4000ms linear infinite normal forwards}@keyframes egtcbvzlywgd17_c_o { 0% {opacity: 0} 12.500000% {opacity: 0.500000} 25% {opacity: 1} 100% {opacity: 1} }#egtcbvzlywgd18_to {animation: egtcbvzlywgd18_to__to 4000ms linear infinite normal forwards}@keyframes egtcbvzlywgd18_to__to { 0% {transform: translate(197.226074px,576.090637px)} 37.500000% {transform: translate(197.226074px,576.090637px)} 50% {transform: translate(336.752263px,576.090637px)} 62.500000% {transform: translate(292.691361px,576.090637px)} 75% {transform: translate(224.152181px,576.090637px)} 87.500000% {transform: translate(331.856607px,570.786079px)} 100% {transform: translate(-527.330978px,570.786079px)} }#egtcbvzlywgd18 {animation: egtcbvzlywgd18_c_o 4000ms linear infinite normal forwards}@keyframes egtcbvzlywgd18_c_o { 0% {opacity: 0} 12.500000% {opacity: 0.500000} 25% {opacity: 1} 100% {opacity: 1} }#egtcbvzlywgd19_to {animation: egtcbvzlywgd19_to__to 4000ms linear infinite normal forwards}@keyframes egtcbvzlywgd19_to__to { 0% {transform: translate(514.142075px,111.417767px)} 37.500000% {transform: translate(514.142075px,111.417767px)} 50% {transform: translate(653.668264px,111.417767px)} 62.500000% {transform: translate(609.607362px,111.417767px)} 75% {transform: translate(541.068182px,111.417767px)} 87.500000% {transform: translate(648.772608px,106.113209px)} 100% {transform: translate(-210.414977px,106.113209px)} }#egtcbvzlywgd19 {animation: egtcbvzlywgd19_c_o 4000ms linear infinite normal forwards}@keyframes egtcbvzlywgd19_c_o { 0% {opacity: 0} 12.500000% {opacity: 0.500000} 25% {opacity: 1} 100% {opacity: 1} }#egtcbvzlywgd20_to {animation: egtcbvzlywgd20_to__to 4000ms linear infinite normal forwards}@keyframes egtcbvzlywgd20_to__to { 0% {transform: translate(479.055511px,108.545521px)} 37.500000% {transform: translate(479.055511px,108.545521px)} 50% {transform: translate(618.581700px,108.545521px)} 62.500000% {transform: translate(574.520798px,108.545521px)} 75% {transform: translate(505.981618px,108.545521px)} 87.500000% {transform: translate(613.686044px,103.240963px)} 100% {transform: translate(-245.501541px,103.240963px)} }#egtcbvzlywgd20 {animation: egtcbvzlywgd20_c_o 4000ms linear infinite normal forwards}@keyframes egtcbvzlywgd20_c_o { 0% {opacity: 0} 12.500000% {opacity: 0.500000} 25% {opacity: 1} 100% {opacity: 1} }#egtcbvzlywgd21_to {animation: egtcbvzlywgd21_to__to 4000ms linear infinite normal forwards}@keyframes egtcbvzlywgd21_to__to { 0% {transform: translate(547.175995px,118.192505px)} 37.500000% {transform: translate(547.175995px,118.192505px)} 50% {transform: translate(686.702184px,118.192505px)} 62.500000% {transform: translate(642.641282px,118.192505px)} 75% {transform: translate(574.102102px,118.192505px)} 87.500000% {transform: translate(681.806528px,112.887947px)} 100% {transform: translate(-177.381057px,112.887947px)} }#egtcbvzlywgd21 {animation: egtcbvzlywgd21_c_o 4000ms linear infinite normal forwards}@keyframes egtcbvzlywgd21_c_o { 0% {opacity: 0} 12.500000% {opacity: 0.500000} 25% {opacity: 1} 100% {opacity: 1} }#egtcbvzlywgd23_to {animation: egtcbvzlywgd23_to__to 4000ms linear infinite normal forwards}@keyframes egtcbvzlywgd23_to__to { 0% {transform: translate(561.096405px,402.633469px)} 37.500000% {transform: translate(561.096405px,402.633469px)} 50% {transform: translate(700.622594px,402.633469px)} 62.500000% {transform: translate(656.561692px,402.633469px)} 75% {transform: translate(588.022512px,402.633469px)} 87.500000% {transform: translate(695.726938px,397.328911px)} 100% {transform: translate(-163.460647px,397.328911px)} }#egtcbvzlywgd23 {animation: egtcbvzlywgd23_c_o 4000ms linear infinite normal forwards}@keyframes egtcbvzlywgd23_c_o { 0% {opacity: 0} 12.500000% {opacity: 0.500000} 25% {opacity: 1} 100% {opacity: 1} }#egtcbvzlywgd24_to {animation: egtcbvzlywgd24_to__to 4000ms linear infinite normal forwards}@keyframes egtcbvzlywgd24_to__to { 0% {transform: translate(342.919022px,541.106964px)} 37.500000% {transform: translate(342.919022px,541.106964px)} 50% {transform: translate(482.445211px,541.106964px)} 62.500000% {transform: translate(438.384309px,541.106964px)} 75% {transform: translate(369.845129px,541.106964px)} 87.500000% {transform: translate(477.549555px,535.802406px)} 100% {transform: translate(-381.638030px,535.802406px)} }#egtcbvzlywgd24 {animation: egtcbvzlywgd24_c_o 4000ms linear infinite normal forwards}@keyframes egtcbvzlywgd24_c_o { 0% {opacity: 0} 12.500000% {opacity: 0.500000} 25% {opacity: 1} 100% {opacity: 1} }#egtcbvzlywgd25_to {animation: egtcbvzlywgd25_to__to 4000ms linear infinite normal forwards}@keyframes egtcbvzlywgd25_to__to { 0% {transform: translate(502.197388px,730.452789px)} 37.500000% {transform: translate(502.197388px,730.452789px)} 50% {transform: translate(641.723577px,730.452789px)} 62.500000% {transform: translate(597.662675px,730.452789px)} 75% {transform: translate(529.123495px,730.452789px)} 87.500000% {transform: translate(636.827921px,725.148232px)} 100% {transform: translate(-222.359664px,725.148232px)} }#egtcbvzlywgd25 {animation: egtcbvzlywgd25_c_o 4000ms linear infinite normal forwards}@keyframes egtcbvzlywgd25_c_o { 0% {opacity: 0} 12.500000% {opacity: 0.500000} 25% {opacity: 1} 100% {opacity: 1} }#egtcbvzlywgd26_to {animation: egtcbvzlywgd26_to__to 4000ms linear infinite normal forwards}@keyframes egtcbvzlywgd26_to__to { 0% {transform: translate(308.254517px,681.575562px)} 37.500000% {transform: translate(308.254517px,681.575562px)} 50% {transform: translate(447.780706px,681.575562px)} 62.500000% {transform: translate(403.719804px,681.575562px)} 75% {transform: translate(335.180624px,681.575562px)} 87.500000% {transform: translate(442.885050px,676.271004px)} 100% {transform: translate(-416.302535px,676.271004px)} }#egtcbvzlywgd26 {animation: egtcbvzlywgd26_c_o 4000ms linear infinite normal forwards}@keyframes egtcbvzlywgd26_c_o { 0% {opacity: 0} 12.500000% {opacity: 0.500000} 25% {opacity: 1} 100% {opacity: 1} }#egtcbvzlywgd27_to {animation: egtcbvzlywgd27_to__to 4000ms linear infinite normal forwards}@keyframes egtcbvzlywgd27_to__to { 0% {transform: translate(249.778999px,465.851044px)} 37.500000% {transform: translate(249.778999px,465.851044px)} 50% {transform: translate(389.305188px,465.851044px)} 62.500000% {transform: translate(345.244286px,465.851044px)} 75% {transform: translate(276.705106px,465.851044px)} 87.500000% {transform: translate(384.409532px,460.546486px)} 100% {transform: translate(-474.778053px,460.546486px)} }#egtcbvzlywgd27 {animation: egtcbvzlywgd27_c_o 4000ms linear infinite normal forwards}@keyframes egtcbvzlywgd27_c_o { 0% {opacity: 0} 12.500000% {opacity: 0.500000} 25% {opacity: 1} 100% {opacity: 1} }#egtcbvzlywgd28_to {animation: egtcbvzlywgd28_to__to 4000ms linear infinite normal forwards}@keyframes egtcbvzlywgd28_to__to { 0% {transform: translate(376.695511px,221.644699px)} 37.500000% {transform: translate(376.695511px,221.644699px)} 50% {transform: translate(516.221700px,221.644699px)} 62.500000% {transform: translate(472.160798px,221.644699px)} 75% {transform: translate(403.621618px,221.644699px)} 87.500000% {transform: translate(511.326044px,216.340141px)} 100% {transform: translate(-347.861541px,216.340141px)} }#egtcbvzlywgd28 {animation: egtcbvzlywgd28_c_o 4000ms linear infinite normal forwards}@keyframes egtcbvzlywgd28_c_o { 0% {opacity: 0} 12.500000% {opacity: 0.500000} 25% {opacity: 1} 100% {opacity: 1} }#egtcbvzlywgd29_to {animation: egtcbvzlywgd29_to__to 4000ms linear infinite normal forwards}@keyframes egtcbvzlywgd29_to__to { 0% {transform: translate(630.317871px,648.345673px)} 37.500000% {transform: translate(630.317871px,648.345673px)} 50% {transform: translate(769.844060px,648.345673px)} 62.500000% {transform: translate(725.783158px,648.345673px)} 75% {transform: translate(657.243978px,648.345673px)} 87.500000% {transform: translate(764.948404px,643.041115px)} 100% {transform: translate(-94.239181px,643.041115px)} }#egtcbvzlywgd29 {animation: egtcbvzlywgd29_c_o 4000ms linear infinite normal forwards}@keyframes egtcbvzlywgd29_c_o { 0% {opacity: 0} 12.500000% {opacity: 0.500000} 25% {opacity: 1} 100% {opacity: 1} }#egtcbvzlywgd30_to {animation: egtcbvzlywgd30_to__to 4000ms linear infinite normal forwards}@keyframes egtcbvzlywgd30_to__to { 0% {transform: translate(630.762695px,629.819031px)} 37.500000% {transform: translate(630.762695px,629.819031px)} 50% {transform: translate(770.288884px,629.819031px)} 62.500000% {transform: translate(726.227982px,629.819031px)} 75% {transform: translate(657.688802px,629.819031px)} 87.500000% {transform: translate(765.393228px,624.514473px)} 100% {transform: translate(-93.794357px,624.514473px)} }#egtcbvzlywgd30 {animation: egtcbvzlywgd30_c_o 4000ms linear infinite normal forwards}@keyframes egtcbvzlywgd30_c_o { 0% {opacity: 0} 12.500000% {opacity: 0.500000} 25% {opacity: 1} 100% {opacity: 1} }#egtcbvzlywgd31_to {animation: egtcbvzlywgd31_to__to 4000ms linear infinite normal forwards}@keyframes egtcbvzlywgd31_to__to { 0% {transform: translate(218.934998px,670.547028px)} 37.500000% {transform: translate(218.934998px,670.547028px)} 50% {transform: translate(358.461187px,670.547028px)} 62.500000% {transform: translate(314.400285px,670.547028px)} 75% {transform: translate(245.861105px,670.547028px)} 87.500000% {transform: translate(353.565531px,665.242470px)} 100% {transform: translate(-505.622054px,665.242470px)} }#egtcbvzlywgd31 {animation: egtcbvzlywgd31_c_o 4000ms linear infinite normal forwards}@keyframes egtcbvzlywgd31_c_o { 0% {opacity: 0} 12.500000% {opacity: 0.500000} 25% {opacity: 1} 100% {opacity: 1} }#egtcbvzlywgd32_to {animation: egtcbvzlywgd32_to__to 4000ms linear infinite normal forwards}@keyframes egtcbvzlywgd32_to__to { 0% {transform: translate(547.144501px,249.221489px)} 37.500000% {transform: translate(547.144501px,249.221489px)} 50% {transform: translate(686.670690px,249.221489px)} 62.500000% {transform: translate(642.609788px,249.221489px)} 75% {transform: translate(574.070608px,249.221489px)} 87.500000% {transform: translate(681.775034px,243.916931px)} 100% {transform: translate(-177.412551px,243.916931px)} }#egtcbvzlywgd32 {animation: egtcbvzlywgd32_c_o 4000ms linear infinite normal forwards}@keyframes egtcbvzlywgd32_c_o { 0% {opacity: 0} 12.500000% {opacity: 0.500000} 25% {opacity: 1} 100% {opacity: 1} }#egtcbvzlywgd33_to {animation: egtcbvzlywgd33_to__to 4000ms linear infinite normal forwards}@keyframes egtcbvzlywgd33_to__to { 0% {transform: translate(623.819092px,274.018005px)} 37.500000% {transform: translate(623.819092px,274.018005px)} 50% {transform: translate(763.345281px,274.018005px)} 62.500000% {transform: translate(719.284379px,274.018005px)} 75% {transform: translate(650.745199px,274.018005px)} 87.500000% {transform: translate(758.449625px,268.713448px)} 100% {transform: translate(-100.737960px,268.713448px)} }#egtcbvzlywgd33 {animation: egtcbvzlywgd33_c_o 4000ms linear infinite normal forwards}@keyframes egtcbvzlywgd33_c_o { 0% {opacity: 0} 12.500000% {opacity: 0.500000} 25% {opacity: 1} 100% {opacity: 1} }#egtcbvzlywgd34_to {animation: egtcbvzlywgd34_to__to 4000ms linear infinite normal forwards}@keyframes egtcbvzlywgd34_to__to { 0% {transform: translate(582.663483px,258.240494px)} 37.500000% {transform: translate(582.663483px,258.240494px)} 50% {transform: translate(722.189672px,258.240494px)} 62.500000% {transform: translate(678.128770px,258.240494px)} 75% {transform: translate(609.589590px,258.240494px)} 87.500000% {transform: translate(717.294016px,252.935936px)} 100% {transform: translate(-141.893569px,252.935936px)} }#egtcbvzlywgd34 {animation: egtcbvzlywgd34_c_o 4000ms linear infinite normal forwards}@keyframes egtcbvzlywgd34_c_o { 0% {opacity: 0} 12.500000% {opacity: 0.500000} 25% {opacity: 1} 100% {opacity: 1} }#egtcbvzlywgd36_to {animation: egtcbvzlywgd36_to__to 4000ms linear infinite normal forwards}@keyframes egtcbvzlywgd36_to__to { 0% {transform: translate(488.914093px,587.956497px)} 37.500000% {transform: translate(488.914093px,587.956497px)} 50% {transform: translate(628.440282px,587.956497px)} 62.500000% {transform: translate(584.379380px,587.956497px)} 75% {transform: translate(515.840200px,587.956497px)} 87.500000% {transform: translate(623.544626px,582.651939px)} 100% {transform: translate(-235.642959px,582.651939px)} }#egtcbvzlywgd36 {animation: egtcbvzlywgd36_c_o 4000ms linear infinite normal forwards}@keyframes egtcbvzlywgd36_c_o { 0% {opacity: 0} 12.500000% {opacity: 0.500000} 25% {opacity: 1} 100% {opacity: 1} }#egtcbvzlywgd37_to {animation: egtcbvzlywgd37_to__to 4000ms linear infinite normal forwards}@keyframes egtcbvzlywgd37_to__to { 0% {transform: translate(328.657494px,379.331497px)} 37.500000% {transform: translate(328.657494px,379.331497px)} 50% {transform: translate(468.183683px,379.331497px)} 62.500000% {transform: translate(424.122781px,379.331497px)} 75% {transform: translate(355.583601px,379.331497px)} 87.500000% {transform: translate(463.288027px,374.026939px)} 100% {transform: translate(-395.899558px,374.026939px)} }#egtcbvzlywgd37 {animation: egtcbvzlywgd37_c_o 4000ms linear infinite normal forwards}@keyframes egtcbvzlywgd37_c_o { 0% {opacity: 0} 12.500000% {opacity: 0.500000} 25% {opacity: 1} 100% {opacity: 1} }#egtcbvzlywgd38_to {animation: egtcbvzlywgd38_to__to 4000ms linear infinite normal forwards}@keyframes egtcbvzlywgd38_to__to { 0% {transform: translate(267.233200px,570.898987px)} 37.500000% {transform: translate(267.233200px,570.898987px)} 50% {transform: translate(406.759389px,570.898987px)} 62.500000% {transform: translate(362.698487px,570.898987px)} 75% {transform: translate(294.159307px,570.898987px)} 87.500000% {transform: translate(401.863733px,565.594429px)} 100% {transform: translate(-457.323852px,565.594429px)} }#egtcbvzlywgd38 {animation: egtcbvzlywgd38_c_o 4000ms linear infinite normal forwards}@keyframes egtcbvzlywgd38_c_o { 0% {opacity: 0} 12.500000% {opacity: 0.500000} 25% {opacity: 1} 100% {opacity: 1} }#egtcbvzlywgd39_to {animation: egtcbvzlywgd39_to__to 4000ms linear infinite normal forwards}@keyframes egtcbvzlywgd39_to__to { 0% {transform: translate(555.728989px,198.174004px)} 37.500000% {transform: translate(555.728989px,198.174004px)} 50% {transform: translate(695.255178px,198.174004px)} 62.500000% {transform: translate(651.194276px,198.174004px)} 75% {transform: translate(582.655096px,198.174004px)} 87.500000% {transform: translate(690.359522px,192.869446px)} 100% {transform: translate(-168.828063px,192.869446px)} }#egtcbvzlywgd39 {animation: egtcbvzlywgd39_c_o 4000ms linear infinite normal forwards}@keyframes egtcbvzlywgd39_c_o { 0% {opacity: 0} 12.500000% {opacity: 0.500000} 25% {opacity: 1} 100% {opacity: 1} }#egtcbvzlywgd40_to {animation: egtcbvzlywgd40_to__to 4000ms linear infinite normal forwards}@keyframes egtcbvzlywgd40_to__to { 0% {transform: translate(332.117508px,771.147034px)} 37.500000% {transform: translate(332.117508px,771.147034px)} 50% {transform: translate(471.643697px,771.147034px)} 62.500000% {transform: translate(427.582795px,771.147034px)} 75% {transform: translate(359.043615px,771.147034px)} 87.500000% {transform: translate(466.748041px,765.842476px)} 100% {transform: translate(-392.439544px,765.842476px)} }#egtcbvzlywgd40 {animation: egtcbvzlywgd40_c_o 4000ms linear infinite normal forwards}@keyframes egtcbvzlywgd40_c_o { 0% {opacity: 0} 12.500000% {opacity: 0.500000} 25% {opacity: 1} 100% {opacity: 1} }#egtcbvzlywgd41_to {animation: egtcbvzlywgd41_to__to 4000ms linear infinite normal forwards}@keyframes egtcbvzlywgd41_to__to { 0% {transform: translate(571.955170px,385.502579px)} 37.500000% {transform: translate(571.955170px,385.502579px)} 50% {transform: translate(711.481359px,385.502579px)} 62.500000% {transform: translate(667.420457px,385.502579px)} 75% {transform: translate(598.881277px,385.502579px)} 87.500000% {transform: translate(706.585703px,380.198021px)} 100% {transform: translate(-152.601882px,380.198021px)} }#egtcbvzlywgd41 {animation: egtcbvzlywgd41_c_o 4000ms linear infinite normal forwards}@keyframes egtcbvzlywgd41_c_o { 0% {opacity: 0} 12.500000% {opacity: 0.500000} 25% {opacity: 1} 100% {opacity: 1} }#egtcbvzlywgd42_to {animation: egtcbvzlywgd42_to__to 4000ms linear infinite normal forwards}@keyframes egtcbvzlywgd42_to__to { 0% {transform: translate(573.021973px,735.650391px)} 37.500000% {transform: translate(573.021973px,735.650391px)} 50% {transform: translate(712.548162px,735.650391px)} 62.500000% {transform: translate(668.487260px,735.650391px)} 75% {transform: translate(599.948080px,735.650391px)} 87.500000% {transform: translate(707.652506px,730.345833px)} 100% {transform: translate(-151.535079px,730.345833px)} }#egtcbvzlywgd42 {animation: egtcbvzlywgd42_c_o 4000ms linear infinite normal forwards}@keyframes egtcbvzlywgd42_c_o { 0% {opacity: 0} 12.500000% {opacity: 0.500000} 25% {opacity: 1} 100% {opacity: 1} }#egtcbvzlywgd43_to {animation: egtcbvzlywgd43_to__to 4000ms linear infinite normal forwards}@keyframes egtcbvzlywgd43_to__to { 0% {transform: translate(483.584000px,294.110352px)} 37.500000% {transform: translate(483.584000px,294.110352px)} 50% {transform: translate(623.110189px,294.110352px)} 62.500000% {transform: translate(579.049287px,294.110352px)} 75% {transform: translate(510.510107px,294.110352px)} 87.500000% {transform: translate(618.214533px,288.805794px)} 100% {transform: translate(-240.973052px,288.805794px)} }#egtcbvzlywgd43 {animation: egtcbvzlywgd43_c_o 4000ms linear infinite normal forwards}@keyframes egtcbvzlywgd43_c_o { 0% {opacity: 0} 12.500000% {opacity: 0.500000} 25% {opacity: 1} 100% {opacity: 1} }#egtcbvzlywgd44_to {animation: egtcbvzlywgd44_to__to 4000ms linear infinite normal forwards}@keyframes egtcbvzlywgd44_to__to { 0% {transform: translate(476.698105px,205.346855px)} 37.500000% {transform: translate(476.698105px,205.346855px)} 50% {transform: translate(616.224294px,205.346855px)} 62.500000% {transform: translate(572.163392px,205.346855px)} 75% {transform: translate(503.624212px,205.346855px)} 87.500000% {transform: translate(611.328638px,200.042297px)} 100% {transform: translate(-247.858947px,200.042297px)} }#egtcbvzlywgd44 {animation: egtcbvzlywgd44_c_o 4000ms linear infinite normal forwards}@keyframes egtcbvzlywgd44_c_o { 0% {opacity: 0} 12.500000% {opacity: 0.500000} 25% {opacity: 1} 100% {opacity: 1} }#egtcbvzlywgd45_to {animation: egtcbvzlywgd45_to__to 4000ms linear infinite normal forwards}@keyframes egtcbvzlywgd45_to__to { 0% {transform: translate(673.163544px,560.361496px)} 37.500000% {transform: translate(673.163544px,560.361496px)} 50% {transform: translate(812.689733px,560.361496px)} 62.500000% {transform: translate(768.628831px,560.361496px)} 75% {transform: translate(700.089651px,560.361496px)} 87.500000% {transform: translate(807.794077px,555.056938px)} 100% {transform: translate(-51.393508px,555.056938px)} }#egtcbvzlywgd45 {animation: egtcbvzlywgd45_c_o 4000ms linear infinite normal forwards}@keyframes egtcbvzlywgd45_c_o { 0% {opacity: 0} 12.500000% {opacity: 0.500000} 25% {opacity: 1} 100% {opacity: 1} }#egtcbvzlywgd46_to {animation: egtcbvzlywgd46_to__to 4000ms linear infinite normal forwards}@keyframes egtcbvzlywgd46_to__to { 0% {transform: translate(388.777008px,173.392998px)} 37.500000% {transform: translate(388.777008px,173.392998px)} 50% {transform: translate(528.303197px,173.392998px)} 62.500000% {transform: translate(484.242295px,173.392998px)} 75% {transform: translate(415.703115px,173.392998px)} 87.500000% {transform: translate(523.407541px,168.088440px)} 100% {transform: translate(-335.780044px,168.088440px)} }#egtcbvzlywgd46 {animation: egtcbvzlywgd46_c_o 4000ms linear infinite normal forwards}@keyframes egtcbvzlywgd46_c_o { 0% {opacity: 0} 12.500000% {opacity: 0.500000} 25% {opacity: 1} 100% {opacity: 1} }#egtcbvzlywgd47_to {animation: egtcbvzlywgd47_to__to 4000ms linear infinite normal forwards}@keyframes egtcbvzlywgd47_to__to { 0% {transform: translate(487.806946px,204.921196px)} 37.500000% {transform: translate(487.806946px,204.921196px)} 50% {transform: translate(627.333135px,204.921196px)} 62.500000% {transform: translate(583.272233px,204.921196px)} 75% {transform: translate(514.733053px,204.921196px)} 87.500000% {transform: translate(622.437479px,199.616638px)} 100% {transform: translate(-236.750106px,199.616638px)} }#egtcbvzlywgd47 {animation: egtcbvzlywgd47_c_o 4000ms linear infinite normal forwards}@keyframes egtcbvzlywgd47_c_o { 0% {opacity: 0} 12.500000% {opacity: 0.500000} 25% {opacity: 1} 100% {opacity: 1} }#egtcbvzlywgd48_to {animation: egtcbvzlywgd48_to__to 4000ms linear infinite normal forwards}@keyframes egtcbvzlywgd48_to__to { 0% {transform: translate(405.460983px,312.594986px)} 37.500000% {transform: translate(405.460983px,312.594986px)} 50% {transform: translate(544.987172px,312.594986px)} 62.500000% {transform: translate(500.926270px,312.594986px)} 75% {transform: translate(432.387090px,312.594986px)} 87.500000% {transform: translate(540.091516px,307.290428px)} 100% {transform: translate(-319.096069px,307.290428px)} }#egtcbvzlywgd48 {animation: egtcbvzlywgd48_c_o 4000ms linear infinite normal forwards}@keyframes egtcbvzlywgd48_c_o { 0% {opacity: 0} 12.500000% {opacity: 0.500000} 25% {opacity: 1} 100% {opacity: 1} }#egtcbvzlywgd49_to {animation: egtcbvzlywgd49_to__to 4000ms linear infinite normal forwards}@keyframes egtcbvzlywgd49_to__to { 0% {transform: translate(487.541519px,699.862610px)} 37.500000% {transform: translate(487.541519px,699.862610px)} 50% {transform: translate(627.067708px,699.862610px)} 62.500000% {transform: translate(583.006806px,699.862610px)} 75% {transform: translate(514.467626px,699.862610px)} 87.500000% {transform: translate(622.172052px,694.558052px)} 100% {transform: translate(-237.015533px,694.558052px)} }#egtcbvzlywgd49 {animation: egtcbvzlywgd49_c_o 4000ms linear infinite normal forwards}@keyframes egtcbvzlywgd49_c_o { 0% {opacity: 0} 12.500000% {opacity: 0.500000} 25% {opacity: 1} 100% {opacity: 1} }#egtcbvzlywgd50_to {animation: egtcbvzlywgd50_to__to 4000ms linear infinite normal forwards}@keyframes egtcbvzlywgd50_to__to { 0% {transform: translate(355.235596px,226.949997px)} 37.500000% {transform: translate(355.235596px,226.949997px)} 50% {transform: translate(494.761785px,226.949997px)} 62.500000% {transform: translate(450.700883px,226.949997px)} 75% {transform: translate(382.161703px,226.949997px)} 87.500000% {transform: translate(489.866129px,221.645439px)} 100% {transform: translate(-369.321456px,221.645439px)} }#egtcbvzlywgd50 {animation: egtcbvzlywgd50_c_o 4000ms linear infinite normal forwards}@keyframes egtcbvzlywgd50_c_o { 0% {opacity: 0} 12.500000% {opacity: 0.500000} 25% {opacity: 1} 100% {opacity: 1} }#egtcbvzlywgd51_to {animation: egtcbvzlywgd51_to__to 4000ms linear infinite normal forwards}@keyframes egtcbvzlywgd51_to__to { 0% {transform: translate(620.838928px,560.369995px)} 37.500000% {transform: translate(620.838928px,560.369995px)} 50% {transform: translate(760.365117px,560.369995px)} 62.500000% {transform: translate(716.304215px,560.369995px)} 75% {transform: translate(647.765035px,560.369995px)} 87.500000% {transform: translate(755.469461px,555.065437px)} 100% {transform: translate(-103.718124px,555.065437px)} }#egtcbvzlywgd51 {animation: egtcbvzlywgd51_c_o 4000ms linear infinite normal forwards}@keyframes egtcbvzlywgd51_c_o { 0% {opacity: 0} 12.500000% {opacity: 0.500000} 25% {opacity: 1} 100% {opacity: 1} }#egtcbvzlywgd52_to {animation: egtcbvzlywgd52_to__to 4000ms linear infinite normal forwards}@keyframes egtcbvzlywgd52_to__to { 0% {transform: translate(404.592987px,714.210632px)} 37.500000% {transform: translate(404.592987px,714.210632px)} 50% {transform: translate(544.119176px,714.210632px)} 62.500000% {transform: translate(500.058274px,714.210632px)} 75% {transform: translate(431.519094px,714.210632px)} 87.500000% {transform: translate(539.223520px,708.906075px)} 100% {transform: translate(-319.964065px,708.906075px)} }#egtcbvzlywgd52 {animation: egtcbvzlywgd52_c_o 4000ms linear infinite normal forwards}@keyframes egtcbvzlywgd52_c_o { 0% {opacity: 0} 12.500000% {opacity: 0.500000} 25% {opacity: 1} 100% {opacity: 1} }#egtcbvzlywgd53_to {animation: egtcbvzlywgd53_to__to 4000ms linear infinite normal forwards}@keyframes egtcbvzlywgd53_to__to { 0% {transform: translate(371.072922px,363.814041px)} 37.500000% {transform: translate(371.072922px,363.814041px)} 50% {transform: translate(510.599111px,363.814041px)} 62.500000% {transform: translate(466.538209px,363.814041px)} 75% {transform: translate(397.999029px,363.814041px)} 87.500000% {transform: translate(505.703455px,358.509483px)} 100% {transform: translate(-353.484130px,358.509483px)} }#egtcbvzlywgd53 {animation: egtcbvzlywgd53_c_o 4000ms linear infinite normal forwards}@keyframes egtcbvzlywgd53_c_o { 0% {opacity: 0} 12.500000% {opacity: 0.500000} 25% {opacity: 1} 100% {opacity: 1} }#egtcbvzlywgd54_to {animation: egtcbvzlywgd54_to__to 4000ms linear infinite normal forwards}@keyframes egtcbvzlywgd54_to__to { 0% {transform: translate(354.183990px,779.866241px)} 37.500000% {transform: translate(354.183990px,779.866241px)} 50% {transform: translate(493.710179px,779.866241px)} 62.500000% {transform: translate(449.649277px,779.866241px)} 75% {transform: translate(381.110097px,779.866241px)} 87.500000% {transform: translate(488.814523px,774.561684px)} 100% {transform: translate(-370.373062px,774.561684px)} }#egtcbvzlywgd54 {animation: egtcbvzlywgd54_c_o 4000ms linear infinite normal forwards}@keyframes egtcbvzlywgd54_c_o { 0% {opacity: 0} 12.500000% {opacity: 0.500000} 25% {opacity: 1} 100% {opacity: 1} }#egtcbvzlywgd55_to {animation: egtcbvzlywgd55_to__to 4000ms linear infinite normal forwards}@keyframes egtcbvzlywgd55_to__to { 0% {transform: translate(340.075409px,467.595490px)} 37.500000% {transform: translate(340.075409px,467.595490px)} 50% {transform: translate(479.601598px,467.595490px)} 62.500000% {transform: translate(435.540696px,467.595490px)} 75% {transform: translate(367.001516px,467.595490px)} 87.500000% {transform: translate(474.705942px,462.290932px)} 100% {transform: translate(-384.481643px,462.290932px)} }#egtcbvzlywgd55 {animation: egtcbvzlywgd55_c_o 4000ms linear infinite normal forwards}@keyframes egtcbvzlywgd55_c_o { 0% {opacity: 0} 12.500000% {opacity: 0.500000} 25% {opacity: 1} 100% {opacity: 1} }#egtcbvzlywgd56_to {animation: egtcbvzlywgd56_to__to 4000ms linear infinite normal forwards}@keyframes egtcbvzlywgd56_to__to { 0% {transform: translate(258.741356px,576.207733px)} 37.500000% {transform: translate(258.741356px,576.207733px)} 50% {transform: translate(398.267545px,576.207733px)} 62.500000% {transform: translate(354.206643px,576.207733px)} 75% {transform: translate(285.667463px,576.207733px)} 87.500000% {transform: translate(393.371889px,570.903175px)} 100% {transform: translate(-465.815696px,570.903175px)} }#egtcbvzlywgd56 {animation: egtcbvzlywgd56_c_o 4000ms linear infinite normal forwards}@keyframes egtcbvzlywgd56_c_o { 0% {opacity: 0} 12.500000% {opacity: 0.500000} 25% {opacity: 1} 100% {opacity: 1} }#egtcbvzlywgd57_to {animation: egtcbvzlywgd57_to__to 4000ms linear infinite normal forwards}@keyframes egtcbvzlywgd57_to__to { 0% {transform: translate(680.790833px,563.910645px)} 37.500000% {transform: translate(680.790833px,563.910645px)} 50% {transform: translate(820.317022px,563.910645px)} 62.500000% {transform: translate(776.256120px,563.910645px)} 75% {transform: translate(707.716940px,563.910645px)} 87.500000% {transform: translate(815.421366px,558.606087px)} 100% {transform: translate(-43.766219px,558.606087px)} }#egtcbvzlywgd57 {animation: egtcbvzlywgd57_c_o 4000ms linear infinite normal forwards}@keyframes egtcbvzlywgd57_c_o { 0% {opacity: 0} 12.500000% {opacity: 0.500000} 25% {opacity: 1} 100% {opacity: 1} }]]></style><g id="egtcbvzlywgd2_to" transform="translate(438.961151,437.308075)"><path id="egtcbvzlywgd2" d="M364.978000,296.982000C355.741000,288.594000,346.835000,280.067000,337.453000,272.102000C326.012000,262.388000,324.744000,250.166000,326.846000,236.430000C330.182000,214.637000,340.128000,195.778000,352.063000,177.796000C368.209000,153.468000,388.890000,133.203000,414.253000,119.290000C453.023000,98.023000,494.373000,89.019000,538.323000,102.172000C539.231000,102.444000,540.120000,102.792000,541.043000,102.995000C542.334000,103.278000,543.647000,103.457000,545.645000,103.800000C546.350000,93.363000,547.036000,82.992000,547.756000,72.625000C548.164000,66.731000,551.689000,64.125000,556.763000,65.963000C560.747000,67.406000,561.187000,70.621000,560.958000,74.287000C560.310000,84.702000,559.562000,95.120000,559.355000,105.547000C559.314000,107.597000,561.036000,110.381000,562.794000,111.626000C566.760000,114.434000,571.257000,116.490000,576.094000,119.158000C576.915000,107.678000,577.782000,96.807000,578.450000,85.924000C579.335000,71.533000,580.077000,57.134000,580.854000,42.737000C581.032000,39.445000,580.872000,35.630000,585.519000,35.810000C589.889000,35.980000,593.322000,38.327000,593.467000,43.120000C593.663000,49.572000,593.531000,56.053000,593.154000,62.499000C591.981000,82.579000,590.438000,102.639000,589.534000,122.729000C589.392000,125.874000,590.930000,130.131000,593.212000,132.194000C625.684000,161.565000,643.226000,197.986000,643.480000,241.729000C643.593000,260.988000,640.720000,280.296000,638.534000,299.505000C638.180000,302.612000,634.894000,306.255000,631.978000,308.051000C619.532000,315.715000,606.713000,322.774000,594.038000,330.068000C592.748000,330.810000,591.509000,331.640000,589.789000,332.714000C596.977000,338.259000,603.957000,343.359000,610.629000,348.837000C660.404000,389.700000,692.177000,442.046000,704.721000,504.797000C724.009000,601.287000,699.541000,686.414000,631.569000,757.838000C591.459000,799.986000,541.664000,826.380000,484.262000,835.087000C386.103000,849.979000,302.705000,820.196000,235.993000,746.207000C200.358000,706.686000,178.507000,660.097000,170.450000,607.542000C158.154000,527.351000,177.158000,454.896000,226.758000,390.672000C261.789000,345.312000,307.390000,315.187000,361.942000,298.271000C362.665000,298.047000,363.401000,297.854000,364.105000,297.581000C364.444000,297.446000,364.724000,297.161000,364.978000,296.982000Z" transform="translate(-438.961151,-437.308075)" opacity="0" clip-rule="evenodd" fill="rgb(0,0,0)" fill-rule="evenodd" stroke="none" stroke-width="1"/></g><g id="egtcbvzlywgd3"><g id="egtcbvzlywgd4_to" transform="translate(481.821991,272.654694)"><path id="egtcbvzlywgd4" d="M334.893000,252.021000C436.361000,242.990000,533.516000,257.599000,628.751000,291.825000C628.397000,291.050000,628.696000,291.390000,628.670000,291.701000C628.555000,293.004000,628.342000,294.299000,628.178000,295.515000C627.627000,295.690000,627.218000,295.979000,626.934000,295.887000C532.814000,265.126000,436.359000,250.929000,337.318000,254.920000C336.773000,254.942000,336.173000,253.598000,334.893000,252.021000Z" transform="translate(-481.821991,-272.654694)" opacity="0" clip-rule="evenodd" fill="rgb(167,169,172)" fill-rule="evenodd" stroke="none" stroke-width="1"/></g><g id="egtcbvzlywgd5"><g id="egtcbvzlywgd6_to" transform="translate(280.659096,549.147552)"><path id="egtcbvzlywgd6" d="M286.566000,465.885000C301.272000,472.212000,312.024000,482.595000,320.904000,494.845000C326.216000,502.172000,330.202000,510.449000,334.944000,518.202000C336.682000,521.043000,336.099000,522.547000,333.558000,524.744000C319.786000,536.651000,306.246000,548.830000,292.670000,560.965000C289.275000,563.999000,288.571000,567.075000,289.192000,572.265000C291.066000,587.925000,291.132000,603.772000,283.162000,618.375000C273.694000,635.723000,264.565000,636.020000,249.994000,624.571000C243.333000,619.337000,238.784000,610.777000,234.753000,602.965000C225.778000,585.572000,223.302000,566.944000,227.089000,547.618000C227.454000,545.757000,227.829000,543.882000,228.421000,542.086000C233.945000,525.326000,245.823000,520.045000,262.396000,526.936000C268.570000,529.503000,269.752000,529.212000,271.599000,522.559000C276.299000,505.626000,280.653000,488.597000,285.139000,471.605000C285.611000,469.812000,286.037000,468.010000,286.566000,465.885000ZM282.649000,590.042000C282.429000,571.793000,275.181000,556.267000,265.082000,541.975000C261.485000,536.885000,256.095000,532.888000,249.127000,533.905000C241.854000,534.965000,238.435000,540.475000,236.114000,546.802000C232.755000,555.961000,232.800000,565.425000,234.024000,574.890000C235.881000,589.246000,240.118000,602.816000,250.653000,613.286000C261.116000,623.683000,275.052000,620.194000,279.721000,606.131000C281.422000,601.008000,281.714000,595.419000,282.649000,590.042000Z" transform="translate(-280.659096,-549.147552)" opacity="0" clip-rule="evenodd" fill="rgb(167,169,172)" fill-rule="evenodd" stroke="none" stroke-width="1"/></g><g id="egtcbvzlywgd7_to" transform="translate(538.396255,368.082932)"><path id="egtcbvzlywgd7" d="M535.154000,344.107000C534.341000,341.568000,533.693000,340,533.342000,338.368000C532.252000,333.296000,535.268000,327.981000,540.312000,327.975000C545.988000,327.968000,552.219000,328.410000,557.220000,330.760000C566.101000,334.932000,574.260000,340.653000,582.674000,345.802000C587.084000,348.502000,589.707000,357.066000,587.308000,361.410000C586.706000,362.498000,584.990000,363.082000,583.676000,363.643000C578.096000,366.027000,577.008000,369.185000,580.114000,374.368000C580.503000,375.016000,580.885000,375.736000,581.452000,376.200000C589.118000,382.472000,586.011000,389.966000,584.002000,398.031000C575.966000,393.480000,568.284000,389.129000,560.207000,384.554000C554.134000,392.380000,548.249000,399.962000,541.862000,408.191000C529.314000,396.147000,517.068000,384.392000,506.236000,373.995000C505.276000,368.943000,505.318000,365.187000,503.838000,362.183000C500.567000,355.550000,498.857000,347.673000,490.996000,344.119000C489.888000,343.619000,489.575000,341.362000,488.575000,339.243000C504.650000,339.563000,519.312000,345.610000,535.154000,344.107000Z" transform="translate(-538.396255,-368.082932)" opacity="0" clip-rule="evenodd" fill="rgb(167,169,172)" fill-rule="evenodd" stroke="none" stroke-width="1"/></g><g id="egtcbvzlywgd8_to" transform="translate(608.474335,382.161072)"><path id="egtcbvzlywgd8" d="M584.904000,370.562000C595.432000,368.565000,593.968000,361.133000,594.883000,354.018000C598.785000,357.336000,602.143000,359.997000,605.281000,362.896000C612.797000,369.837000,620.229000,376.870000,627.658000,383.906000C631.942000,387.965000,633.425000,397.379000,630.589000,403.612000C628.135000,409.009000,623.383000,411.182000,617.943000,409.984000C609.739000,408.178000,601.688000,405.615000,593.689000,403.010000C592.659000,402.674000,592.072000,400.223000,591.767000,398.657000C591.528000,397.431000,591.827000,395.981000,592.258000,394.762000C595.522000,385.557000,595.072000,377.282000,584.904000,370.562000Z" transform="translate(-608.474335,-382.161072)" opacity="0" clip-rule="evenodd" fill="rgb(167,169,172)" fill-rule="evenodd" stroke="none" stroke-width="1"/></g><g id="egtcbvzlywgd9_to" transform="translate(609.964020,734.136932)"><path id="egtcbvzlywgd9" d="M645.341000,687.456000C633.578000,717.531000,588.717000,777.322000,574.587000,780.851000C581.074000,771.320000,587.071000,762.491000,593.086000,753.674000C604.965000,736.261000,616.868000,718.866000,628.718000,701.434000C629.987000,699.568000,631.196000,697.595000,632.030000,695.511000C634.384000,689.618000,638.644000,687.099000,645.341000,687.456000Z" transform="translate(-609.964020,-734.136932)" opacity="0" clip-rule="evenodd" fill="rgb(167,169,172)" fill-rule="evenodd" stroke="none" stroke-width="1"/></g><g id="egtcbvzlywgd10_to" transform="translate(508.446899,786.241882)"><path id="egtcbvzlywgd10" d="M495.675000,764.222000C502.346000,765.261000,508.418000,766.207000,514.590000,767.169000C515.366000,779.091000,511.136000,791.798000,524.123000,800.366000C516.238000,803.245000,509.234000,806.007000,502.060000,808.215000C500.901000,808.570000,498.323000,806.832000,497.524000,805.425000C492.321000,796.257000,492.246000,786.206000,493.320000,776.105000C493.715000,772.387000,494.758000,768.736000,495.675000,764.222000Z" transform="translate(-508.446899,-786.241882)" opacity="0" clip-rule="evenodd" fill="rgb(167,169,172)" fill-rule="evenodd" stroke="none" stroke-width="1"/></g><g id="egtcbvzlywgd11_to" transform="translate(579.386536,736.932281)"><path id="egtcbvzlywgd11" d="M613.731000,692.438000C593.478000,724.195000,573.404000,755.631000,546.858000,782.171000C546.253000,781.775000,545.647000,781.380000,545.042000,780.984000C545.614000,779.806000,546.070000,778.552000,546.777000,777.462000C563.771000,751.180000,581.055000,725.080000,597.623000,698.532000C601.719000,691.968000,606.295000,690.610000,613.731000,692.438000Z" transform="translate(-579.386536,-736.932281)" opacity="0" clip-rule="evenodd" fill="rgb(167,169,172)" fill-rule="evenodd" stroke="none" stroke-width="1"/></g><g id="egtcbvzlywgd12_to" transform="translate(225.906204,489.286423)"><path id="egtcbvzlywgd12" d="M234.178000,468.161000C234.871000,480.458000,235.616000,491.756000,236.003000,503.065000C236.048000,504.396000,234.431000,506.447000,233.084000,507.056000C220.128000,512.918000,219.464000,511.813000,216.507000,498.013000C214.290000,487.667000,217.386000,480.864000,225.290000,475.109000C228.184000,473.002000,230.938000,470.704000,234.178000,468.161000Z" transform="translate(-225.906204,-489.286423)" opacity="0" clip-rule="evenodd" fill="rgb(167,169,172)" fill-rule="evenodd" stroke="none" stroke-width="1"/></g><g id="egtcbvzlywgd13_to" transform="translate(521.474472,736.053436)"><path id="egtcbvzlywgd13" d="M541.595000,737.209000C538.467000,741.175000,535.428000,745.227000,532.120000,749.046000C531.472000,749.795000,529.596000,750.168000,528.600000,749.819000C519.738000,746.714000,510.946000,743.405000,501.354000,739.870000C507.277000,733.359000,512.569000,727.542000,517.467000,722.156000C525.617000,727.240000,533.417000,732.106000,541.595000,737.209000Z" transform="translate(-521.474472,-736.053436)" opacity="0" clip-rule="evenodd" fill="rgb(167,169,172)" fill-rule="evenodd" stroke="none" stroke-width="1"/></g><g id="egtcbvzlywgd14_to" transform="translate(331.125229,577.379486)"><path id="egtcbvzlywgd14" d="M344.255000,567.318000C344.255000,574.161000,344.255000,580.136000,344.255000,587.441000C336.276000,585.809000,328.741000,584.494000,321.329000,582.676000C315.878000,581.339000,318.777000,576.758000,318.678000,573.612000C318.597000,571.049000,319.356000,568.467000,323.130000,568.390000C329.931000,568.251000,336.723000,567.723000,344.255000,567.318000Z" transform="translate(-331.125229,-577.379486)" opacity="0" clip-rule="evenodd" fill="rgb(167,169,172)" fill-rule="evenodd" stroke="none" stroke-width="1"/></g><g id="egtcbvzlywgd15_to" transform="translate(277.455078,666.962494)"><path id="egtcbvzlywgd15" d="M273.361000,651.456000C275.842000,656.321000,278.151000,661.309000,280.877000,666.057000C283.485000,670.602000,286.526000,674.897000,289.753000,679.883000C285.114000,680.856000,280.946000,681.956000,276.709000,682.461000C275.619000,682.591000,273.756000,681.109000,273.191000,679.919000C270.837000,674.961000,268.686000,669.893000,266.751000,664.755000C263.635000,656.482000,264.711000,654.453000,273.361000,651.456000Z" transform="translate(-277.455078,-666.962494)" opacity="0" clip-rule="evenodd" fill="rgb(167,169,172)" fill-rule="evenodd" stroke="none" stroke-width="1"/></g><g id="egtcbvzlywgd16_to" transform="translate(473.812256,140.418999)"><path id="egtcbvzlywgd16" d="M467.157000,162.220000C476.877000,146.757000,475.990000,132.276000,463.354000,118.618000C475.136000,120.093000,486.774000,136.898000,483.800000,147.734000C483.570000,148.569000,482.996000,149.452000,482.326000,150.001000C477.306000,154.119000,472.222000,158.157000,467.157000,162.220000Z" transform="translate(-473.812256,-140.418999)" opacity="0" clip-rule="evenodd" fill="rgb(167,169,172)" fill-rule="evenodd" stroke="none" stroke-width="1"/></g><g id="egtcbvzlywgd17_to" transform="translate(439.179016,151.558350)"><path id="egtcbvzlywgd17" d="M412.595000,174.151000C448.024000,174.438000,468.155000,149.661000,460.259000,127.506000C465.290000,131.843000,467.076000,139.739000,464.766000,147.423000C458.969000,166.698000,432.925000,180.201000,412.595000,174.151000Z" transform="translate(-439.179016,-151.558350)" opacity="0" clip-rule="evenodd" fill="rgb(167,169,172)" fill-rule="evenodd" stroke="none" stroke-width="1"/></g><g id="egtcbvzlywgd18_to" transform="translate(197.226074,576.090637)"><path id="egtcbvzlywgd18" d="M188.565000,566.045000C197.335000,570.370000,206.741000,573.126000,206.034000,585.211000C191.908000,588.382000,187.363000,583.739000,188.565000,566.045000Z" transform="translate(-197.226074,-576.090637)" opacity="0" clip-rule="evenodd" fill="rgb(167,169,172)" fill-rule="evenodd" stroke="none" stroke-width="1"/></g><g id="egtcbvzlywgd19_to" transform="translate(514.142075,111.417767)"><path id="egtcbvzlywgd19" d="M500.142000,111.854000C502.170000,107.187000,505.046000,106.306000,509.186000,107.293000C514.140000,108.476000,519.211000,109.278000,524.276000,109.860000C527.848000,110.271000,528.896000,111.815000,527.622000,115.904000C518.616000,114.578000,509.552000,113.241000,500.142000,111.854000Z" transform="translate(-514.142075,-111.417767)" opacity="0" clip-rule="evenodd" fill="rgb(167,169,172)" fill-rule="evenodd" stroke="none" stroke-width="1"/></g><g id="egtcbvzlywgd20_to" transform="translate(479.055511,108.545521)"><path id="egtcbvzlywgd20" d="M496.018000,107.340000C493.118000,109.084000,491.384000,110.998000,489.588000,111.059000C480.437000,111.371000,471.269000,111.203000,462.093000,110.814000C472.334000,105.465000,483.080000,104.705000,496.018000,107.340000Z" transform="translate(-479.055511,-108.545521)" opacity="0" clip-rule="evenodd" fill="rgb(167,169,172)" fill-rule="evenodd" stroke="none" stroke-width="1"/></g><g id="egtcbvzlywgd21_to" transform="translate(547.175995,118.192505)"><path id="egtcbvzlywgd21" d="M535.092000,111.815000C543.678000,115.596000,552.265000,119.378000,560.852000,123.160000C560.670000,123.630000,560.489000,124.100000,560.307000,124.570000C552.578000,122.469000,544.795000,120.536000,537.163000,118.126000C535.646000,117.647000,534.706000,115.341000,533.500000,113.878000C534.031000,113.190000,534.562000,112.503000,535.092000,111.815000Z" transform="translate(-547.175995,-118.192505)" opacity="0" clip-rule="evenodd" fill="rgb(167,169,172)" fill-rule="evenodd" stroke="none" stroke-width="1"/></g></g></g><g id="egtcbvzlywgd22"><g id="egtcbvzlywgd23_to" transform="translate(561.096405,402.633469)"><path id="egtcbvzlywgd23" d="M674.704000,455.536000C679.760000,470.091000,684.215000,482.912000,689.215000,497.299000C679.923000,499.552000,671.494000,502.368000,662.842000,503.555000C632.521000,507.713000,603.926000,499.897000,576.430000,488.470000C533.139000,470.479000,495.449000,444.415000,466.586000,406.838000C451.171000,386.769000,439.260000,364.951000,434.237000,339.762000C431.820000,327.644000,432.910000,315.981000,437.271000,304.607000C437.952000,302.830000,440.568000,300.496000,442.171000,300.583000C452.731000,301.155000,463.258000,302.320000,474.680000,303.373000C460.494000,322.788000,466.921000,341.407000,476.041000,359.008000C494.401000,394.441000,522.364000,421.248000,555.379000,443.033000C575.959000,456.614000,597.727000,467.875000,622.302000,471.885000C632.052000,473.475000,642.327000,473.378000,652.183000,472.337000C661.576000,471.344000,668.912000,465.528000,674.704000,455.536000Z" transform="translate(-561.096405,-402.633469)" opacity="0" clip-rule="evenodd" fill="rgb(247,148,30)" fill-rule="evenodd" stroke="none" stroke-width="1"/></g><g id="egtcbvzlywgd24_to" transform="translate(342.919022,541.106964)"><path id="egtcbvzlywgd24" d="M293.544000,457.843000C301.213000,448.355000,308.576000,439.455000,315.682000,430.354000C318.558000,426.669000,321.155000,427.031000,324.847000,429.157000C341.593000,438.801000,354.538000,452.230000,364.115000,468.804000C398.464000,528.254000,400.936000,589.542000,374.124000,652.372000C373.838000,653.043000,373.280000,653.599000,372.537000,654.649000C364.129000,648.611000,355.717000,642.826000,347.690000,636.549000C346.356000,635.507000,345.809000,632.029000,346.407000,630.160000C354.287000,605.522000,356.490000,580.390000,353.797000,554.732000C349.563000,514.392000,332.055000,482.083000,296.961000,460.338000C296.164000,459.847000,295.439000,459.234000,293.544000,457.843000ZM364.873000,480.681000C364.038000,478.661000,363.489000,476.112000,362.092000,474.171000C356.009000,465.723000,350.308000,456.875000,343.302000,449.243000C330.914000,435.747000,330.623000,436.145000,316.796000,448.438000C313.472000,451.394000,313.460000,453.683000,316.240000,457.015000C326.309000,469.081000,336.098000,481.380000,346.174000,493.442000C347.460000,494.980000,349.813000,496.502000,351.671000,496.501000C355.197000,496.501000,364.848000,484.552000,364.873000,480.681000Z" transform="translate(-342.919022,-541.106964)" opacity="0" clip-rule="evenodd" fill="rgb(247,148,30)" fill-rule="evenodd" stroke="none" stroke-width="1"/></g><g id="egtcbvzlywgd25_to" transform="translate(502.197388,730.452789)"><path id="egtcbvzlywgd25" d="M440.473000,744.974000C449.387000,749.177000,453.526000,745.915000,457.788000,740.034000C477.817000,712.394000,501.397000,688.432000,531.322000,671.275000C540.715000,665.891000,540.679000,665.323000,534.513000,656.778000C533.981000,656.040000,533.468000,655.288000,532.583000,654.021000C543.834000,647.984000,554.771000,642.116000,566.521000,635.811000C569.527000,646.961000,572.401000,657.622000,575.066000,667.506000C559.808000,678.225000,544.533000,687.895000,530.463000,699.079000C506.906000,717.806000,486.576000,739.559000,474.308000,767.618000C471.519000,773.996000,469.345000,780.827000,468.146000,787.671000C465.862000,800.692000,468.274000,812.592000,480.719000,821.754000C472.821000,822.966000,466.176000,824.170000,459.485000,824.967000C452.196000,825.834000,446.590000,822.180000,441.941000,817.155000C432.098000,806.520000,427.076000,793.970000,430.303000,779.536000C432.846000,768.166000,436.838000,757.121000,440.473000,744.974000Z" transform="translate(-502.197388,-730.452789)" opacity="0" clip-rule="evenodd" fill="rgb(247,148,30)" fill-rule="evenodd" stroke="none" stroke-width="1"/></g><g id="egtcbvzlywgd26_to" transform="translate(308.254517,681.575562)"><path id="egtcbvzlywgd26" d="M369.864000,660.977000C354.918000,688.058000,335.950000,709.566000,305.568000,718.613000C289.974000,723.257000,274.876000,722.709000,260.020000,716.447000C257.757000,715.493000,255.445000,713.120000,254.507000,710.844000C251.587000,703.763000,249.316000,696.413000,246.645000,688.740000C292.740000,701.121000,321.298000,679.467000,342.363000,641.468000C351.512000,647.958000,360.701000,654.476000,369.864000,660.977000Z" transform="translate(-308.254517,-681.575562)" opacity="0" clip-rule="evenodd" fill="rgb(247,148,30)" fill-rule="evenodd" stroke="none" stroke-width="1"/></g><g id="egtcbvzlywgd27_to" transform="translate(249.778999,465.851044)"><path id="egtcbvzlywgd27" d="M312.413000,422.701000C304.371000,433.655000,297.174000,443.642000,289.693000,453.410000C288.758000,454.630000,286.172000,455.445000,284.592000,455.152000C279.199000,454.152000,273.951000,452.404000,268.581000,451.251000C254.141000,448.148000,241.666000,453.596000,229.872000,460.901000C212.160000,471.873000,200.379000,487.983000,191.616000,506.538000C190.410000,509.089000,189.304000,511.687000,187.145000,513.910000C188.908000,508.724000,190.444000,503.447000,192.472000,498.366000C202.251000,473.863000,215.079000,451.357000,236.913000,435.491000C253.270000,423.604000,271.380000,416.038000,292.146000,418.143000C298.992000,418.837000,305.675000,421.139000,312.413000,422.701000Z" transform="translate(-249.778999,-465.851044)" opacity="0" clip-rule="evenodd" fill="rgb(247,148,30)" fill-rule="evenodd" stroke="none" stroke-width="1"/></g><g id="egtcbvzlywgd28_to" transform="translate(376.695511,221.644699)"><path id="egtcbvzlywgd28" d="M416.911000,201.436000C415.601000,208.316000,414.167000,214.600000,413.260000,220.958000C412.354000,227.310000,411.976000,233.737000,411.308000,240.757000C395.529000,240.757000,379.525000,240.757000,363.083000,240.757000C363.666000,233.046000,364.519000,225.195000,364.687000,217.330000C364.732000,215.189000,362.921000,211.313000,361.610000,211.155000C357.621000,210.675000,351.485000,208.121000,349.901000,213.292000C347.072000,222.521000,345.558000,232.280000,347.278000,242.794000C344.386000,243.184000,340.955000,243.647000,336.480000,244.251000C339.522000,235.272000,343.106000,227.148000,344.956000,218.647000C347.580000,206.591000,355.220000,202.475000,366.483000,201.009000C383.127000,198.841000,399.622000,197.796000,416.911000,201.436000Z" transform="translate(-376.695511,-221.644699)" opacity="0" clip-rule="evenodd" fill="rgb(247,148,30)" fill-rule="evenodd" stroke="none" stroke-width="1"/></g><g id="egtcbvzlywgd29_to" transform="translate(630.317871,648.345673)"><path id="egtcbvzlywgd29" d="M577.578000,652.188000C598.025000,641.483000,618.679000,633.082000,641.349000,631.421000C649.892000,630.796000,658.613000,631.780000,667.180000,632.707000C670.390000,633.055000,673.636000,634.948000,676.443000,636.785000C683.843000,641.630000,684.307000,643.386000,681.381000,651.605000C679.862000,655.871000,678.228000,660.095000,676.518000,664.686000C666.176000,643.331000,648.088000,642.474000,629.835000,647.192000C614.922000,651.046000,600.697000,657.575000,586.183000,662.960000C584.603000,663.547000,583.129000,664.419000,580.970000,665.467000C579.830000,661.001000,578.777000,656.882000,577.578000,652.188000Z" transform="translate(-630.317871,-648.345673)" opacity="0" clip-rule="evenodd" fill="rgb(247,148,30)" fill-rule="evenodd" stroke="none" stroke-width="1"/></g><g id="egtcbvzlywgd30_to" transform="translate(630.762695,629.819031)"><path id="egtcbvzlywgd30" d="M575.631000,644.391000C574.818000,641.657000,573.747000,638.059000,572.333000,633.305000C582.448000,629.834000,592.313000,626.198000,602.336000,623.067000C619.630000,617.665000,637.366000,614.055000,655.505000,615.611000C664.979000,616.423000,674.257000,619.610000,683.598000,621.832000C688.579000,623.019000,690.612000,625.814000,688.141000,630.901000C687.409000,632.409000,687.100000,634.122000,686.395000,636.389000C679.536000,630.083000,671.925000,625.910000,662.867000,624.534000C646.953000,622.115000,631.402000,623.974000,616.342000,629.012000C602.776000,633.548000,589.546000,639.089000,575.631000,644.391000Z" transform="translate(-630.762695,-629.819031)" opacity="0" clip-rule="evenodd" fill="rgb(247,148,30)" fill-rule="evenodd" stroke="none" stroke-width="1"/></g><g id="egtcbvzlywgd31_to" transform="translate(218.934998,670.547028)"><path id="egtcbvzlywgd31" d="M246.650000,709.921000C222.203000,698.463000,196.372000,661.892000,191.220000,631.173000C192.008000,632.593000,192.843000,633.990000,193.577000,635.439000C203.291000,654.596000,216.390000,670.717000,234.750000,682.350000C237.175000,683.887000,239.196000,686.858000,240.248000,689.606000C242.667000,695.928000,244.373000,702.522000,246.650000,709.921000Z" transform="translate(-218.934998,-670.547028)" opacity="0" clip-rule="evenodd" fill="rgb(247,148,30)" fill-rule="evenodd" stroke="none" stroke-width="1"/></g><g id="egtcbvzlywgd32_to" transform="translate(547.144501,249.221489)"><path id="egtcbvzlywgd32" d="M532.604000,255.762000C533.958000,249.062000,535.149000,243.167000,536.468000,236.639000C544.983000,238.900000,553.078000,241.050000,561.685000,243.335000C560.286000,249.561000,558.976000,255.381000,557.533000,261.804000C549.210000,259.787000,541.239000,257.855000,532.604000,255.762000Z" transform="translate(-547.144501,-249.221489)" opacity="0" clip-rule="evenodd" fill="rgb(247,148,30)" fill-rule="evenodd" stroke="none" stroke-width="1"/></g><g id="egtcbvzlywgd33_to" transform="translate(623.819092,274.018005)"><path id="egtcbvzlywgd33" d="M629.381000,284.627000C625.247000,283.259000,621.555000,282.038000,617.381000,280.656000C618.564000,274.746000,619.697000,269.089000,620.834000,263.409000C630.907000,266.091000,631.230000,266.878000,629.381000,284.627000Z" transform="translate(-623.819092,-274.018005)" opacity="0" clip-rule="evenodd" fill="rgb(247,148,30)" fill-rule="evenodd" stroke="none" stroke-width="1"/></g><g id="egtcbvzlywgd34_to" transform="translate(582.663483,258.240494)"><path id="egtcbvzlywgd34" d="M582.453000,269.378000C581.523000,268.244000,579.664000,266.962000,579.816000,265.999000C580.828000,259.619000,582.272000,253.308000,584.666000,247.103000C586.840000,254.302000,584.199000,261.224000,584.011000,268.241000C583.491000,268.621000,582.973000,269,582.453000,269.378000Z" transform="translate(-582.663483,-258.240494)" opacity="0" clip-rule="evenodd" fill="rgb(247,148,30)" fill-rule="evenodd" stroke="none" stroke-width="1"/></g></g><g id="egtcbvzlywgd35"><g id="egtcbvzlywgd36_to" transform="translate(488.914093,587.956497)"><path id="egtcbvzlywgd36" d="M418.380000,772.854000C384.527000,763.246000,355.358000,746.802000,331.098000,723.024000C340.515000,714.971000,350.214000,707.848000,358.514000,699.355000C380.324000,677.040000,391.098000,648.914000,398.250000,619.246000C412.130000,561.671000,402.248000,507.791000,372.061000,456.555000C395.143000,436.539000,420.120000,418.857000,447.330000,403.059000C450.351000,406.765000,453.417000,410.526000,456.481000,414.289000C496.753000,463.749000,547.174000,497.374000,609.630000,511.973000C618.647000,514.080000,627.957000,515.026000,637.180000,516.096000C640.494000,516.480000,641.863000,517.812000,642.299000,520.888000C645.903000,546.278000,649.311000,571.621000,643.935000,597.268000C642.999000,601.728000,641.350000,603.408000,637.191000,603.746000C604.274000,606.424000,573.896000,617.350000,544.933000,632.602000C500.613000,655.943000,463.057000,686.977000,435.962000,729.662000C427.664000,742.731000,422.062000,756.996000,418.380000,772.854000ZM607.833000,559.947000C609.910000,565.214000,611.015000,570.345000,613.739000,574.385000C618.080000,580.823000,625.583000,579.804000,629.339000,572.988000C634.116000,564.317000,631.360000,552.074000,626.557000,546.164000C622.761000,541.494000,617.457000,541.062000,614.049000,545.935000C611.262000,549.918000,609.972000,554.947000,607.833000,559.947000ZM420.052000,719.068000C419.697000,718.196000,419.124000,716.190000,418.119000,714.431000C413.947000,707.133000,407.517000,702.709000,399.532000,700.493000C392.711000,698.599000,387.817000,703.400000,389.411000,710.296000C391.359000,718.723000,402.137000,727.833000,410.834000,728.404000C416.586000,728.783000,420.220000,725.578000,420.052000,719.068000Z" transform="translate(-488.914093,-587.956497)" opacity="0" clip-rule="evenodd" fill="rgb(255,255,255)" fill-rule="evenodd" stroke="none" stroke-width="1"/></g><g id="egtcbvzlywgd37_to" transform="translate(328.657494,379.331497)"><path id="egtcbvzlywgd37" d="M379.748000,307.963000C379.748000,314.609000,379.650000,320.271000,379.774000,325.928000C379.909000,332.047000,381.248000,333.267000,387.373000,332.788000C398.320000,331.933000,409.257000,330.938000,420.755000,329.955000C422.139000,354.393000,431.357000,375.836000,443.632000,396.298000C430.001000,404.852000,416.450000,412.518000,403.841000,421.505000C391.369000,430.394000,379.848000,440.618000,367.361000,450.700000C348.972000,427.120000,325.704000,409.198000,294.056000,406.015000C261.942000,402.785000,236.226000,416.647000,213.683000,438.271000C230.009000,405.344000,252.704000,377.719000,281.854000,355.354000C310.842000,333.113000,342.950000,317.354000,379.748000,307.963000ZM369.901000,376.748000C373.608000,375.544000,377.950000,375.157000,380.840000,372.905000C383.628000,370.733000,386.554000,366.557000,386.401000,363.408000C386.249000,360.273000,382.939000,355.878000,379.939000,354.642000C375.910000,352.982000,370.637000,352.852000,366.278000,353.806000C358.700000,355.463000,354.111000,361.588000,355.090000,366.755000C356.143000,372.308000,361.749000,375.854000,369.901000,376.748000Z" transform="translate(-328.657494,-379.331497)" opacity="0" clip-rule="evenodd" fill="rgb(255,255,255)" fill-rule="evenodd" stroke="none" stroke-width="1"/></g><g id="egtcbvzlywgd38_to" transform="translate(267.233200,570.898987)"><path id="egtcbvzlywgd38" d="M266.157000,682.822000C254.040000,681.774000,243.560000,677.893000,234.602000,670.973000C208.816000,651.056000,194.467000,624.462000,190.172000,592.302000C190.105000,591.800000,190.230000,591.273000,190.286000,590.445000C195.521000,591.183000,200.523000,592.132000,205.569000,592.539000C212.071000,593.063000,213.943000,590.334000,212.992000,583.928000C211.450000,573.529000,206.453000,566.380000,196.051000,563.348000C191.298000,561.962000,189.001000,558.725000,189.387000,553.498000C190.906000,532.962000,196.198000,513.686000,208.192000,495.152000C209.383000,500.631000,210.090000,504.990000,211.302000,509.204000C213.179000,515.734000,216.381000,518.258000,223.016000,517.203000C228.359000,516.353000,233.831000,514.722000,238.538000,512.145000C240.875000,510.867000,242.832000,506.701000,242.871000,503.812000C243.019000,493,242.528000,482.161000,241.829000,471.361000C241.417000,465.011000,244.427000,462.024000,250.044000,460.365000C259.043000,457.707000,267.744000,459.200000,276.320000,462.014000C277.336000,462.347000,278.600000,464.654000,278.348000,465.713000C274.055000,483.737000,269.541000,501.709000,264.988000,520.047000C261.084000,518.821000,258.280000,517.768000,255.391000,517.065000C243.703000,514.220000,233.977000,517.415000,226.573000,526.963000C220.427000,534.890000,217.824000,544.190000,217.091000,553.999000C215.399000,576.645000,220.338000,597.774000,232.156000,617.227000C236.871000,624.989000,242.902000,631.430000,250.816000,636.071000C264.820000,644.283000,279.101000,641.071000,287.918000,627.382000C296.298000,614.369000,298.874000,599.720000,297.201000,584.756000C296.048000,574.440000,296.558000,566.541000,305.888000,559.568000C317.389000,550.970000,327.530000,540.553000,339.657000,529.667000C341.592000,540.606000,343.300000,550.255000,345.121000,560.549000C336.520000,561.026000,328.996000,561.542000,321.464000,561.825000C316.064000,562.027000,312.898000,564.401000,312.430000,569.962000C312.368000,570.706000,311.990000,571.419000,311.859000,572.163000C309.628000,584.834000,311.078000,587.067000,323.500000,590.041000C326.818000,590.835000,330.143000,591.606000,333.483000,592.303000C336.625000,592.956000,339.791000,593.495000,342.898000,594.074000C347.749000,619.335000,324.370000,661.301000,296.207000,677.003000C291.758000,668.960000,287.160000,660.969000,282.872000,652.815000C276.760000,641.195000,271.994000,640.286000,262.248000,649.240000C258.416000,652.761000,256.920000,657.002000,258.629000,662.088000C259.776000,665.503000,260.976000,668.900000,262.206000,672.286000C263.414000,675.615000,264.691000,678.922000,266.157000,682.822000Z" transform="translate(-267.233200,-570.898987)" opacity="0" clip-rule="evenodd" fill="rgb(255,255,255)" fill-rule="evenodd" stroke="none" stroke-width="1"/></g><g id="egtcbvzlywgd39_to" transform="translate(555.728989,198.174004)"><path id="egtcbvzlywgd39" d="M630.731000,259.125000C627.901000,257.698000,625.583000,256.496000,623.235000,255.353000C617.468000,252.546000,615.589000,253.441000,614.149000,259.822000C613.019000,264.817000,612.068000,269.852000,610.960000,274.851000C610.743000,275.835000,610.175000,276.742000,609.768000,277.684000C609.246000,277.596000,608.722000,277.509000,608.199000,277.421000C608.668000,273.175000,609.100000,268.925000,609.615000,264.685000C610.003000,261.493000,610.139000,258.210000,611.022000,255.152000C612.432000,250.270000,610.090000,248.139000,605.990000,246.649000C599.597000,244.326000,597.333000,245.483000,596.140000,252.244000C595.001000,258.701000,594.069000,265.193000,593.046000,271.670000C592.535000,271.646000,592.024000,271.622000,591.514000,271.598000C591.872000,266.838000,592.200000,262.076000,592.604000,257.320000C592.795000,255.063000,593.252000,252.826000,593.385000,250.568000C593.830000,242.967000,589.887000,238.407000,582.531000,239.318000C580.259000,239.599000,577.319000,243.008000,576.584000,245.537000C574.690000,252.053000,573.859000,258.877000,572.531000,265.959000C569.990000,265.285000,567.679000,264.672000,564.755000,263.897000C566.360000,257.891000,567.887000,252.099000,569.460000,246.318000C571.594000,238.478000,570.898000,237.346000,562.818000,235.395000C554.763000,233.451000,546.720000,231.454000,538.364000,229.404000C539.783000,221.116000,541.044000,213.302000,542.468000,205.519000C546.520000,183.388000,539.240000,167.875000,519.084000,158.353000C511.657000,154.845000,503.282000,153.340000,495.329000,150.956000C493.913000,150.532000,492.446000,150.277000,491.116000,149.971000C489.397000,129.094000,488.208000,131.042000,480.076000,118.664000C487.497000,119.226000,494.175000,119.497000,500.792000,120.276000C525.927000,123.237000,550.404000,128.897000,574.303000,137.406000C586.007000,141.574000,594.282000,149.341000,601.801000,158.596000C625.468000,187.728000,633.935000,221.252000,630.731000,259.125000Z" transform="translate(-555.728989,-198.174004)" opacity="0" clip-rule="evenodd" fill="rgb(255,255,255)" fill-rule="evenodd" stroke="none" stroke-width="1"/></g><g id="egtcbvzlywgd40_to" transform="translate(332.117508,771.147034)"><path id="egtcbvzlywgd40" d="M417.577000,780.502000C416.470000,797.101000,419.945000,811.917000,432.161000,825.506000C391.002000,823.672000,353.825000,813.008000,318.798000,794.374000C283.671000,775.687000,254.203000,750.559000,232.074000,716.788000C233.567000,717.617000,235.091000,718.397000,236.549000,719.285000C262.685000,735.219000,289.999000,738.770000,318.895000,727.480000C320.864000,726.709000,324.480000,726.989000,325.847000,728.311000C351.277000,752.915000,381.729000,768.647000,415.014000,779.498000C415.723000,779.729000,416.405000,780.041000,417.577000,780.502000ZM359.356000,791.177000C367.424000,791.142000,372.052000,786.436000,368.582000,782.467000C363.742000,776.933000,357.869000,771.785000,351.422000,768.416000C348.753000,767.021000,342.276000,769.542000,339.680000,772.303000C336.990000,775.162000,339.458000,779.664000,342.363000,782.852000C347.226000,788.187000,353.271000,790.729000,359.356000,791.177000Z" transform="translate(-332.117508,-771.147034)" opacity="0" clip-rule="evenodd" fill="rgb(255,255,255)" fill-rule="evenodd" stroke="none" stroke-width="1"/></g><g id="egtcbvzlywgd41_to" transform="translate(571.955170,385.502579)"><path id="egtcbvzlywgd41" d="M536.056000,321.544000C529.587000,324.640000,526.125000,329.706000,525.869000,338.260000C513.340000,336.163000,501.097000,334.247000,488.908000,332.029000C480.521000,330.503000,479.593000,331.331000,481.853000,339.403000C483.208000,344.238000,484.893000,348.534000,489.959000,351.101000C494.229000,353.265000,497.494000,364.513000,496.767000,369.319000C496.486000,371.176000,497.568000,373.870000,498.955000,375.251000C512.013000,388.251000,525.293000,401.029000,538.459000,413.920000C541.636000,417.031000,544.160000,415.981000,546.558000,413.022000C551.566000,406.842000,556.566000,400.657000,561.472000,394.595000C573.030000,400.616000,584.165000,406.676000,595.554000,412.217000C599.935000,414.348000,604.809000,415.663000,609.598000,416.718000C627.018000,420.555000,634.873000,415.572000,638.934000,397.949000C640.372000,399.567000,641.772000,400.782000,642.735000,402.279000C650.204000,413.894000,657.929000,425.365000,664.901000,437.274000C671.122000,447.900000,667.340000,458.772000,655.261000,462.146000C646.754000,464.524000,637.156000,465.204000,628.395000,464.026000C606.482000,461.081000,586.684000,451.748000,567.916000,440.350000C537.810000,422.067000,511.914000,399.103000,492.888000,369.280000C486.550000,359.345000,481.954000,348.125000,477.789000,337.031000C474.447000,328.132000,476.009000,318.829000,481.820000,311.092000C483.657000,308.646000,488.058000,305.898000,490.498000,306.497000C505.861000,310.268000,521.003000,314.944000,536.217000,319.320000C536.163000,320.062000,536.109000,320.803000,536.056000,321.544000Z" transform="translate(-571.955170,-385.502579)" opacity="0" clip-rule="evenodd" fill="rgb(255,255,255)" fill-rule="evenodd" stroke="none" stroke-width="1"/></g><g id="egtcbvzlywgd42_to" transform="translate(573.021973,735.650391)"><path id="egtcbvzlywgd42" d="M529.993000,786.321000C541.252000,793.304000,550.478000,791.202000,564.331000,779.419000C562.797000,781.981000,561.263000,784.543000,559.343000,787.750000C562,788.374000,564.284000,788.911000,567.553000,789.679000C552.164000,799.286000,536.205000,805.867000,519.477000,810.938000C522.622000,809.357000,525.842000,807.909000,528.889000,806.160000C531.954000,804.399000,534.848000,802.340000,538.622000,799.888000C536.454000,798.664000,535.292000,797.830000,534.003000,797.307000C523.253000,792.940000,519.469000,786.568000,520.961000,775.166000C521.108000,774.038000,521.340000,772.919000,521.567000,771.804000C523.775000,760.958000,523.622000,760.764000,512.468000,759.359000C507.768000,758.767000,503.012000,758.393000,498.402000,757.377000C492.726000,756.125000,489.892000,758.390000,488.336000,763.665000C482.879000,782.158000,482.867000,799.907000,495.066000,816.195000C483.797000,816.080000,476.822000,809.326000,476.512000,798.206000C476.033000,781.073000,483.154000,766.524000,492.241000,752.680000C493.487000,750.781000,494.850000,748.958000,496.434000,746.709000C505.113000,749.788000,513.782000,752.937000,522.500000,755.939000C532.383000,759.342000,534.938000,758.540000,541.560000,750.232000C543.574000,747.707000,545.601000,745.182000,547.448000,742.536000C552.136000,735.818000,551.311000,732.989000,544.129000,729.142000C537.165000,725.414000,530.332000,721.441000,521.692000,716.595000C532.955000,708.032000,542.556000,700.059000,552.826000,693.067000C572.634000,679.581000,593.135000,666.907000,616.175000,659.940000C627.758000,656.437000,640.375000,655.321000,652.558000,655.108000C666.012000,654.873000,673.694000,671.956000,667.225000,684.800000C658.614000,701.899000,646.643000,716.618000,635.064000,731.640000C631.737000,735.957000,628.420000,740.283000,624.535000,744.257000C637.027000,723.198000,649.320000,702.095000,659.181000,678.766000C649.516000,678.357000,641.173000,678.497000,632.575000,681.121000C626.263000,683.048000,618.917000,683.237000,612.328000,682.240000C601.606000,680.615000,594.858000,685.077000,589.528000,693.462000C581.681000,705.806000,573.865000,718.167000,565.897000,730.433000C555.654000,746.200000,545.248000,761.862000,534.978000,777.612000C533.146000,780.417000,531.634000,783.432000,529.993000,786.321000Z" transform="translate(-573.021973,-735.650391)" opacity="0" clip-rule="evenodd" fill="rgb(255,255,255)" fill-rule="evenodd" stroke="none" stroke-width="1"/></g><g id="egtcbvzlywgd43_to" transform="translate(483.584000,294.110352)"><path id="egtcbvzlywgd43" d="M621.707000,302.075000C607.111000,310.184000,593.923000,317.659000,580.526000,324.740000C579.116000,325.486000,576.218000,324.359000,574.447000,323.341000C549.895000,309.245000,523.837000,299.007000,496.183000,293.023000C459.886000,285.169000,423.453000,284.505000,387.043000,292.262000C381.146000,293.519000,376.942000,292.603000,372.439000,288.165000C363.817000,279.666000,354.367000,272.006000,345.461000,263.344000C439.054000,261.939000,530.578000,274.620000,621.707000,302.075000Z" transform="translate(-483.584000,-294.110352)" opacity="0" clip-rule="evenodd" fill="rgb(255,255,255)" fill-rule="evenodd" stroke="none" stroke-width="1"/></g><g id="egtcbvzlywgd44_to" transform="translate(476.698105,205.346855)"><path id="egtcbvzlywgd44" d="M525.888000,253.082000C489.567000,248.609000,453.880000,244.214000,417.285000,239.708000C419.928000,225.608000,422.616000,210.945000,425.518000,196.325000C425.774000,195.037000,427.217000,193.451000,428.474000,192.981000C438.432000,189.255000,448.478000,185.768000,457.375000,182.605000C448.503000,201.088000,451.096000,215.882000,466.335000,227.959000C479.672000,238.527000,498.688000,239.030000,510.644000,229.131000C522.963000,218.930000,526.309000,201.135000,518.727000,186.138000C510.439000,169.744000,494.934000,165.466000,468.126000,172.235000C468.448000,171.702000,468.662000,171.183000,469.016000,170.788000C483.050000,155.100000,494.352000,153.720000,515.807000,165.054000C533.012000,174.143000,538.489000,184.676000,535.208000,204.206000C532.454000,220.609000,529.002000,236.894000,525.888000,253.082000Z" transform="translate(-476.698105,-205.346855)" opacity="0" clip-rule="evenodd" fill="rgb(255,255,255)" fill-rule="evenodd" stroke="none" stroke-width="1"/></g><g id="egtcbvzlywgd45_to" transform="translate(673.163544,560.361496)"><path id="egtcbvzlywgd45" d="M691.837000,510.691000C699.378000,543.935000,699.479000,577.295000,692.954000,610.032000C678.369000,607.186000,664.353000,604.450000,649.670000,601.585000C657.288000,574.284000,653.044000,546.038000,648.647000,518.107000C662.935000,515.654000,676.862000,513.263000,691.837000,510.691000ZM667.695000,563.939000C669.473000,569.036000,670.273000,573.908000,672.783000,577.625000C674.476000,580.132000,678.744000,582.496000,681.565000,582.191000C684.346000,581.892000,687.714000,578.640000,689.147000,575.829000C693.205000,567.877000,692.785000,559.514000,689.121000,551.361000C686.038000,544.505000,678.670000,543.094000,674.279000,549.208000C671.227000,553.457000,669.859000,558.918000,667.695000,563.939000Z" transform="translate(-673.163544,-560.361496)" opacity="0" clip-rule="evenodd" fill="rgb(255,255,255)" fill-rule="evenodd" stroke="none" stroke-width="1"/></g><g id="egtcbvzlywgd46_to" transform="translate(388.777008,173.392998)"><path id="egtcbvzlywgd46" d="M351.940000,196C363.525000,180.421000,375.111000,164.843000,386.696000,149.263000C387.278000,149.350000,387.859000,149.437000,388.440000,149.523000C388.828000,175.078000,404.401000,184.043000,425.614000,185.905000C423.707000,187.687000,421.106000,190.118000,417.519000,193.471000C396.785000,189.418000,374.872000,190.968000,353.250000,197.523000C352.814000,197.016000,352.377000,196.508000,351.940000,196Z" transform="translate(-388.777008,-173.392998)" opacity="0" clip-rule="evenodd" fill="rgb(255,255,255)" fill-rule="evenodd" stroke="none" stroke-width="1"/></g><g id="egtcbvzlywgd47_to" transform="translate(487.806946,204.921196)"><path id="egtcbvzlywgd47" d="M472.120000,182.976000C469.491000,195.281000,474.213000,202.625000,485.471000,204.281000C495.964000,205.824000,504.013000,198.397000,505.139000,186.133000C513.535000,192.561000,514.207000,205.301000,511.102000,213.327000C507.279000,223.212000,498.670000,227.821000,486.822000,226.702000C475.825000,225.662000,465.305000,216.922000,463.543000,206.386000C462.100000,197.760000,461.810000,187.596000,472.120000,182.976000Z" transform="translate(-487.806946,-204.921196)" opacity="0" clip-rule="evenodd" fill="rgb(255,255,255)" fill-rule="evenodd" stroke="none" stroke-width="1"/></g><g id="egtcbvzlywgd48_to" transform="translate(405.460983,312.594986)"><path id="egtcbvzlywgd48" d="M386.383000,324.960000C386.910000,318.381000,387.374000,312.605000,387.920000,305.805000C399.786000,303.998000,411.639000,302.194000,424.539000,300.230000C423.040000,307.925000,421.817000,314.547000,420.387000,321.124000C420.210000,321.938000,418.974000,323.060000,418.166000,323.115000C407.829000,323.814000,397.482000,324.345000,386.383000,324.960000Z" transform="translate(-405.460983,-312.594986)" opacity="0" clip-rule="evenodd" fill="rgb(255,255,255)" fill-rule="evenodd" stroke="none" stroke-width="1"/></g><g id="egtcbvzlywgd49_to" transform="translate(487.541519,699.862610)"><path id="egtcbvzlywgd49" d="M529.653000,662.487000C517.790000,671.302000,505.164000,678.753000,494.979000,688.702000C479.538000,703.787000,465.807000,720.623000,451.304000,736.673000C449.998000,738.118000,448.360000,739.263000,446.874000,740.548000C446.393000,740.139000,445.911000,739.729000,445.430000,739.320000C446.420000,737.414000,447.247000,735.401000,448.423000,733.617000C467.730000,704.328000,492.390000,680.429000,521.485000,660.957000C525.313000,658.396000,527.984000,658.344000,529.653000,662.487000Z" transform="translate(-487.541519,-699.862610)" opacity="0" clip-rule="evenodd" fill="rgb(255,255,255)" fill-rule="evenodd" stroke="none" stroke-width="1"/></g><g id="egtcbvzlywgd50_to" transform="translate(355.235596,226.949997)"><path id="egtcbvzlywgd50" d="M352.522000,235.466000C353.411000,229.420000,354.300000,223.374000,355.206000,217.209000C358.021000,218.585000,358.701000,224.326000,357.100000,233.292000C356.875000,234.549000,355.298000,235.563000,354.346000,236.691000C353.737000,236.283000,353.130000,235.874000,352.522000,235.466000Z" transform="translate(-355.235596,-226.949997)" opacity="0" clip-rule="evenodd" fill="rgb(255,255,255)" fill-rule="evenodd" stroke="none" stroke-width="1"/></g><g id="egtcbvzlywgd51_to" transform="translate(620.838928,560.369995)"><path id="egtcbvzlywgd51" d="M620.544000,549.384000C625.899000,554.957000,627.160000,563.628000,623.736000,569.392000C622.048000,572.234000,620.222000,571.707000,618.382000,569.620000C614.484000,565.197000,615.603000,553.686000,620.544000,549.384000Z" transform="translate(-620.838928,-560.369995)" opacity="0" clip-rule="evenodd" fill="rgb(255,255,255)" fill-rule="evenodd" stroke="none" stroke-width="1"/></g><g id="egtcbvzlywgd52_to" transform="translate(404.592987,714.210632)"><path id="egtcbvzlywgd52" d="M396.107000,707.245000C404.361000,706.641000,412.711000,713.632000,413.079000,721.083000C405.593000,722.229000,397.304000,715.633000,396.107000,707.245000Z" transform="translate(-404.592987,-714.210632)" opacity="0" clip-rule="evenodd" fill="rgb(255,255,255)" fill-rule="evenodd" stroke="none" stroke-width="1"/></g><g id="egtcbvzlywgd53_to" transform="translate(371.072922,363.814041)"><path id="egtcbvzlywgd53" d="M371.726000,358.080000C374.496000,359.151000,376.987000,359.499000,378.484000,360.904000C379.525000,361.881000,380.070000,364.903000,379.333000,365.987000C376.594000,370.015000,366.174000,370.843000,362.953000,367.349000C362.185000,366.516000,362.385000,363.369000,363.228000,362.735000C365.831000,360.780000,368.959000,359.524000,371.726000,358.080000Z" transform="translate(-371.072922,-363.814041)" opacity="0" clip-rule="evenodd" fill="rgb(255,255,255)" fill-rule="evenodd" stroke="none" stroke-width="1"/></g><g id="egtcbvzlywgd54_to" transform="translate(354.183990,779.866241)"><path id="egtcbvzlywgd54" d="M345.245000,775.073000C352.807000,775.249000,358.872000,777.391000,363.123000,783.813000C357.207000,786.562000,348.355000,782.345000,345.245000,775.073000Z" transform="translate(-354.183990,-779.866241)" opacity="0" clip-rule="evenodd" fill="rgb(255,255,255)" fill-rule="evenodd" stroke="none" stroke-width="1"/></g><g id="egtcbvzlywgd55_to" transform="translate(340.075409,467.595490)"><path id="egtcbvzlywgd55" d="M352.458000,489.292000C341.821000,476.119000,332.442000,464.503000,322.819000,452.586000C325.409000,450.353000,327.814000,448.280000,330.574000,445.899000C342.604000,454.820000,350.992000,466.419000,357.198000,479.501000C358.065000,481.331000,354.514000,485.257000,352.458000,489.292000Z" transform="translate(-340.075409,-467.595490)" opacity="0" clip-rule="evenodd" fill="rgb(255,255,255)" fill-rule="evenodd" stroke="none" stroke-width="1"/></g><g id="egtcbvzlywgd56_to" transform="translate(258.741356,576.207733)"><path id="egtcbvzlywgd56" d="M276.673000,588.488000C275.553000,593.159000,274.609000,599.190000,272.630000,604.860000C269.681000,613.310000,262.655000,614.871000,256.211000,608.603000C246.177000,598.842000,241.903000,586.211000,240.982000,572.747000C240.436000,564.762000,241.189000,556.343000,243.224000,548.610000C245.878000,538.526000,252.057000,537.358000,259.352000,544.726000C270.940000,556.428000,274.625000,571.415000,276.673000,588.488000Z" transform="translate(-258.741356,-576.207733)" opacity="0" clip-rule="evenodd" fill="rgb(255,255,255)" fill-rule="evenodd" stroke="none" stroke-width="1"/></g><g id="egtcbvzlywgd57_to" transform="translate(680.790833,563.910645)"><path id="egtcbvzlywgd57" d="M681.909000,552.170000C687.008000,559.457000,687.866000,566.689000,683.483000,574.025000C682.839000,575.102000,679.775000,576.058000,678.922000,575.474000C672.775000,571.270000,674.808000,555.320000,681.909000,552.170000Z" transform="translate(-680.790833,-563.910645)" opacity="0" clip-rule="evenodd" fill="rgb(255,255,255)" fill-rule="evenodd" stroke="none" stroke-width="1"/></g></g></svg>