<?xml version="1.0" encoding="utf-8"?>
<!-- Generator: Adobe Illustrator 13.0.0, SVG Export Plug-In . SVG Version: 6.00 Build 14948)  -->
<!DOCTYPE svg PUBLIC "-//W3C//DTD SVG 1.0//EN" "http://www.w3.org/TR/2001/REC-SVG-20010904/DTD/svg10.dtd">
<svg version="1.0" id="Layer_1" xmlns="http://www.w3.org/2000/svg" xmlns:xlink="http://www.w3.org/1999/xlink" x="0px" y="0px"
	 width="500px" height="500px" viewBox="0 0 500 500" enable-background="new 0 0 500 500" xml:space="preserve">
<ellipse fill="#666666" cx="261.861" cy="380.138" rx="140.229" ry="22.362"/>
<g id="Layer_2_copy_3_2_">
	<path d="M469.643,113.097c-12.205-5.776-39.505-1.863-65.781,1.957c-16.586,2.422-32.146,4.659-41.649,4.006
		c-20.686-1.305-32.146,4.1-37.271,7.547c-0.745-1.025-1.584-2.05-2.423-3.168c-3.262-3.914-7.36-7.733-12.207-10.995
		c-4.752-3.354-10.249-6.243-16.212-8.386c-5.03-1.771-10.343-3.075-15.746-4.007c0.372-0.932,0.745-1.864,1.024-2.609
		c0.187-0.466,0.373-0.932,0.466-1.304c0.188-0.373,0.281-0.746,0.374-1.025c0.093-0.28,0.187-0.559,0.279-0.652
		c0.094-0.093,0.094-0.187,0.094-0.28c0,0-0.094,0.093-0.187,0.093c-0.094,0.093-0.279,0.28-0.561,0.466
		c-0.466,0.466-1.116,1.024-1.77,1.863c-0.744,0.838-1.491,1.864-2.235,3.075c-0.187,0-0.279-0.093-0.466-0.093
		c-1.584-0.279-3.262-0.466-4.938-0.652c-1.678-0.187-3.354-0.373-4.938-0.466c-0.278,0-0.466,0-0.651,0
		c0.093-0.373,0.279-0.746,0.373-1.119c0.278-0.838,0.559-1.584,0.837-2.422c0.561-1.584,1.118-3.075,1.584-4.286
		c0.279-0.652,0.466-1.211,0.559-1.771c0.187-0.559,0.373-1.025,0.466-1.397c0.187-0.652,0.373-1.118,0.373-1.211
		c-0.094,0.093-0.373,0.373-0.839,0.932c-0.559,0.652-1.211,1.491-2.048,2.608c-0.747,1.119-1.585,2.516-2.33,4.007
		c-0.373,0.746-0.747,1.584-1.119,2.422c-0.278,0.652-0.56,1.305-0.744,1.957c-0.466,0-0.839-0.093-1.305-0.093h-0.652
		c-0.279,0-0.466,0-0.652,0h-1.211l-2.517-0.093c-0.837,0-1.677-0.093-2.515-0.093h-2.517c-0.837,0-1.583,0-2.422,0
		c-0.186-1.304-0.373-2.516-0.559-3.541c-0.28-1.025-0.466-1.957-0.652-2.516c-0.187-0.652-0.28-0.932-0.28-0.932
		s-0.093,0.373-0.28,1.025c-0.093,0.652-0.278,1.49-0.466,2.609c-0.094,1.025-0.186,2.236-0.278,3.541h-0.095
		c-1.677,0.093-3.261,0.187-4.938,0.279c-1.677,0.187-3.261,0.28-4.938,0.466c-6.522,0.745-12.858,2.049-18.821,3.913
		c-5.963,1.863-11.647,4.193-16.679,7.081c-5.125,2.795-9.597,5.963-13.417,9.225s-7.082,6.615-9.69,9.783
		c-0.559,0.652-1.025,1.305-1.491,1.864c-2.516-2.236-11.927-9.597-24.505-9.597c-8.013,0-37.271,0.559-65.782,3.261
		c-39.879,3.727-62.428,9.69-68.95,18.263c-1.957,2.608-2.609,5.59-1.771,8.572l0.093,0.28l0.093,0.279
		c3.82,7.454,18.822,23.48,44.631,36.991c19.847,10.436,51.806,22.083,94.759,22.083c3.913,0,7.92-0.093,12.02-0.279
		c1.025,1.863,2.143,3.727,3.261,5.497c-0.652,0.28-1.304,0.652-1.957,1.025c-0.838,0.466-1.584,1.118-2.236,1.77
		c-0.745,0.652-1.397,1.305-1.957,2.051c-0.559,0.745-1.118,1.49-1.584,2.329s-0.932,1.677-1.305,2.516
		c-0.373,0.839-0.745,1.771-1.024,2.608c-0.28,0.839-0.559,1.771-0.746,2.702s-0.373,1.77-0.466,2.701s-0.186,1.771-0.279,2.702
		c0,0.932-0.093,1.77-0.093,2.701s0,1.771,0,2.702s0,1.77,0.093,2.701c0,0.372,0.093,0.746,0.093,1.118
		c-0.093,0.094-0.187,0.187-0.187,0.28c-0.559,0.56-1.118,1.212-1.77,1.957c-0.652,0.746-1.304,1.49-2.05,2.329
		c-0.652,0.838-1.397,1.77-2.143,2.795c-0.746,0.932-1.398,1.957-2.144,3.076c-0.745,1.024-1.397,2.142-2.049,3.261
		c-0.652,1.117-1.212,2.235-1.864,3.354c-0.559,1.117-1.118,2.236-1.584,3.355c-0.466,1.118-0.932,2.142-1.304,3.261
		c-0.466,1.024-0.746,2.05-1.025,2.889c-0.279,0.932-0.559,1.771-0.745,2.515c-0.187,0.746-0.373,1.397-0.466,1.957
		c-0.093,0.466-0.187,0.932-0.28,1.212l0,0c-3.913-1.118-8.106-0.56-11.647,1.398c-16.306,9.411-12.392,26.74-8.479,34.754l0,0
		c-3.354,8.014-6.336,18.169-3.075,24.412c1.025,1.863,2.889,4.193,6.616,5.219c0.652,0.186,1.397,0.372,2.236,0.466
		c1.864,1.397,4.659,2.701,7.64,2.701c1.398,0,2.795-0.28,4.193-1.025c0.466-0.28,0.932-0.559,1.398-0.838
		c1.771,1.025,4.379,2.049,6.895,1.211c1.491-0.466,3.447-1.677,4.379-4.938c0.373-1.212,0.559-2.423,0.746-3.541
		c0.373,0.094,0.838,0.094,1.211,0.094c3.634,0,7.175-2.515,11.274-8.014c-0.373,1.304-0.746,2.609-1.118,3.913
		c-1.212,4.193-2.33,8.479-3.261,12.858c-0.932,4.287-1.678,8.758-2.144,13.231c-0.373,4.472-0.466,9.037,0.373,13.789
		c0.466,2.33,1.212,4.659,2.33,6.895c1.118,2.145,2.795,4.101,4.845,5.591l0.093,0.094c0.093,0.094,0.093,0.094,0.187,0.094
		c0.093,0.094,0.187,0.187,0.279,0.187c0.187,0.094,0.373,0.279,0.559,0.372c0.373,0.186,0.653,0.373,1.025,0.56
		c0.652,0.372,1.304,0.651,1.957,0.838c0.652,0.279,1.304,0.466,1.957,0.651c0.652,0.188,1.304,0.373,1.956,0.466
		c0.652,0.188,1.305,0.28,1.957,0.373c0.652,0.094,1.304,0.187,1.957,0.28c0.652,0.094,1.304,0.187,1.957,0.187l1.957,0.186
		c0.652,0.095,1.304,0.095,1.957,0.095c0.652,0,1.304,0.093,1.957,0.093h3.82c2.516,0,5.125,0,7.64-0.093l0,0h0.093
		c5.404-0.561,10.715-0.84,16.119-1.12c5.404-0.278,10.809-0.372,16.213-0.466c5.404,0,10.808,0,16.213,0.094
		c2.702,0.094,5.403,0.187,8.105,0.28l4.007,0.186h1.118h0.559h0.652c0.839-0.094,1.677-0.186,2.516-0.372
		c1.677-0.466,3.169-1.211,4.473-2.143c0.373-0.28,0.652-0.466,0.932-0.746c0.279-0.279,0.652-0.56,0.839-0.745c0,0,0,0,0.093-0.093
		c0.373,0.371,0.652,0.744,1.026,1.024c1.024,1.026,2.234,2.049,3.446,2.89c2.516,1.77,5.311,2.98,8.201,3.82
		c2.888,0.839,5.774,1.211,8.665,1.397c5.776,0.186,11.181-0.28,16.677-0.839c5.498-0.559,10.902-1.211,16.306-1.956l16.121-2.145
		c2.608-0.372,5.31-0.651,7.826-0.838c0.651,0,1.21-0.094,1.77-0.094l1.957,0.094c1.491,0,3.074,0,4.659-0.279
		c3.073-0.466,6.429-1.49,9.224-3.633c2.795-2.144,4.846-5.312,5.777-8.479c0.466-1.584,0.837-3.169,0.932-4.752v-0.188v-0.278
		v-0.28v-0.466l0.093-1.024v-2.236c-0.093-2.889-0.279-5.684-0.559-8.479c-0.652-5.497-1.584-10.995-2.796-16.399
		c-0.652-2.701-1.305-5.404-2.144-8.106c-0.746-2.7-1.678-5.403-2.701-8.014l-1.584-3.727c-0.466-1.21-1.024-2.423-1.397-3.727
		c-0.933-2.516-1.771-5.031-2.609-7.548c-0.838-2.515-1.491-5.125-2.143-7.732c-0.652-2.236-1.397-4.565-2.144-6.803
		c1.491-1.024,2.98-2.144,4.286-3.354c0.652-0.653,1.304-1.305,1.957-2.051c0.56-0.651,1.211-1.303,1.771-1.863
		c0.652-0.651,1.211-1.21,1.957-1.863c0.651-0.651,1.304-1.118,2.049-1.864c0.746-0.744,1.305-1.583,1.771-2.515
		s0.746-1.956,0.932-2.98c0.28-2.052-0.094-4.1-0.839-5.871c-0.559-1.305-1.211-2.609-1.956-3.728
		c0.371-0.186,0.745-0.373,1.117-0.651c0.466-0.28,0.932-0.561,1.398-0.838c0.932-0.56,1.77-1.213,2.609-1.863
		c0.466-0.281,0.837-0.653,1.211-1.025c0.372-0.372,0.838-0.653,1.211-1.026c0.839-0.744,1.584-1.397,2.329-2.235
		c0.373-0.372,0.746-0.746,1.119-1.212c0.187-0.28,0.466-0.466,0.652-0.746c0.559,0.095,1.117,0.095,1.769,0.188
		c0.839,0.093,1.584,0.093,2.424,0c1.677-0.095,3.262-0.28,4.938-0.839c1.584-0.559,3.261-1.583,4.192-3.168
		c0.466-0.744,0.838-1.676,1.025-2.515c0.186-1.119,0-2.051-0.372-2.982c-0.373-0.838-1.025-1.583-1.584-2.142
		c-0.652-0.653-1.305-1.119-1.958-1.585c-1.397-0.932-2.795-1.584-4.286-2.236c-1.49-0.651-2.98-1.117-4.472-1.677
		c-0.279-0.093-0.652-0.187-0.932-0.28c0.187-0.094,0.372-0.186,0.56-0.278c0.372-0.188,0.744-0.466,1.117-0.747
		c0.746-0.559,1.397-1.21,2.05-1.956c0.279-0.373,0.56-0.746,0.838-1.212c0.186-0.466,0.466-0.838,0.651-1.304
		c0.187-0.466,0.374-0.932,0.374-1.492l0.093-0.744c0-0.28,0-0.561,0-0.746c0-0.28,0-0.56-0.093-0.746l-0.188-0.651
		c-0.093-0.56-0.372-0.932-0.559-1.397s-0.466-0.839-0.747-1.305c-0.278-0.466-0.559-0.746-0.932-1.119l-0.466-0.559l-0.093-0.094
		l0,0l0,0l0,0l-0.093-0.093l-0.095-0.093l-0.279-0.187l-0.279-0.187l-0.373-0.279c-0.279-0.187-0.466-0.373-0.745-0.466
		c-0.932-0.466-1.863-0.745-2.888-0.932c-0.932-0.187-1.958-0.187-2.89-0.093c-1.863,0.186-3.541,0.745-5.218,1.304
		s-3.168,1.397-4.659,2.144c-0.745,0.372-1.491,0.838-2.235,1.304c-0.188,0.095-0.466,0.28-0.653,0.373l0,0l-0.65,0.372
		l-0.187,0.094c-0.933-0.466-1.959-0.932-2.982-1.211c-1.304-0.466-2.608-0.746-4.006-0.839c-1.397-0.187-2.703-0.187-4.101-0.093
		c-1.397,0.093-2.7,0.372-4.006,0.745c-2.051,0.559-4.007,1.304-5.87,2.235c-0.095-1.77-0.373-4.007-0.745-6.243
		c-0.373-2.329-0.839-4.658-1.397-6.429c-0.094-0.279-0.187-0.466-0.281-0.745c3.168-4.473,5.59-9.784,7.083-15.747l0.093-0.279
		c0.094-0.839,0.28-1.677,0.373-2.423c6.987,1.304,14.162,1.957,21.057,1.957c28.792,0,55.068-9.783,61.776-14.535
		c28.325-12.392,47.613-57.117,49.663-62.148C477.283,121.762,474.954,115.614,469.643,113.097z"/>
	<path fill="#93CA4B" d="M355.782,252.768c-0.559,1.397-1.956,2.795-5.218,2.795c-1.118,0-2.516-0.186-4.1-0.56
		c-0.279,0.933-0.559,1.771-0.838,2.702c0.746,0.28,2.701,0.746,7.176,0.372c2.422-0.279,4.098-1.397,4.751-3.447
		c0.932-2.889-0.28-6.802-3.075-9.689c-0.466,0.186-1.025,0.466-1.491,0.745C355.224,247.27,356.808,250.345,355.782,252.768z"/>
	<path fill="#FFFFFF" d="M182.01,173.661c-0.838,1.864-1.49,3.634-1.956,5.032c-0.28,0.746-0.373,1.397-0.373,2.143
		c0,1.864,0.746,3.634,2.143,4.938c0.652,0.56,1.305,1.212,2.144,1.864C182.103,183.166,181.824,177.947,182.01,173.661z"/>
	<path fill="#FFFFFF" d="M327.83,171.146c0.932,4.845,1.397,10.901-0.279,16.119c0.652-0.466,1.211-1.025,1.677-1.491
		c1.863-1.77,2.61-4.472,1.771-6.988L327.83,171.146z"/>
	<g>
		<path fill="#D97275" d="M445.23,134.434c-36.988-8.013-88.423,7.268-99.79,10.901c0.652,5.218,1.677,18.635-1.118,42.488
			c63.453-2.33,92.804-34.941,102.587-48.917C448.12,137.229,447.188,134.9,445.23,134.434z"/>
		<path fill="#D97275" d="M45.415,154.748c18.728,33.45,96.25,34.847,111.903,34.754c-6.335-20.126-7.92-39.972-8.292-46.774
			c-58.607-7.827-90.939,2.981-102.307,8.106C45.322,151.579,44.669,153.35,45.415,154.748z"/>
	</g>
	<g>
		<path fill="#93CA4B" d="M129.925,307.09c-4.938,8.944-10.715,23.106-7.733,28.885c0.093,0.278,0.279,0.559,0.559,0.837
			c0-0.466,0.093-1.024,0.093-1.583c0.093-0.652,0.187-1.398,0.373-2.145c0.186-0.651,0.279-1.397,0.466-2.049
			c1.583-5.498,4.472-9.969,4.472-9.969s-0.279,1.303-0.559,3.261c-0.093,1.024-0.186,2.142-0.279,3.354
			c-0.093,1.211,0,2.515,0.093,3.727c0,0.651,0.093,1.211,0.186,1.863c0.093,0.56,0.186,1.211,0.28,1.677
			c0.279,2.702,1.677,4.939,1.677,4.939l0,0c1.025,0.745,2.982,1.677,4.845,1.211c-0.187-0.56-0.28-1.117-0.373-1.677
			c-0.093-0.56-0.093-1.118,0-1.678c0.093-1.117,0.28-2.236,0.559-3.262c0.56-2.049,1.305-3.912,1.957-5.31
			c0.652-1.398,1.118-2.236,1.118-2.236s0,1.024,0,2.423c0.093,1.492,0.187,3.447,0.652,5.219c0.373,2.423,1.864,4.193,1.864,4.193
			l0.559,0.466c1.118,0.932,3.075,1.863,3.82,1.583c0.187-0.094,0.466-0.466,0.652-1.117c0.745-2.329,0.652-4.659,0.652-6.803
			c0-2.98-0.093-5.964,1.864-8.571C146.79,323.487,146.417,318.362,129.925,307.09z"/>
		<path fill="#93CA4B" d="M360.256,234.879L360.256,234.879c-0.28,0.186-0.466,0.371-0.746,0.466
			c-0.094,0.093-0.28,0.186-0.373,0.371l-0.466,0.466c-0.186,0.095-0.278,0.28-0.372,0.466c-0.094,0.187-0.279,0.28-0.372,0.466
			c-0.186,0.373-0.372,0.746-0.56,1.118c-0.187,0.372-0.372,0.745-0.466,1.212c-0.187,0.373-0.279,0.839-0.372,1.212
			c-0.094,0.466-0.186,0.838-0.186,1.304c0,0.187,0,0.466-0.095,0.652l0,0c3.728,3.727,5.312,8.758,3.914,12.857
			c-1.026,3.075-3.634,4.938-7.175,5.312c-1.398,0.093-2.516,0.186-3.541,0.186c-2.05,0-3.447-0.279-4.472-0.56
			c-0.28,1.77-0.466,3.542-0.56,5.405c-0.094,2.143,0,4.378,0.372,6.429c0.095,0.466,0.187,1.025,0.373,1.397
			c0.186,0.56,0.371,1.117,0.559,1.677c0.187,0.56,0.279,1.118,0.466,1.678l0.095,0.466v0.094l0,0l0,0v0.093v0.095l0.093,0.186
			c0,0,0,0,0,0.093c0,0,0,0.094,0.093,0.188c0.28,0.466,0.932,0.744,1.492,0.559c0.279-0.093,0.466-0.28,0.745-0.466
			c0,0,0-0.093,0.093-0.093l0.094-0.188l0.28-0.372l0.466-0.745l3.728-5.591l0.373-0.466h0.65l1.397-0.093
			c0.466,0,0.932-0.095,1.397-0.188c0.466-0.092,0.932-0.186,1.397-0.278l1.397-0.466l1.398-0.561
			c0.373-0.093,0.652-0.279,1.025-0.466c0.094-0.093,0.188-0.093,0.372-0.186c0.466-0.186,0.932-0.466,1.305-0.746
			c0.466-0.279,0.838-0.466,1.304-0.745c0.838-0.56,1.678-1.118,2.423-1.77c0.372-0.28,0.839-0.651,1.212-0.932
			s0.745-0.652,1.118-1.026c0.745-0.652,1.49-1.397,2.235-2.143c0.372-0.373,0.746-0.746,1.025-1.118
			c0.372-0.372,0.652-0.745,1.024-1.118l0.466-0.559l0.652,0.093c0.652,0.095,1.398,0.187,2.144,0.28c0.747,0,1.491,0.093,2.236,0
			c1.397,0,2.888-0.28,4.192-0.746s2.423-1.211,3.075-2.235c0.373-0.56,0.561-1.119,0.745-1.771c0.094-0.466,0-1.024-0.279-1.49
			c-0.466-1.026-1.584-2.051-2.795-2.795c-1.212-0.746-2.517-1.492-3.914-2.051s-2.795-1.118-4.192-1.584
			c-0.746-0.28-1.491-0.466-2.144-0.652l-1.118-0.279l-0.559-0.187l-0.187-0.094h-0.187h-0.093l-0.094-0.093h-0.094
			c-0.187,0.093-0.838-0.932-0.372-1.583c0.372-0.466,0.28-0.28,0.372-0.373c0.187-0.093,0.466-0.187,0.56-0.187l0,0
			c0.651-0.186,1.304-0.466,1.957-0.838c0.372-0.186,0.652-0.372,0.932-0.56c0.279-0.186,0.56-0.466,0.839-0.651
			c0.56-0.467,1.025-1.026,1.491-1.585c0.187-0.279,0.372-0.56,0.559-0.932c0.094-0.279,0.281-0.651,0.373-0.932
			c0.092-0.279,0.187-0.651,0.187-0.932l0.093-0.466c0-0.186,0-0.279,0-0.466c0-0.186,0-0.279,0-0.466l-0.093-0.466
			c0-0.279-0.28-0.56-0.373-0.932c-0.093-0.279-0.371-0.56-0.559-0.839s-0.466-0.56-0.652-0.745l-0.373-0.373h-0.093l0,0l0,0l0,0
			l0,0l0,0l-0.279-0.186l-0.28-0.186l-0.187-0.095c-0.094-0.093-0.187-0.186-0.373-0.186c-0.559-0.28-1.211-0.466-1.863-0.651
			c-0.652-0.094-1.397-0.094-2.143-0.094c-1.491,0.094-2.981,0.466-4.473,0.932c-1.492,0.56-2.981,1.118-4.379,1.957
			c-0.745,0.373-1.397,0.746-2.05,1.213c-0.187,0.093-0.372,0.279-0.652,0.373l0,0L360.256,234.879z M362.025,256.867
			c0,0-0.093,0.838-0.652,1.863c-0.279,0.56-0.559,1.211-1.024,1.77c-0.187,0.28-0.466,0.652-0.745,0.932
			c-0.281,0.28-0.561,0.652-0.84,0.838c-0.652,0.56-1.211,1.026-1.956,1.398c-0.373,0.187-0.652,0.372-1.026,0.466
			c-0.279,0.187-0.651,0.28-0.932,0.372c-0.559,0.188-1.117,0.28-1.397,0.28c-0.371,0-0.559,0-0.559,0s0.186-0.093,0.466-0.28
			c0.186-0.093,0.373-0.186,0.559-0.278c0.187-0.095,0.466-0.28,0.652-0.373c0.279-0.093,0.466-0.28,0.745-0.466
			c0.28-0.187,0.561-0.373,0.839-0.56c0.186-0.094,0.279-0.187,0.466-0.28c0.186-0.093,0.279-0.279,0.466-0.373
			c0.279-0.186,0.559-0.466,0.839-0.744c0.278-0.28,0.559-0.561,0.838-0.746c0.279-0.28,0.466-0.56,0.745-0.839
			c0.466-0.559,0.932-1.024,1.213-1.49C361.56,257.52,362.025,256.867,362.025,256.867z"/>
		<path fill="#93CA4B" d="M467.313,118.222c-10.715-5.032-38.295-1.118-62.614,2.422c-16.864,2.423-32.796,4.659-42.86,4.1
			c-19.474-1.211-29.723,3.727-33.822,6.616c0.745,1.304,1.397,2.516,2.05,3.727c1.863,3.727,3.074,7.082,3.913,9.876
			c0.837,2.795,1.117,5.125,1.117,6.708c0,1.584-0.28,2.423-0.28,2.423s-0.371-0.746-1.024-2.143s-1.49-3.448-2.609-6.057
			c-1.025-2.609-2.515-5.59-4.565-8.852c-1.491-2.422-3.261-4.845-5.403-7.361c-0.839-0.932-1.678-1.863-2.517-2.795
			c-3.261-3.448-7.081-6.802-11.553-9.784c-4.474-2.981-9.503-5.59-15.002-7.827c-4.938-2.049-10.249-3.727-15.746-4.938l0,0
			c-0.651,1.211-1.212,2.33-1.863,3.448c-0.651,1.118-1.212,2.049-1.77,2.981c-0.56,0.838-1.025,1.584-1.306,2.05
			c-0.278,0.559-0.559,0.838-0.559,0.838s0-0.373,0-0.932c0-0.652,0.093-1.491,0.372-2.516c0.373-1.863,1.213-4.193,2.33-6.429
			c-2.796-0.559-5.591-0.932-8.386-1.304c-0.56,0-1.118-0.093-1.678-0.093l0,0c-0.279,0.838-0.56,1.77-0.745,2.609
			c-0.188,0.745-0.466,1.584-0.653,2.236c-0.186,0.745-0.371,1.397-0.466,2.049c-0.093,0.652-0.278,1.212-0.371,1.771
			c-0.095,0.559-0.187,1.024-0.28,1.397c-0.093,0.745-0.186,1.211-0.186,1.211s-0.095-0.466-0.372-1.211
			c-0.094-0.373-0.28-0.839-0.28-1.397c-0.094-0.559-0.094-1.212-0.186-1.864c0-0.746,0-1.491,0-2.236
			c0.094-0.839,0.186-1.677,0.278-2.516c0.188-0.746,0.281-1.491,0.466-2.236c-0.185,0-0.278,0-0.466,0
			c-1.582-0.093-3.166-0.093-4.752-0.187c-0.838,0-1.584,0-2.423,0h-2.422c-0.652,0-1.398,0-2.05,0c0,0.187,0,0.279,0,0.466
			c0.187,2.795,0.281,5.59,0.187,7.733c0,0.56,0,1.025,0,1.491s0,0.838,0,1.118c0,0.652,0,1.025,0,1.025s-0.093-0.093-0.187-0.187
			c-0.093-0.187-0.279-0.373-0.372-0.652c-0.094-0.279-0.278-0.652-0.466-1.024c-0.186-0.373-0.371-0.839-0.466-1.397
			c-0.372-1.025-0.652-2.237-0.837-3.634c-0.095-0.652-0.188-1.305-0.28-2.05c-0.093-0.652-0.186-1.397-0.186-2.143
			c0-0.186,0-0.373,0-0.559c-1.585,0.187-3.168,0.28-4.753,0.373c-1.583,0.186-3.167,0.373-4.751,0.652
			c-6.243,1.025-12.206,2.609-17.89,4.566c-5.59,2.049-10.808,4.472-15.467,7.268c-4.659,2.795-8.852,5.684-12.486,8.758
			c-3.727,2.982-6.708,6.056-9.317,8.945c-2.609,2.795-4.938,5.312-6.802,7.454c-3.82,4.286-5.963,6.709-5.963,6.709
			s0-0.187,0.093-0.652c0.093-0.373,0.187-1.025,0.373-1.771c0.373-1.584,1.118-3.727,2.423-6.429
			c0.466-0.932,0.932-1.864,1.584-2.889l-0.559,0.559c-0.093-0.093-9.131-8.666-21.244-8.666c-7.92,0-36.897,0.559-65.223,3.261
			c-49.383,4.659-61.961,12.113-65.036,16.12c-0.839,1.118-1.119,2.236-0.932,3.354c3.541,6.709,17.983,21.617,42.022,34.289
			c20.685,10.809,54.788,23.107,101.282,21.244c-1.491-3.261-2.889-6.522-4.1-9.876c-11.461,0.187-105.568,0.746-121.315-43.419l0,0
			c-0.466-1.211,0-2.609,1.118-3.354l0,0c1.398-0.932,34.848-22.083,113.115-10.995l2.329,0.374l0.093,2.422
			c0,0.466,1.118,36.152,14.536,63.825c4.845,10.063,11.367,19.008,19.939,24.878c12.579,8.572,28.325,9.597,46.867,2.982
			l1.491-0.56l1.211,1.025c0.466,0.372,8.479,6.708,20.312,4.564c3.633-0.651,7.641-2.143,11.927-4.752l1.024-0.651l1.213,0.279
			c0.093,0,13.603,3.261,28.232,1.212c12.392-1.771,21.802-6.709,28.046-14.723c3.261-4.192,5.684-9.224,7.174-15.188
			c6.615-41.463,3.075-59.073,2.982-59.259l-0.561-2.423l2.329-0.838c2.796-0.932,69.696-23.667,112.837-9.69l0,0
			c1.584,0.559,2.423,2.329,1.677,3.914l0,0c-0.279,0.559-6.988,14.442-24.412,28.605c-15.84,12.858-43.885,28.418-87.771,29.909
			c-0.094,0.932-0.279,1.863-0.372,2.795c36.245,7.175,73.89-7.92,78.92-11.74l0.279-0.187l0.28-0.093
			c26.369-11.274,44.91-54.415,46.96-59.26C470.854,122.415,469.737,119.433,467.313,118.222z M273.695,124.837
			c0.187-0.279,0.466-0.652,0.745-1.025c0.187-0.186,0.373-0.373,0.561-0.559c0.185-0.186,0.466-0.373,0.65-0.559
			c0.466-0.373,1.025-0.746,1.679-1.025c0.65-0.28,1.303-0.559,2.048-0.746c0.747-0.186,1.492-0.373,2.33-0.373
			c0.747-0.093,1.584,0,2.423,0c3.167,0.28,6.15,1.584,8.014,2.982c0.932,0.745,1.677,1.397,1.957,2.049
			c0.186,0.28,0.28,0.56,0.28,0.746c0,0.186,0,0.279,0,0.279s0-0.093-0.095-0.279c-0.093-0.094-0.279-0.28-0.559-0.466
			c-0.559-0.373-1.397-0.652-2.329-1.025c-2.05-0.652-4.752-1.397-7.454-1.584c-0.652-0.093-1.305-0.093-2.05-0.093
			c-0.652,0-1.305,0-1.958,0.093c-0.652,0.093-1.21,0.187-1.77,0.28s-1.118,0.279-1.584,0.466c-0.466,0.186-0.932,0.373-1.303,0.559
			c-0.373,0.186-0.746,0.373-1.026,0.559c-0.559,0.373-0.932,0.559-0.932,0.559S273.416,125.397,273.695,124.837z M273.695,149.994
			c1.677-3.727,15.746-18.262,33.077-12.206c6.895,2.423,9.224,4.473,10.994,5.963c1.305,1.025-0.187,2.982-1.584,2.143
			c-4.659-2.981-15.84-8.945-25.437-4.565c-12.393,5.777-13.697,14.442-16.119,13.977
			C272.111,154.84,271.924,153.721,273.695,149.994z M246.301,137.695c0.187-0.279,0.373-0.652,0.652-1.024
			c0.094-0.187,0.279-0.373,0.466-0.652c0.187-0.187,0.373-0.373,0.561-0.652c0.466-0.373,0.932-0.838,1.49-1.211
			c0.559-0.373,1.211-0.745,1.957-1.025c0.746-0.279,1.492-0.466,2.236-0.652c0.745-0.187,1.583-0.187,2.422-0.28
			c3.169-0.093,6.243,0.838,8.293,2.05c1.025,0.559,1.771,1.211,2.237,1.863c0.185,0.279,0.371,0.559,0.371,0.745
			c0,0.187,0,0.28,0,0.28s0-0.093-0.187-0.187c-0.093-0.093-0.279-0.279-0.559-0.373c-0.56-0.28-1.397-0.466-2.423-0.746
			c-2.05-0.466-4.845-0.838-7.641-0.745c-0.652,0-1.396,0.093-2.05,0.093c-0.652,0.093-1.305,0.186-1.957,0.279
			c-0.56,0.093-1.212,0.28-1.77,0.466c-0.558,0.187-1.026,0.373-1.492,0.652c-0.466,0.279-0.932,0.466-1.304,0.745
			c-0.373,0.28-0.652,0.466-0.932,0.652c-0.56,0.373-0.839,0.652-0.839,0.652S246.021,138.348,246.301,137.695z M249.096,182.047
			c0.56-0.279,1.213-0.56,1.864-0.746c0.747-0.187,1.491-0.373,2.329-0.373c0.373,0,0.839,0,1.213,0
			c0.371,0,0.838,0.093,1.211,0.186c0.372,0.093,0.745,0.187,1.118,0.28c0.372,0.093,0.651,0.279,0.933,0.373
			c0.279,0.186,0.466,0.373,0.745,0.466c0.187,0.093,0.371,0.373,0.466,0.466c0.279,0.279,0.371,0.466,0.371,0.466
			s-0.185-0.093-0.559-0.187c-0.187,0-0.373-0.093-0.56-0.186c-0.28,0-0.466-0.093-0.746-0.187c-0.279,0-0.559,0-0.837-0.093
			c-0.28,0-0.653,0-0.933,0c-0.651,0-1.397,0-2.144,0.093c-1.397,0.093-2.889,0.279-4.099,0.373
			c-1.118,0.093-1.957,0.093-1.957,0.093S247.98,182.513,249.096,182.047z M248.63,175.99c0,0,0.466-0.466,1.305-0.838
			c0.466-0.187,0.932-0.373,1.491-0.559c0.56-0.186,1.213-0.279,1.771-0.279c0.279,0,0.652,0,0.932,0
			c0.28,0,0.653,0.093,0.933,0.093c0.279,0.093,0.558,0.186,0.838,0.186c0.279,0.093,0.466,0.187,0.746,0.373
			c0.186,0.093,0.371,0.28,0.559,0.373c0.187,0.093,0.279,0.279,0.373,0.373c0.186,0.186,0.279,0.373,0.279,0.373
			s-0.187,0-0.466-0.093c-0.094,0-0.279-0.093-0.466-0.093s-0.373-0.093-0.56-0.093s-0.466,0-0.652-0.093c-0.28,0-0.466,0-0.745,0
			c-0.561,0-1.118,0-1.679,0.093c-0.559,0-1.117,0.093-1.677,0.093c-0.56,0.093-1.025,0.093-1.491,0.187
			C249.283,175.99,248.63,175.99,248.63,175.99z M245.369,194.625c0,0,3.168-4.193,7.454-5.777c4.288-1.584,8.48,3.354,8.946,3.82
			c1.211,1.119,2.05,4.193-0.373,4.752c-2.422,0.466-4.938-4.659-9.038-2.422c-4.098,2.236-5.496,2.422-5.496,2.422
			C243.6,197.142,245.369,194.625,245.369,194.625z M218.814,123.439c0.093-0.279,0.28-0.559,0.466-0.932
			c0.187-0.373,0.466-0.746,0.839-1.119c0.279-0.373,0.745-0.745,1.211-1.118c0.466-0.28,0.932-0.746,1.584-1.025
			c0.559-0.279,1.211-0.559,1.863-0.745c0.652-0.187,1.304-0.28,2.05-0.374c0.652,0,1.397-0.093,2.05,0
			c0.652,0.094,1.304,0.187,1.957,0.374c0.559,0.186,1.211,0.373,1.677,0.559c0.559,0.28,1.025,0.559,1.397,0.746
			c0.187,0.093,0.373,0.279,0.56,0.373c0.186,0.093,0.373,0.279,0.466,0.373c0.279,0.28,0.559,0.466,0.745,0.652
			c0.466,0.373,0.652,0.652,0.652,0.652s-0.373,0-0.932-0.093c-0.28,0-0.652-0.093-0.932-0.187c-0.28-0.093-0.746-0.187-1.212-0.187
			c-0.466-0.093-0.932-0.186-1.397-0.279c-0.466,0-1.024-0.093-1.583-0.187c-0.56-0.093-1.119,0-1.678-0.093
			c-0.559,0-1.118,0-1.677,0c-0.559,0.093-1.119,0.093-1.584,0.279c-0.279,0.093-0.559,0.093-0.745,0.187
			c-0.28,0.093-0.466,0.186-0.746,0.279c-0.559,0.093-0.932,0.373-1.397,0.466c-0.466,0.187-0.839,0.373-1.211,0.652
			c-0.746,0.373-1.397,0.838-1.863,1.118c-0.466,0.28-0.746,0.466-0.746,0.466S218.628,124,218.814,123.439z M194.309,143.751
			c1.771-1.491,4.1-3.541,10.995-5.963c17.424-6.056,31.4,8.479,33.078,12.206c1.677,3.727,1.584,4.846-0.932,5.312
			c-2.515,0.466-3.727-8.2-16.119-13.977c-9.597-4.473-20.778,1.584-25.437,4.565C194.496,146.733,193.005,144.776,194.309,143.751z
			 M232.884,200.775c-1.118-0.093-2.795-0.187-4.752-0.279c-1.957-0.187-4.193-0.28-6.708-0.466
			c-1.211-0.093-2.422-0.093-3.727-0.28c-1.304-0.093-2.609-0.186-3.913-0.186c-1.305-0.093-2.609-0.093-3.82-0.187
			c-1.304,0-2.516-0.093-3.727-0.093s-2.422-0.093-3.541,0c-1.118,0-2.143,0-3.168,0c-0.932,0.093-1.864,0.093-2.702,0.093
			c-0.746,0-1.491,0.093-2.05,0.093c-1.118,0.093-1.864,0.093-1.864,0.093s0.652-0.28,1.677-0.652
			c0.56-0.187,1.211-0.466,1.957-0.652c0.745-0.186,1.583-0.373,2.516-0.652c-4.379-1.025-8.013-2.422-11.088-4.006
			c-3.634-1.864-6.336-4.007-8.2-5.684c-2.795-2.516-3.727-6.522-2.609-10.063c1.118-3.261,2.889-7.826,5.684-12.299
			c2.981-4.845,7.081-9.597,12.671-12.672c7.641-5.125,15.188-6.429,22.455-3.914c12.859,4.473,20.313,19.381,21.524,22.828
			c0.093,0.373,0.279,0.746,0.466,1.211c1.397,3.727,3.913,10.715,0.093,16.679c-2.609,4.192-8.013,6.988-15.933,8.386
			c0.279,0.093,0.559,0.093,0.745,0.186c1.118,0.187,2.144,0.466,3.168,0.746c1.956,0.466,3.541,0.932,4.565,1.304
			s1.677,0.652,1.677,0.652S234.002,200.775,232.884,200.775z M272.391,213.727c0,0-0.093-0.56-0.279-1.211
			c-0.094-0.28-0.188-0.559-0.372-0.746v0.093c-0.932,2.33-2.517,5.59-4.939,8.479c-6.615,7.827-17.422,8.479-24.412,1.118
			c-2.143-2.329-4.1-5.404-5.031-9.783l-0.093,0.093c-0.093,0.187-0.28,0.373-0.28,0.559c-0.186,0.373-0.279,0.746-0.373,1.118
			c-0.093,0.746-0.093,1.211-0.093,1.211s-0.373-0.466-0.466-1.211c0-0.187,0-0.373,0-0.652c0-0.279,0-0.466,0.093-0.745
			c0.093-0.559,0.466-1.025,0.838-1.397c0.187-0.187,0.373-0.373,0.652-0.559c0.186-0.187,0.466-0.279,0.652-0.373
			c0.28-0.093,0.466-0.187,0.652-0.28c0.186-0.093,0.466-0.093,0.652-0.186c0.373-0.093,0.746-0.093,0.932-0.093
			c0.28,0,0.373,0,0.373,0s-0.093,0.093-0.28,0.187c-0.186,0.093-0.466,0.28-0.838,0.466c-0.094,0-0.094,0.093-0.187,0.093
			c2.982,1.491,8.106,3.354,14.816,3.261c6.615-0.093,12.112-1.956,15.373-3.354c-0.093,0-0.187-0.094-0.28-0.094
			c-0.186-0.093-0.372-0.187-0.651-0.28c-0.187-0.093-0.372-0.093-0.559-0.186c-0.373-0.093-0.653-0.187-0.932-0.28
			c-0.188-0.093-0.373-0.093-0.373-0.093s0.094,0,0.373-0.093c0.278,0,0.559-0.093,0.932-0.093c0.186,0,0.466,0,0.651,0.093
			c0.28,0,0.466,0.093,0.746,0.186c0.278,0.093,0.466,0.187,0.744,0.28c0.28,0.093,0.466,0.279,0.746,0.466
			c0.466,0.373,0.839,0.746,1.118,1.305c0.094,0.279,0.188,0.466,0.28,0.745c0,0.28,0.094,0.466,0.094,0.652
			C272.577,213.26,272.391,213.727,272.391,213.727z M331.091,187.825c-1.49,1.397-3.446,2.981-6.057,4.472
			c-2.422,1.491-5.403,2.889-9.036,4.1c0.466,0.093,0.932,0.187,1.397,0.28c0.932,0.186,1.863,0.466,2.608,0.652
			c0.746,0.187,1.491,0.466,2.051,0.652c1.116,0.373,1.676,0.653,1.676,0.653s-0.651,0-1.863-0.093c-0.56,0-1.304-0.093-2.05-0.093
			c-0.839,0-1.678,0-2.702-0.093c-0.932,0-2.049,0-3.166,0c-1.119,0-2.33,0.093-3.542,0c-1.025,0-2.049,0.093-3.075,0.093
			c-2.795,0.373-5.776,0.652-9.037,0.652c-0.746,0-1.491,0-2.236,0c-0.279,0-0.56,0-0.839,0.093
			c-2.422,0.187-4.751,0.28-6.707,0.466c-1.958,0.093-3.634,0.187-4.753,0.28c-1.118,0.093-1.863,0.093-1.863,0.093
			s0.652-0.28,1.677-0.652c0.932-0.279,2.145-0.652,3.634-1.118c-8.479-1.305-14.162-4.193-16.958-8.572
			c-3.727-5.87-1.211-12.858,0.095-16.678c0.185-0.466,0.278-0.839,0.466-1.211c1.116-3.447,8.57-18.449,21.523-22.828
			c7.268-2.516,14.815-1.211,22.455,3.914c4.1,2.236,7.361,5.404,10.063,8.852c4.379,5.684,6.988,12.02,8.386,16.212
			c0.372,0.932,0.466,1.957,0.466,2.982C334.072,183.538,333.048,186.054,331.091,187.825z"/>
	</g>
	<g>
		<path fill="#F39D60" d="M157.971,306.158c-4.752-3.262-10.063-6.896-11.74-13.325c-0.466-1.863-1.118-3.541-1.863-4.938
			c-1.211-2.235-3.168-3.82-5.591-4.473c-2.515-0.745-5.031-0.372-7.267,0.838c-11.554,6.616-10.25,17.983-8.479,23.854
			c1.304-2.608,2.422-4.564,2.981-5.591c-0.28-0.372-0.652-0.745-0.839-1.118c-0.373-0.466-0.652-0.932-0.838-1.117
			c-0.186-0.28-0.28-0.466-0.28-0.466s0.187,0.093,0.466,0.186c0.28,0.095,0.746,0.28,1.397,0.561
			c1.119,0.466,2.703,1.21,4.566,2.329c1.864,1.025,3.913,2.33,5.963,3.913c1.025,0.746,2.143,1.583,3.168,2.515
			c1.025,0.839,2.05,1.864,3.075,2.796c1.025,0.932,1.957,1.958,2.889,2.982c0.466,0.466,0.932,1.024,1.398,1.583
			c0.466,0.466,0.838,1.024,1.304,1.583c0.838,1.026,1.583,2.145,2.236,3.168c0.653,1.025,1.211,2.051,1.677,3.075
			c0.466,0.932,0.839,1.863,1.118,2.796c0.279,0.932,0.466,1.583,0.559,2.236c0.186,0.65,0.186,1.116,0.186,1.49s0,0.56,0,0.56
			s-0.093-0.186-0.279-0.373c-0.187-0.278-0.466-0.651-0.839-1.117c-0.279-0.373-0.652-0.746-1.024-1.212
			c-0.28,0.932-0.373,2.051-0.373,3.634c1.771,0.559,5.032-0.094,12.393-12.578C167.661,313.146,164.866,310.816,157.971,306.158z"
			/>
		<path fill="#F39D60" d="M333.141,242.984l-0.371,0.372l-0.281,0.372l-0.559,0.652c-0.373,0.466-0.745,0.932-1.118,1.397
			c-0.745,0.932-1.397,1.958-2.143,2.89c-1.398,1.956-2.609,4.006-3.635,6.056c-0.466,1.025-0.932,2.05-1.304,3.075
			s-0.651,2.05-0.838,3.074c-0.187,1.026-0.279,1.958-0.187,2.89c0.095,0.933,0.28,1.77,0.561,2.608l0.371,1.119l-0.371,1.21
			l-0.095,0.466c0,0.188-0.093,0.373-0.093,0.56c-0.093,0.372-0.187,0.746-0.187,1.118c-0.094,0.745-0.279,1.584-0.279,2.33
			c-0.187,1.583-0.093,3.168,0.093,4.658c0.095,0.745,0.187,1.584,0.373,2.33l0.279,1.117c0.094,0.373,0.279,0.746,0.372,1.119
			l0.372,1.117l0.466,1.024c0.187,0.373,0.281,0.746,0.466,1.025l0.652,0.932l0.652,0.932l0.745,0.933l0.746,0.932
			c0.28,0.281,0.56,0.56,0.839,0.838l0.838,0.839c0.28,0.28,0.56,0.559,0.932,0.746l1.957,1.397l0.093,0.093l0,0l0,0l0,0
			l0.281,0.186l0.559,0.28l1.211,0.651c0.745,0.28,1.397,0.56,2.051,0.839l1.117,0.373l0.56,0.187l0.56,0.093l1.117,0.187
			c0.373,0,0.746,0.094,1.212,0.094c0.746,0.093,1.583,0,2.329,0c0.746-0.094,1.584-0.187,2.33-0.373
			c1.583-0.373,3.075-1.025,4.564-1.771c1.491-0.744,2.89-1.676,4.193-2.795c0.652-0.56,1.304-1.116,1.863-1.676
			c0.652-0.653,1.304-1.305,2.05-1.864l2.05-1.77c0.653-0.56,1.397-1.119,1.957-1.679s1.025-1.21,1.397-1.863
			c0.372-0.65,0.56-1.397,0.745-2.143c0.187-1.491-0.093-3.076-0.745-4.564c-0.56-1.213-1.304-2.423-2.143-3.542l-0.746,0.28
			l-1.584,0.467c-0.559,0.185-1.118,0.278-1.678,0.372s-1.117,0.278-1.676,0.278l-1.026,0.094l-3.354,5.124l-0.467,0.746
			l-0.28,0.373l-0.093,0.185l-0.187,0.28c-0.466,0.651-1.211,1.117-2.048,1.397c-1.585,0.466-3.448-0.186-4.38-1.584
			c-0.094-0.187-0.279-0.372-0.279-0.56c0-0.093-0.094-0.187-0.094-0.279l-0.093-0.188l-0.095-0.278v-0.188l-0.093-0.371
			c-0.093-0.561-0.28-1.026-0.373-1.585c-0.187-0.559-0.279-1.024-0.467-1.49c-0.186-0.651-0.371-1.212-0.466-1.863
			c-0.466-2.33-0.559-4.659-0.466-6.988c0.095-2.329,0.28-4.659,0.746-6.896c0.466-2.329,1.025-4.565,1.958-6.708
			c0.838-1.956,1.863-3.819,3.261-5.497c0.093-0.094,0.187-0.187,0.187-0.28c0.093-0.094,0.186-0.186,0.279-0.278
			c0.838-0.932,1.77-1.679,2.795-2.423c0.746-0.561,1.585-0.932,2.423-1.304c0-0.188,0-0.466,0.094-0.653
			c0.094-0.56,0.094-1.025,0.28-1.583c0.093-0.467,0.279-1.025,0.373-1.491c0.185-0.466,0.371-1.025,0.559-1.491
			c0.279-0.466,0.466-0.932,0.745-1.397c0.094-0.28,0.279-0.466,0.466-0.653l0,0c-0.56-0.185-1.025-0.372-1.584-0.466
			c-1.117-0.278-2.235-0.466-3.354-0.466c-1.118-0.093-2.329,0-3.447,0.188c-1.118,0.186-2.235,0.466-3.354,0.837
			c-2.143,0.746-4.193,1.958-6.15,3.261c-0.932,0.653-1.863,1.398-2.796,2.237C334.725,241.307,333.793,242.238,333.141,242.984z"/>
		<path fill="#F39D60" d="M301.927,238.697c-13.23,1.864-25.25-0.279-28.977-1.118c-3.728,2.237-7.361,3.635-10.716,4.474
			c0.559,1.212,1.117,2.329,1.584,3.633c0.932,2.33,1.397,4.753,1.77,7.175c0.372,2.423,0.466,4.938,0.466,7.36
			c0,2.423-0.187,4.845-0.372,7.268c-0.094,1.025-0.186,2.144-0.28,3.168c0.373,0.186,0.839,0.372,1.212,0.466
			c1.025,0.466,2.144,0.838,3.167,1.212c1.025,0.372,2.144,0.745,3.168,1.117c1.119,0.372,2.144,0.652,3.261,0.932
			c1.119,0.28,2.144,0.56,3.262,0.746c1.119,0.279,2.144,0.466,3.261,0.651c1.119,0.187,2.144,0.372,3.261,0.466
			c1.119,0.094,2.145,0.187,3.262,0.28c1.119,0,2.144,0.094,3.261,0.094c1.119,0,2.144-0.094,3.262-0.094
			c1.119-0.094,2.144-0.187,3.261-0.28c1.119-0.094,2.144-0.279,3.261-0.466c0.56-0.094,1.119-0.186,1.586-0.279
			c0.559-0.093,1.116-0.187,1.582-0.28c0.56-0.093,1.118-0.186,1.679-0.372l1.582-0.372c1.118-0.186,2.145-0.56,3.355-0.745
			c1.119-0.28,2.235-0.56,3.354-0.838l0.094,0.186c0-0.094,0-0.186,0-0.279c0-1.024,0.186-2.051,0.28-2.982
			c0.093-0.466,0.186-1.025,0.279-1.491c0-0.186,0.093-0.278,0.093-0.466c-0.372-1.21-0.559-2.423-0.559-3.633
			c-0.094-1.584,0.093-3.075,0.372-4.564c0.56-2.982,1.77-5.498,3.075-7.92c1.304-2.424,2.889-4.566,4.564-6.617
			c0.839-1.025,1.771-1.957,2.609-2.98c0.466-0.466,0.932-0.932,1.398-1.397l0.746-0.746l0.371-0.372l0.187-0.187l0,0l0,0l0,0l0,0
			l0,0c1.025-1.025,2.05-1.77,3.167-2.608c0.653-0.466,1.304-0.932,1.957-1.305c-0.094-0.28-0.094-0.651-0.187-1.024
			c-0.279-1.678-0.745-4.008-1.211-6.244c-0.187-1.118-0.466-2.236-0.652-3.354c-0.093-0.372-0.093-0.651-0.186-0.932
			C325.034,231.896,314.879,236.928,301.927,238.697z"/>
		<path fill="#F39D60" d="M164.307,239.163c0.093,0.746,0.093,1.585,0.28,2.33c0.093,0.745,0.186,1.584,0.373,2.329
			c0.093,0.372,0.187,0.745,0.187,1.211c0.093,0.373,0.093,0.746,0.186,1.212c0.187,0.746,0.28,1.584,0.466,2.33l0.466,2.049
			c1.584,4.192,3.634,8.015,6.243,11.461c2.609,3.447,5.684,6.429,9.317,8.666c1.771,1.211,3.727,2.143,5.684,2.981
			c1.956,0.838,4.006,1.583,6.149,2.144c2.144,0.559,4.286,0.932,6.522,1.303c2.236,0.28,4.473,0.466,6.709,0.561
			c4.472,0.186,9.131,0,13.696-0.373c4.659-0.372,9.224-1.024,13.883-1.863c2.329-0.466,4.659-0.838,6.988-1.304
			c2.33-0.466,4.659-0.932,6.988-1.491c4.286-0.933,8.572-2.051,12.951-2.982c0.094-0.932,0.279-1.863,0.372-2.795
			c0.28-2.329,0.56-4.659,0.652-6.895c0.094-2.329,0.094-4.565-0.094-6.802c-0.187-2.235-0.559-4.473-1.304-6.616
			c-0.372-1.397-0.932-2.701-1.584-4.007c-1.677,0.28-3.261,0.373-4.844,0.373c-8.759,0-15.282-3.541-17.984-5.219
			c-19.753,6.709-36.711,5.404-50.594-4.099c-5.684-3.913-10.529-8.945-14.628-14.722c-0.559,0.372-1.118,0.838-1.678,1.211
			c-0.559,0.466-1.024,1.025-1.49,1.584c-0.466,0.56-0.932,1.211-1.211,1.863c-0.373,0.653-0.652,1.305-0.932,1.957
			c-0.28,0.652-0.56,1.397-0.746,2.143c-0.186,0.746-0.373,1.491-0.559,2.236c-0.093,0.746-0.28,1.49-0.28,2.236
			c-0.093,0.746-0.093,1.492-0.186,2.33c0,0.745,0,1.583,0,2.329C164.214,237.579,164.214,238.418,164.307,239.163z"/>
	</g>
	<g>
		<path fill="#9B4E32" d="M350.007,304.48c-0.281-2.05-0.373-4.008-0.466-6.057c-0.747,0.372-1.585,0.746-2.424,0.932
			c-0.932,0.372-1.863,0.559-2.888,0.746c-1.026,0.093-1.959,0.371-2.982,0.278c-0.466,0-1.025,0-1.491,0l-1.491-0.093l-0.745-0.094
			l-0.746-0.187l-1.491-0.279c-1.025-0.279-2.049-0.652-2.98-0.932l-1.213-0.56l-0.65-0.279l-0.281-0.187h-0.093l0,0l-0.185-0.093
			l0,0l-0.187-0.093l-2.515-1.491c-0.466-0.28-0.839-0.56-1.213-0.838l-1.211-0.933c-0.371-0.28-0.837-0.56-1.211-0.932
			l-1.025-1.118l-1.024-1.118l-0.932-1.211l-0.932-1.211c-0.28-0.466-0.467-0.932-0.746-1.305l-0.745-1.304l-0.561-1.397
			c-0.186-0.466-0.371-0.932-0.559-1.397l-0.466-1.492c-0.28-1.024-0.466-1.956-0.652-2.981c-0.094-0.746-0.187-1.585-0.279-2.329
			c-0.559,0.466-1.024,0.838-1.584,1.21c-1.025,0.746-2.05,1.398-3.168,1.958c-0.56,0.28-1.117,0.652-1.678,0.838
			c-0.559,0.28-1.117,0.561-1.769,0.746c-1.212,0.466-2.329,0.839-3.541,1.212c-1.213,0.279-2.424,0.651-3.728,0.837
			c-1.212,0.28-2.515,0.373-3.727,0.466c-1.213,0.095-2.516,0.188-3.821,0.095c-1.304,0-2.516-0.095-3.82-0.187
			c-1.21-0.094-2.516-0.279-3.728-0.56c-0.651-0.093-1.21-0.186-1.863-0.372c-0.651-0.094-1.21-0.279-1.863-0.466
			c-1.21-0.279-2.423-0.651-3.634-1.117c-1.211-0.372-2.329-0.839-3.447-1.305c-1.117-0.466-2.235-1.025-3.354-1.584
			c-1.119-0.56-2.144-1.211-3.168-1.863c-0.932-0.56-1.769-1.118-2.608-1.77l-0.094,1.397v1.77c0.094,0.932,0.094,1.957,0.372,3.075
			c0.094,0.559,0.187,1.118,0.281,1.678l0.371,1.676c0.279,1.119,0.561,2.236,0.839,3.355c0.651,2.235,1.303,4.473,1.956,6.802
			l1.958,6.895c0.559,2.329,1.211,4.566,1.77,6.988l0.839,3.541l0.745,3.541c0.559,2.329,0.838,4.752,1.304,7.082l0.466,3.633
			c0.186,1.212,0.372,2.423,0.466,3.634l0.372,3.634c0.094,1.21,0.094,2.422,0.187,3.634c0,1.211,0.186,2.423,0.093,3.633
			l-0.093,3.728c0,1.212-0.093,2.423-0.187,3.727l-0.279,3.167l0.373,3.821l0.093,2.423c0,0.838,0.093,1.584,0,2.329l-0.093,2.424
			l-0.091,1.208l-0.187,1.212l-0.279,2.33l-0.466,2.329c-0.095,0.746-0.371,1.583-0.652,2.329c-0.279,0.746-0.466,1.583-0.745,2.236
			c-0.279,0.746-0.561,1.491-0.932,2.236c-0.371,0.744-0.652,1.397-1.118,2.143c-0.467,0.652-0.839,1.397-1.305,2.05l-0.56,0.838
			c0.094,0.094,0.281,0.186,0.373,0.28c0.559,0.559,0.932,0.932,1.398,1.398c0.932,0.837,1.863,1.583,2.888,2.234
			c4.008,2.609,8.945,3.727,13.977,3.727c5.124,0,10.436-0.559,15.84-1.211c5.311-0.652,10.622-1.491,16.026-2.329
			c5.311-0.838,10.715-1.77,16.119-2.516c2.702-0.372,5.405-0.746,8.293-1.025c0.745-0.094,1.49-0.094,2.329-0.094l2.143,0.094
			c1.211,0,2.33-0.094,3.448-0.28c2.235-0.372,4.192-1.117,5.776-2.235c1.491-1.211,2.609-2.795,3.262-4.752
			c0.279-1.025,0.559-2.05,0.651-3.262v-0.093v-0.278v-0.466l0.094-1.024v-1.771c-0.094-2.516-0.279-5.125-0.56-7.733
			c-0.56-5.219-1.397-10.529-2.423-15.746c-1.025-5.219-2.236-10.438-3.914-15.281c-0.186-0.559-0.371-1.212-0.651-1.864
			l-0.651-1.956c-0.466-1.305-0.932-2.609-1.305-4.007c-0.837-2.703-1.49-5.404-2.144-8.105
			C350.938,309.977,350.378,307.275,350.007,304.48z"/>
		<path fill="#9B4E32" d="M266.428,380.138c0.186-0.093,0.466-0.186,0.745-0.279l0,0c0.187-0.279,0.279-0.466,0.466-0.745
			l0.466-0.932c0.372-0.56,0.559-1.305,0.838-1.863c0.28-0.652,0.466-1.305,0.651-1.958c0.187-0.652,0.28-1.304,0.466-1.957
			c0.187-0.652,0.28-1.304,0.373-2.05c0.093-0.651,0.186-1.397,0.186-2.049l0.094-2.051l-0.094-2.049v-1.025l-0.094-1.025
			l-0.185-2.05c-0.095-0.651-0.281-1.397-0.373-2.05l-0.373-2.05l-1.024-4.006l-0.093-0.187v-1.305l0.466-3.354
			c0.185-1.117,0.278-2.235,0.371-3.354l0.187-3.355c0.093-1.117,0-2.235,0.093-3.446c0-1.118,0-2.235,0-3.448l-0.185-3.446
			c0-1.118-0.188-2.329-0.281-3.448l-0.279-3.446c-0.279-2.329-0.559-4.566-0.932-6.896l-0.559-3.446l-0.652-3.449
			c-0.466-2.329-0.932-4.563-1.397-6.894l-1.584-6.895c-0.56-2.329-1.119-4.658-1.585-6.987c-0.279-1.213-0.466-2.33-0.745-3.542
			l-0.371-1.77c-0.095-0.56-0.188-1.211-0.281-1.863c-0.185-1.211-0.279-2.609-0.279-4.007l0.095-1.77l0.185-1.863
			c0-0.28,0.094-0.466,0.094-0.746c-5.218,2.423-8.014,3.633-10.809,4.752c-2.236,0.932-4.565,1.677-6.895,2.516
			c-2.33,0.746-4.658,1.491-6.988,2.144c-2.329,0.652-4.752,1.211-7.174,1.77c-2.422,0.56-4.845,0.932-7.361,1.304
			c-4.938,0.746-9.969,1.118-15,1.025c-2.516,0-5.125-0.279-7.641-0.56c-2.516-0.279-5.125-0.838-7.64-1.491
			c-5.031-1.304-9.97-3.446-14.442-6.522c-2.236-1.49-4.286-3.261-6.149-5.124c-1.864-1.864-3.634-3.913-5.032-6.149
			c-1.491-2.144-2.795-4.474-3.914-6.803c-1.118-2.329-2.049-4.752-2.795-7.174l-0.093-0.28v-0.093l-0.279-1.957
			c-0.466,0.651-0.932,1.397-1.491,2.143c-0.559,0.838-1.211,1.77-1.863,2.796c-0.652,0.932-1.305,1.957-1.864,2.981
			c-0.652,1.025-1.211,2.143-1.863,3.167c-0.652,1.025-1.118,2.144-1.771,3.262c-0.559,1.025-1.118,2.143-1.584,3.166
			c-0.559,1.026-0.932,2.051-1.397,2.983c-0.466,0.932-0.839,1.863-1.305,2.701c-0.373,0.838-0.745,1.584-1.025,2.329
			c-0.279,0.652-0.559,1.304-0.838,1.77c-0.279,0.561-0.466,0.933-0.559,1.213c2.609,1.397,4.845,3.446,6.243,6.148
			c0.932,1.864,1.771,3.914,2.33,6.243c1.118,4.473,5.404,7.36,9.504,10.155c3.447,2.33,7.268,5.031,9.038,8.759
			c0.187-0.466,0.28-0.932,0.466-1.398l4.286-12.392l2.143-6.151c2.703-4.098,2.703-4.098,4.752-5.403l0,0
			c-0.559,2.143-1.211,4.193-1.77,6.335l-1.863,6.337l-3.82,12.486c-0.932,2.795-1.771,5.683-2.609,8.479
			c-1.677,5.497-3.261,10.995-4.751,16.491c-1.119,4.192-2.144,8.386-2.982,12.578c-0.838,4.193-1.583,8.48-1.863,12.674
			c-0.373,4.192-0.373,8.386,0.466,12.392c0.373,1.958,1.025,3.821,1.863,5.404c0.932,1.584,2.05,2.982,3.541,4.008l0.279,0.186l0,0
			c0,0,0,0,0.093,0.095c0.093,0,0.093,0.093,0.279,0.186c0.187,0.094,0.373,0.28,0.652,0.372c0.466,0.279,0.932,0.466,1.491,0.652
			c0.559,0.186,1.025,0.466,1.583,0.559c0.559,0.187,1.118,0.373,1.677,0.466c0.56,0.187,1.118,0.28,1.677,0.466
			c0.559,0.187,1.118,0.28,1.77,0.373c0.559,0.093,1.212,0.279,1.771,0.373l1.77,0.278c0.559,0.094,1.211,0.188,1.771,0.28
			c0.652,0.093,1.211,0.186,1.863,0.186l1.864,0.188c0.559,0,1.211,0.093,1.863,0.093l1.864,0.093c0.652,0,1.211,0.095,1.863,0
			h3.634c10.808-1.211,21.709-1.769,32.611-2.143c5.497-0.187,10.901-0.279,16.306-0.279h8.199l4.1,0.094
			c1.397,0.094,2.235,0,3.261-0.28c1.025-0.279,1.957-0.745,2.795-1.397c0.187-0.186,0.373-0.372,0.56-0.56
			c0.188-0.188,0.373-0.372,0.653-0.651c0.279-0.28,0.559-0.56,0.932-0.839C265.402,380.79,265.775,380.418,266.428,380.138z"/>
	</g>
	<path d="M358.858,260.78c-0.281,0.279-0.561,0.559-0.839,0.745c-0.28,0.279-0.559,0.56-0.839,0.745
		c-0.186,0.095-0.279,0.28-0.466,0.373c-0.186,0.093-0.279,0.186-0.466,0.279c-0.279,0.187-0.559,0.373-0.837,0.56
		c-0.28,0.187-0.561,0.373-0.746,0.467c-0.28,0.186-0.466,0.28-0.651,0.372c-0.187,0.094-0.373,0.187-0.561,0.279
		c-0.279,0.187-0.466,0.28-0.466,0.28s0.187,0,0.561,0c0.371,0,0.837-0.094,1.397-0.28c0.279-0.093,0.651-0.186,0.932-0.371
		c0.279-0.095,0.651-0.28,1.024-0.467c0.652-0.373,1.305-0.932,1.958-1.397c0.278-0.28,0.559-0.561,0.837-0.839
		c0.279-0.278,0.466-0.652,0.746-0.932c0.466-0.652,0.746-1.212,1.025-1.77c0.466-1.118,0.653-1.863,0.653-1.863
		s-0.466,0.651-1.213,1.583c-0.373,0.466-0.746,1.025-1.212,1.491C359.416,260.222,359.137,260.502,358.858,260.78z"/>
	<path d="M325.221,161.735c-2.608-3.448-5.962-6.615-10.063-8.852c-7.641-5.125-15.188-6.429-22.456-3.914
		c-12.858,4.473-20.313,19.381-21.524,22.828c-0.094,0.373-0.279,0.746-0.466,1.211c-1.397,3.727-3.913,10.715-0.094,16.678
		c2.796,4.286,8.479,7.174,16.96,8.572c-1.493,0.373-2.703,0.746-3.635,1.118c-1.118,0.373-1.678,0.652-1.678,0.652
		s0.653,0,1.863-0.093c1.119-0.093,2.795-0.187,4.753-0.28c1.957-0.186,4.192-0.279,6.709-0.466c0.279,0,0.559-0.093,0.839-0.093
		c0.744,0,1.49,0,2.234,0c3.261,0,6.243-0.28,9.038-0.652c1.024,0,2.05-0.093,3.075-0.093c1.211,0,2.424-0.093,3.54,0
		c1.118,0,2.145,0,3.168,0c0.932,0.093,1.864,0.093,2.702,0.093s1.491,0.093,2.049,0.093c1.118,0.093,1.863,0.093,1.863,0.093
		s-0.651-0.28-1.677-0.653c-0.56-0.187-1.211-0.466-2.05-0.652c-0.745-0.186-1.677-0.466-2.609-0.652
		c-0.466-0.093-0.932-0.187-1.397-0.28c3.541-1.118,6.522-2.609,9.038-4.1c2.609-1.583,4.566-3.168,6.057-4.472
		c1.956-1.771,2.981-4.379,2.981-6.895c0-1.025-0.186-1.957-0.466-2.982C332.209,173.754,329.601,167.418,325.221,161.735z
		 M293.075,167.139c-2.143,0-3.913-1.771-3.913-3.913c0-2.144,1.771-3.914,3.913-3.914s3.914,1.77,3.914,3.914
		C296.989,165.368,295.218,167.139,293.075,167.139z"/>
	<path d="M274.627,155.306c2.516,0.466,3.727-8.2,16.119-13.977c9.597-4.473,20.777,1.584,25.437,4.565
		c1.397,0.932,2.795-1.025,1.584-2.143c-1.769-1.491-4.098-3.541-10.994-5.963c-17.424-6.056-31.4,8.479-33.077,12.206
		C271.924,153.721,272.111,154.84,274.627,155.306z"/>
	<path d="M275.093,124.744c0.372-0.186,0.838-0.373,1.304-0.559c0.466-0.186,1.025-0.279,1.583-0.466
		c0.561-0.186,1.212-0.279,1.771-0.279c0.651-0.093,1.305-0.093,1.956-0.093c0.652,0,1.397,0,2.05,0.093
		c2.701,0.279,5.497,0.932,7.454,1.584c1.025,0.373,1.863,0.745,2.329,1.024c0.279,0.187,0.466,0.28,0.56,0.466
		c0.094,0.093,0.094,0.28,0.094,0.28s0-0.093,0-0.28c0-0.186-0.094-0.466-0.279-0.746c-0.373-0.652-1.026-1.397-1.958-2.05
		c-1.863-1.397-4.845-2.702-8.013-2.981c-0.839,0-1.584-0.093-2.422,0c-0.747,0.093-1.585,0.186-2.33,0.373
		c-0.747,0.187-1.397,0.466-2.051,0.745c-0.651,0.28-1.21,0.653-1.676,1.025c-0.281,0.187-0.466,0.373-0.653,0.559
		c-0.186,0.187-0.372,0.373-0.56,0.559c-0.372,0.373-0.559,0.745-0.745,1.025c-0.371,0.559-0.559,0.932-0.559,0.932
		s0.371-0.187,0.932-0.559C274.44,125.116,274.72,124.931,275.093,124.744z"/>
	<path d="M272.205,211.024c-0.281-0.466-0.653-0.932-1.119-1.305c-0.278-0.187-0.466-0.28-0.744-0.466
		c-0.281-0.093-0.466-0.187-0.747-0.28c-0.279-0.093-0.466-0.093-0.745-0.186c-0.279,0-0.466,0-0.652-0.093
		c-0.372,0-0.745,0.093-0.932,0.093c-0.279,0-0.372,0.093-0.372,0.093s0.094,0.093,0.372,0.093c0.187,0.093,0.56,0.187,0.932,0.28
		c0.187,0.093,0.373,0.093,0.56,0.186c0.188,0.093,0.372,0.187,0.653,0.28c0.093,0,0.185,0.094,0.278,0.094
		c-3.261,1.397-8.758,3.261-15.374,3.354c-6.708,0.093-11.833-1.863-14.814-3.261c0.094,0,0.187-0.093,0.187-0.093
		c0.279-0.187,0.559-0.28,0.839-0.466c0.186-0.093,0.278-0.187,0.278-0.187s-0.093,0-0.372,0c-0.187,0-0.56,0-0.932,0.093
		c-0.187,0-0.372,0.093-0.652,0.186c-0.187,0.093-0.466,0.187-0.652,0.28c-0.28,0.094-0.466,0.28-0.652,0.373
		c-0.187,0.187-0.466,0.373-0.652,0.559c-0.373,0.466-0.652,0.932-0.838,1.397c-0.093,0.279-0.093,0.466-0.093,0.745
		c0,0.28,0,0.466,0,0.652c0.093,0.839,0.466,1.211,0.466,1.211s0-0.559,0.093-1.211c0.093-0.373,0.186-0.746,0.373-1.118
		c0.093-0.186,0.187-0.373,0.279-0.559c0,0,0-0.093,0.093-0.093c0.932,4.286,2.889,7.454,5.031,9.783
		c6.988,7.36,17.798,6.615,24.413-1.118c2.516-2.889,4.006-6.149,4.938-8.479v-0.093c0.187,0.28,0.279,0.559,0.373,0.746
		c0.279,0.745,0.279,1.211,0.279,1.211s0.28-0.466,0.187-1.305c0-0.187,0-0.466-0.094-0.652
		C272.391,211.49,272.298,211.304,272.205,211.024z M254.408,223.79c-3.914,0-7.175-1.306-7.175-2.889
		c0-1.585,3.168-2.889,7.175-2.889c3.913,0,7.174,1.304,7.174,2.889C261.582,222.484,258.414,223.79,254.408,223.79z"/>
	<path d="M246.767,197.514c0,0,1.397-0.187,5.498-2.422c4.1-2.236,6.615,2.889,9.038,2.422c2.516-0.466,1.583-3.634,0.371-4.752
		c-0.466-0.466-4.658-5.404-8.944-3.82c-4.286,1.584-7.454,5.777-7.454,5.777S243.6,197.142,246.767,197.514z"/>
	<path d="M251.707,175.804c0.559,0,1.116-0.093,1.676-0.093c0.56-0.093,1.119-0.093,1.678-0.093c0.279,0,0.559,0,0.745,0
		c0.279,0,0.466,0.093,0.652,0.093s0.373,0.093,0.56,0.093s0.28,0.093,0.466,0.093c0.28,0.093,0.466,0.093,0.466,0.093
		s-0.093-0.093-0.279-0.373c-0.093-0.093-0.187-0.279-0.372-0.373c-0.187-0.093-0.373-0.28-0.56-0.373
		c-0.188-0.093-0.467-0.187-0.746-0.373c-0.279-0.093-0.559-0.186-0.838-0.186s-0.56-0.093-0.933-0.093c-0.279,0-0.651,0-0.932,0
		c-0.651,0-1.211,0.187-1.769,0.279c-0.561,0.187-1.026,0.373-1.493,0.559c-0.837,0.373-1.303,0.838-1.303,0.838s0.651,0,1.49-0.093
		C250.681,175.897,251.146,175.804,251.707,175.804z"/>
	<path d="M249.377,182.979c1.117-0.093,2.608-0.279,4.098-0.373c0.745-0.093,1.397-0.093,2.143-0.093c0.373,0,0.653,0,0.933,0
		c0.28,0.093,0.56,0.093,0.839,0.093c0.279,0.093,0.466,0.093,0.745,0.187c0.279,0,0.373,0.093,0.561,0.186
		c0.371,0.093,0.559,0.187,0.559,0.187s-0.093-0.187-0.373-0.466c-0.093-0.093-0.279-0.28-0.466-0.466
		c-0.186-0.187-0.466-0.28-0.745-0.466c-0.279-0.094-0.56-0.28-0.932-0.373c-0.373-0.093-0.746-0.187-1.119-0.28
		c-0.371-0.093-0.744-0.093-1.211-0.186c-0.372,0-0.838,0-1.211,0c-0.839,0-1.584,0.186-2.329,0.373
		c-0.747,0.186-1.398,0.466-1.864,0.746c-1.118,0.559-1.678,1.118-1.678,1.118S248.258,183.072,249.377,182.979z"/>
	<path d="M247.699,137.416c0.373-0.279,0.839-0.466,1.305-0.745c0.466-0.187,1.025-0.466,1.491-0.652
		c0.56-0.187,1.118-0.373,1.771-0.466s1.304-0.279,1.956-0.279c0.652-0.093,1.305-0.093,2.051-0.093
		c2.702-0.093,5.497,0.373,7.64,0.745c1.025,0.28,1.864,0.466,2.423,0.746c0.281,0.186,0.466,0.279,0.561,0.373
		c0.093,0.093,0.187,0.186,0.187,0.186s0-0.093,0-0.279s-0.187-0.466-0.373-0.745c-0.373-0.559-1.211-1.211-2.237-1.863
		c-2.049-1.212-5.124-2.144-8.291-2.05c-0.838,0-1.584,0.093-2.424,0.279c-0.744,0.093-1.49,0.373-2.234,0.652
		c-0.746,0.279-1.398,0.652-1.958,1.025c-0.559,0.373-1.117,0.838-1.49,1.211c-0.186,0.187-0.466,0.373-0.559,0.652
		c-0.187,0.186-0.373,0.466-0.466,0.652c-0.281,0.373-0.466,0.746-0.652,1.025c-0.279,0.653-0.372,0.932-0.372,0.932
		s0.278-0.186,0.838-0.652C247.048,137.881,247.327,137.602,247.699,137.416z"/>
	<path d="M195.894,145.896c4.659-2.981,15.84-8.945,25.437-4.565c12.392,5.777,13.697,14.442,16.119,13.977
		c2.516-0.466,2.609-1.584,0.932-5.312c-1.677-3.727-15.747-18.262-33.078-12.206c-6.895,2.423-9.224,4.473-10.995,5.963
		C193.005,144.776,194.496,146.733,195.894,145.896z"/>
	<path d="M221.144,122.694c0.373-0.187,0.839-0.373,1.212-0.652c0.466-0.187,0.932-0.373,1.397-0.466
		c0.28-0.093,0.466-0.187,0.746-0.279c0.279-0.093,0.559-0.093,0.745-0.187c0.559-0.093,1.118-0.187,1.584-0.279
		c0.559,0,1.118-0.093,1.677,0c0.559,0.093,1.118,0,1.677,0.093c0.56,0.093,1.025,0.093,1.584,0.187
		c0.466,0.093,0.932,0.187,1.397,0.279c0.466,0.093,0.838,0.093,1.211,0.187s0.746,0.187,0.932,0.187
		c0.559,0.093,0.932,0.093,0.932,0.093s-0.186-0.279-0.652-0.652c-0.186-0.187-0.466-0.466-0.746-0.652
		c-0.186-0.093-0.279-0.279-0.466-0.373s-0.373-0.279-0.559-0.373c-0.466-0.28-0.932-0.466-1.397-0.746
		c-0.559-0.186-1.118-0.373-1.677-0.559c-0.56-0.187-1.305-0.28-1.957-0.374c-0.652-0.093-1.397,0-2.049,0
		c-0.652,0.094-1.398,0.187-2.05,0.374c-0.652,0.186-1.305,0.466-1.863,0.745c-0.56,0.279-1.119,0.652-1.584,1.025
		s-0.838,0.745-1.211,1.118c-0.373,0.373-0.559,0.746-0.839,1.119c-0.186,0.373-0.373,0.652-0.466,0.932
		c-0.28,0.559-0.28,0.838-0.28,0.838s0.28-0.186,0.746-0.466C219.746,123.534,220.398,123.068,221.144,122.694z"/>
	<path d="M228.318,198.912c-0.932-0.187-2.05-0.466-3.168-0.745c-0.28-0.093-0.559-0.093-0.746-0.187
		c7.92-1.398,13.231-4.193,15.934-8.386c3.727-5.87,1.211-12.858-0.094-16.678c-0.187-0.466-0.279-0.838-0.466-1.211
		c-1.118-3.447-8.572-18.449-21.523-22.828c-7.268-2.515-14.815-1.211-22.455,3.914c-5.591,3.075-9.69,7.92-12.672,12.672
		c-2.795,4.472-4.659,9.038-5.684,12.299c-1.211,3.541-0.186,7.547,2.609,10.063c1.863,1.677,4.565,3.82,8.199,5.684
		c2.982,1.584,6.709,2.981,11.088,4.006c-0.932,0.187-1.771,0.466-2.516,0.653c-0.745,0.186-1.397,0.466-1.957,0.652
		c-1.118,0.373-1.677,0.652-1.677,0.652s0.652,0,1.864-0.093c0.559,0,1.304-0.093,2.049-0.093c0.839,0,1.678,0,2.703-0.093
		c0.932,0,2.049,0,3.168,0c1.118,0,2.329,0.093,3.541,0c1.211,0,2.422,0.093,3.727,0.093c1.305,0.093,2.609,0.093,3.82,0.187
		c1.305,0.093,2.609,0.093,3.914,0.186c1.305,0.093,2.516,0.093,3.727,0.28c2.422,0.186,4.752,0.279,6.708,0.466
		c1.957,0.093,3.634,0.186,4.752,0.279c1.211,0.093,1.864,0.093,1.864,0.093s-0.652-0.279-1.678-0.652
		C232.325,199.75,230.275,199.377,228.318,198.912z M203.906,158.38c2.143,0,3.914,1.77,3.914,3.914
		c0,2.143-1.771,3.913-3.914,3.913s-3.913-1.771-3.913-3.913C199.993,160.15,201.763,158.38,203.906,158.38z"/>
	<g>
		<path fill="#FFFFFF" d="M348.235,252.487c3.168,0.561,4.659,0,4.938-0.745c0.466-1.118-0.559-3.074-2.051-4.006
			c-0.185,0-0.279,0-0.466,0.093C349.726,248.39,348.794,250.624,348.235,252.487z"/>
		<g>
			<path fill="#FFFFFF" d="M203.906,166.207c2.143,0,3.914-1.771,3.914-3.913c0-2.144-1.771-3.914-3.914-3.914
				s-3.913,1.77-3.913,3.914C199.993,164.437,201.763,166.207,203.906,166.207z"/>
			<path fill="#FFFFFF" d="M293.075,159.312c-2.143,0-3.913,1.77-3.913,3.914c0,2.143,1.771,3.913,3.913,3.913
				s3.914-1.771,3.914-3.913C296.989,161.082,295.218,159.312,293.075,159.312z"/>
			<path fill="#FFFFFF" d="M254.408,218.013c-3.914,0-7.175,1.304-7.175,2.889c0,1.583,3.168,2.889,7.175,2.889
				c3.913,0,7.174-1.306,7.174-2.889C261.582,219.316,258.414,218.013,254.408,218.013z"/>
			<path fill="#FFFFFF" d="M181.917,185.867c-1.397-1.305-2.143-3.075-2.143-4.938c0-0.746,0.093-1.397,0.373-2.143
				c0.466-1.491,1.118-3.168,1.957-5.032c-0.28,4.193,0.093,9.504,2.05,13.977C183.222,187.078,182.569,186.427,181.917,185.867z"/>
			<path fill="#FFFFFF" d="M327.271,187.73c1.957-4.565,2.33-9.783,2.051-13.977c0.837,1.864,1.49,3.634,1.956,5.032
				c0.279,0.746,0.373,1.397,0.373,2.143c0,1.864-0.746,3.634-2.144,4.938C328.855,186.427,328.11,187.078,327.271,187.73z"/>
		</g>
	</g>
</g>
</svg>
