<svg id="ec1vn0t1xyzi1" xmlns="http://www.w3.org/2000/svg" xmlns:xlink="http://www.w3.org/1999/xlink" viewBox="0 0 750 750" shape-rendering="geometricPrecision" text-rendering="geometricPrecision"><style><![CDATA[#ec1vn0t1xyzi2 {animation: ec1vn0t1xyzi2_c_o 3000ms linear 1 normal forwards}@keyframes ec1vn0t1xyzi2_c_o { 0% {opacity: 0} 6.666667% {opacity: 0.700000} 16.666667% {opacity: 0} 33.333333% {opacity: 0.700000} 50% {opacity: 0} 56.666667% {opacity: 0.700000} 66.666667% {opacity: 0} 76.666667% {opacity: 0} 100% {opacity: 1} }#ec1vn0t1xyzi3 {animation: ec1vn0t1xyzi3_c_o 3000ms linear 1 normal forwards}@keyframes ec1vn0t1xyzi3_c_o { 0% {opacity: 0} 6.666667% {opacity: 0.700000} 16.666667% {opacity: 0} 33.333333% {opacity: 0.700000} 50% {opacity: 0} 56.666667% {opacity: 0.700000} 66.666667% {opacity: 0} 76.666667% {opacity: 0} 100% {opacity: 1} }]]></style><defs><radialGradient id="ec1vn0t1xyzi2-stroke" cx="0" cy="0" r="27.355143" spreadMethod="pad" gradientUnits="userSpaceOnUse" gradientTransform="matrix(1 0 0 0.67572200000000 -0.00045799999998 -0.00049598179993)"/><radialGradient id="ec1vn0t1xyzi3-stroke" cx="0" cy="0" r="27.355143" spreadMethod="pad" gradientUnits="userSpaceOnUse" gradientTransform="matrix(1 0 0 0.67572200000000 -0.00045799999998 -0.00049598179993)"/></defs><ellipse id="ec1vn0t1xyzi2" rx="26.683800" ry="17.813100" transform="matrix(1 0 0 1 302.54027400000007 434.64642400000008)" opacity="0" fill="rgb(128,0,0)" stroke="url(#ec1vn0t1xyzi2-stroke)" stroke-width="1.342780"/><ellipse id="ec1vn0t1xyzi3" rx="26.683800" ry="17.813100" transform="matrix(1 0 0 1 367.22260000000006 434.64642400000020)" opacity="0" fill="rgb(128,0,0)" stroke="url(#ec1vn0t1xyzi3-stroke)" stroke-width="1.342780"/><path id="ec1vn0t1xyzi4" d="M557.641350,308.893110C557.641350,321.593110,557.341350,331.493110,557.741350,341.393110C557.941350,347.293110,556.541350,349.793110,550.041350,349.693110C522.541350,349.393110,495.041350,349.393110,467.541350,349.693110C460.341350,349.793110,457.741350,346.093110,455.741350,340.293110C450.941350,326.493110,450.141350,326.093110,435.741350,325.693110C432.041350,325.593110,428.241350,325.793110,424.441350,325.593110C414.641350,325.193110,408.141350,328.293110,405.141350,338.893110C401.841350,350.593110,400.341350,350.593110,391.141350,343.293110C383.341350,337.093110,375.541350,330.793110,367.541350,324.793110C363.941350,322.093110,363.341350,319.693110,364.841350,315.293110C375.441350,284.693110,385.941350,253.993110,396.141350,223.193110C397.641350,218.593110,399.741350,216.693110,404.641350,216.793110C422.741350,216.993110,440.941350,217.293110,459.041350,216.693110C465.841350,216.493110,466.541350,220.693110,468.041350,224.993110C479.741350,259.493110,491.441350,294.093110,503.241350,328.593110C503.941350,330.593110,503.941350,332.993110,507.341350,335.193110C507.541350,331.493110,507.841350,328.393110,507.941350,325.293110C508.441350,292.493110,509.041350,259.693110,509.041350,226.893110C509.041350,219.493110,510.441350,216.493110,518.641350,216.593110C543.941350,217.093110,569.241350,216.593110,594.541350,216.893110C624.341350,217.193110,644.641350,240.193110,639.241350,267.493110C636.241350,282.593110,625.241350,289.593110,612.241350,294.693110C609.541350,295.693110,605.141350,295.193110,605.141350,299.193110C605.141350,302.193110,607.941350,304.593110,610.541350,306.493110C614.841350,309.593110,619.641350,310.193110,624.741350,310.193110C640.641350,309.993110,656.641350,310.293110,672.541350,309.893110C678.441350,309.793110,680.141350,311.793110,679.841350,317.393110C679.441350,326.093110,679.541350,334.893110,679.841350,343.593110C679.941350,348.493110,678.041350,350.093110,673.241350,349.993110C651.041350,349.693110,628.841350,349.593110,606.641350,349.593110C600.741350,349.593110,596.741350,346.393110,592.841350,342.593110C581.941350,331.993110,570.841350,321.493110,557.641350,308.893110ZM576.741350,274.393110C576.741350,274.393110,576.741350,274.393110,576.741350,274.393110C581.041350,274.393110,585.441350,274.293110,589.741350,274.393110C597.441350,274.393110,600.041350,269.793110,599.941350,262.893110C599.841350,256.093110,598.041350,250.393110,589.741350,250.093110C581.941350,249.893110,574.141350,250.493110,566.441350,249.793110C558.641350,249.093110,557.041350,252.393110,557.341350,259.293110C558.041350,276.693110,555.041350,273.993110,572.041350,274.293110C573.641350,274.393110,575.141350,274.393110,576.741350,274.393110ZM431.541350,246.893110C425.141350,264.093110,419.641350,278.593110,414.241350,293.193110C413.041350,296.493110,413.441350,298.593110,417.641350,298.493110C426.341350,298.393110,435.141350,298.493110,443.841350,298.493110C446.841350,298.493110,448.941350,297.793110,447.641350,294.193110C442.741350,279.293110,437.541350,264.393110,431.541350,246.893110ZM458.741350,458.193110C458.741350,466.793110,458.241350,477.593110,458.941350,488.293110C459.541350,497.593110,455.641350,499.093110,447.041350,496.393110C455.941350,478.493110,448.041350,463.093110,439.441350,447.893110C432.841350,436.193110,426.441350,424.393110,419.041350,413.193110C410.441350,400.093110,410.641350,384.793110,410.041350,369.793110C409.841350,364.993110,413.541350,365.093110,416.441350,365.093110C445.841350,365.293110,475.241350,363.193110,504.441350,366.393110C521.541350,368.293110,534.041350,377.393110,539.741350,394.293110C546.941350,415.793110,536.641350,435.293110,514.041350,442.893110C511.241350,443.893110,506.741350,443.693110,506.341350,446.693110C505.841350,449.993110,509.441350,452.493110,512.141350,454.693110C515.441350,457.493110,519.241350,458.393110,523.441350,458.393110C541.841350,458.293110,560.341350,458.293110,578.741350,458.193110C580.641350,458.193110,582.541350,458.193110,584.341350,457.793110C592.341350,455.993110,593.341350,453.593110,588.041350,447.293110C580.441350,438.193110,572.141350,429.693110,564.541350,420.593110C558.041350,412.893110,555.441350,403.693110,556.241350,393.593110C557.641350,376.593110,567.341350,366.093110,584.241350,365.593110C613.241350,364.793110,642.341350,365.093110,671.441350,364.793110C676.741350,364.693110,678.641350,366.493110,678.341350,371.893110C677.941350,380.593110,677.941350,389.393110,678.341350,398.093110C678.641350,403.893110,676.641350,405.793110,670.941350,405.493110C660.341350,405.093110,649.741350,405.393110,639.041350,405.393110C634.941350,405.393110,630.841350,405.193110,626.841350,405.693110C623.141350,406.093110,617.841350,406.293110,616.441350,408.593110C614.341350,411.993110,619.241350,414.893110,621.341350,417.693110C626.141350,423.893110,631.441350,429.593110,636.441350,435.593110C640.741350,440.593110,644.341350,445.993110,646.841350,452.193110C657.241350,476.993110,645.141350,496.593110,618.341350,497.593110C600.541350,498.293110,582.741350,497.993110,564.941350,497.993110C546.841350,497.993110,528.641350,497.693110,510.541350,497.893110C504.441350,497.993110,499.941350,495.793110,495.541350,491.793110C483.341350,480.193110,470.841350,469.193110,458.741350,458.193110ZM478.041350,422.593110C482.041350,422.593110,486.141350,422.593110,490.141350,422.593110C497.741350,422.693110,501.741350,418.993110,501.741350,411.293110C501.741350,403.793110,499.041350,398.493110,490.541350,398.393110C482.441350,398.293110,474.341350,398.693110,466.341350,398.193110C460.141350,397.793110,458.541350,399.993110,458.541350,406.093110C458.641350,422.593110,458.341350,422.593110,475.241350,422.593110C476.241350,422.593110,477.141350,422.593110,478.041350,422.593110ZM375.641350,505.693110C380.441350,496.193110,385.241350,486.693110,390.041350,477.193110C389.341350,476.793110,388.541350,476.393110,387.841350,475.993110C383.741350,482.993110,379.041350,489.793110,375.641350,497.093110C371.841350,505.193110,368.741350,504.393110,363.441350,498.393110C357.641350,491.793110,351.141350,485.993110,344.741350,479.993110C337.041350,472.693110,330.641350,472.693110,322.841350,480.293110C315.841350,486.993110,308.741350,493.593110,302.241350,500.693110C298.041350,505.193110,296.141350,504.093110,293.541350,499.293110C289.941350,492.493110,285.741350,485.893110,280.541350,477.093110C281.541350,489.793110,289.441350,497.193110,291.041350,506.993110C284.541350,496.893110,275.741350,491.393110,263.641350,491.793110C255.841350,492.093110,249.441350,494.693110,246.841350,502.693110C244.541350,509.893110,240.441350,508.893110,235.341350,505.793110C222.241350,497.693110,217.441350,481.293110,224.541350,466.293110C231.641350,451.393110,239.041350,436.493110,248.441350,422.793110C256.041350,411.593110,259.341350,399.193110,261.641350,386.193110C268.641350,346.493110,296.941350,322.393110,335.441350,323.093110C371.841350,323.693110,400.441350,350.393110,406.241350,389.193110C407.841350,399.793110,411.541350,409.593110,416.841350,418.993110C426.141350,435.593110,435.541350,452.193110,443.941350,469.193110C450.741350,482.893110,445.141350,497.893110,431.841350,505.093110C427.841350,507.193110,424.641350,507.893110,421.141350,503.793110C406.841350,487.093110,392.541350,487.493110,378.941350,504.793110C378.341350,505.493110,377.641350,506.093110,376.941350,506.693110C376.541350,506.493110,376.041350,506.093110,375.641350,505.693110ZM422.341350,495.893110C428.741350,473.393110,412.841350,436.693110,393.941350,426.093110C389.441350,423.593110,384.541350,422.593110,379.541350,423.193110C367.241350,424.593110,357.341350,431.193110,348.141350,438.693110C344.041350,441.993110,344.841350,445.193110,349.741350,446.893110C367.941350,452.893110,383.641350,444.393110,387.241350,423.793110C409.141350,444.093110,421.241350,466.993110,422.341350,495.893110ZM244.941350,496.393110C247.541350,467.793110,254.941350,441.993110,281.941350,424.793110C282.641350,441.893110,286.741350,446.193110,302.341350,448.293110C307.741350,449.093110,312.841350,447.693110,318.141350,446.993110C320.341350,446.693110,322.641350,446.193110,323.341350,443.793110C324.041350,441.193110,321.941350,439.793110,320.141350,438.593110C313.241350,433.893110,306.541350,428.693110,298.641350,425.393110C288.241350,421.093110,278.041350,421.493110,269.741350,429.193110C250.641350,447.193110,241.541350,469.393110,244.941350,496.393110ZM298.041350,492.593110C303.341350,483.493110,308.041350,476.293110,315.841350,471.893110C318.341350,470.493110,322.441350,468.993110,321.441350,465.593110C320.441350,462.393110,316.541350,460.793110,313.141350,460.693110C305.441350,460.393110,297.641350,460.393110,289.841350,460.493110C288.041350,460.493110,284.741350,459.193110,284.841350,462.593110C285.041350,465.493110,287.741350,466.293110,290.541350,465.893110C294.541350,465.293110,298.441350,464.493110,302.441350,464.093110C305.341350,463.793110,308.441350,464.793110,309.841350,467.193110C311.741350,470.393110,308.241350,471.993110,306.441350,473.893110C302.041350,478.593110,297.441350,483.193110,298.041350,492.593110ZM368.941350,492.993110C370.241350,482.293110,365.141350,477.693110,360.441350,473.093110C355.041350,467.893110,358.441350,465.493110,363.241350,464.293110C366.441350,463.593110,369.941350,464.493110,373.341350,464.893110C378.241350,465.593110,378.241350,465.693110,382.541350,462.493110C371.141350,458.093110,359.841350,460.593110,348.541350,462.593110C346.841350,462.893110,344.741350,463.693110,344.541350,465.993110C344.341350,467.793110,345.741350,468.793110,347.141350,469.393110C356.741350,473.893110,363.741350,480.993110,368.941350,492.993110ZM310.541350,413.393110C294.041350,396.293110,264.441350,404.793110,255.341350,428.593110C263.841350,422.393110,272.041350,416.093110,280.541350,410.493110C290.641350,403.693110,300.041350,411.593110,310.541350,413.393110ZM359.541350,413.093110C384.141350,399.093110,398.541350,416.193110,414.741350,431.693110C409.941350,418.393110,394.141350,405.093110,382.441350,403.993110C373.541350,403.093110,365.441350,404.893110,359.541350,413.093110ZM289.441350,451.393110C299.941350,456.093110,310.541350,458.893110,321.141350,451.693110C310.541350,453.393110,299.941350,452.893110,289.441350,451.393110ZM346.841350,453.493110C357.641350,458.093110,368.141350,456.693110,378.341350,451.593110C367.941350,453.693110,357.241350,452.093110,346.841350,453.493110ZM334.641350,450.593110C336.141350,448.693110,340.841350,452.493110,340.841350,447.893110C340.841350,444.393110,336.941350,443.293110,333.641350,443.693110C330.941350,443.993110,326.841350,444.193110,326.841350,447.293110C326.941350,451.993110,331.541350,449.693110,334.641350,450.593110ZM311.141350,322.293110C317.341350,321.193110,319.241350,317.993110,319.141350,311.993110C318.841350,297.893110,318.941350,283.893110,318.941350,269.793110C319.041350,253.093110,318.341350,256.293110,333.141350,255.893110C342.441350,255.593110,354.641350,259.793110,360.441350,254.393110C366.741350,248.393110,361.441350,235.993110,362.641350,226.493110C363.641350,218.393110,360.041350,216.693110,352.541350,216.793110C290.341350,217.093110,228.141350,216.893110,165.841350,216.993110C146.941350,216.993110,132.941350,231.993110,133.941350,250.793110C134.541350,262.093110,140.541350,270.793110,147.441350,278.993110C152.641350,285.193110,158.541350,290.893110,163.841350,296.993110C166.141350,299.693110,170.341350,302.693110,168.541350,306.293110C166.641350,309.993110,161.741350,309.993110,157.641350,310.093110C155.441350,310.093110,153.241350,310.093110,151.041350,310.093110C130.141350,310.093110,109.141350,310.293110,88.241354,309.993110C83.141354,309.893110,80.941354,311.193110,81.141354,316.693110C81.541354,325.393110,81.541354,334.193110,81.141354,342.993110C80.941354,348.193110,82.541354,349.893110,87.941354,349.893110C123.541350,349.593110,159.241350,349.793110,194.841350,349.593110C207.741350,349.493110,219.441350,345.693110,225.241350,333.193110C231.141350,320.693110,229.641350,308.093110,221.141350,296.993110C214.341350,288.093110,206.741350,279.693110,199.641350,270.993110C197.141350,267.893110,192.441350,264.493110,193.841350,260.993110C195.441350,256.693110,201.141350,257.393110,205.441350,257.293110C225.441350,256.893110,245.441350,256.793110,265.441350,255.993110C273.041350,255.693110,275.741350,257.693110,275.541350,265.793110C275.041350,290.793110,275.341350,315.793110,275.341350,343.193110C286.941350,332.793110,297.541350,324.693110,311.141350,322.293110ZM142.141350,418.693110C137.541350,404.193110,132.741350,389.693110,128.341350,375.093110C126.141350,367.793110,122.041350,364.293110,114.041350,364.793110C105.641350,365.393110,97.141354,365.293110,88.741354,364.893110C82.141354,364.593110,80.641354,366.193110,82.841354,372.893110C95.241354,411.093110,107.241350,449.493110,119.041350,487.893110C121.341350,495.493110,125.141350,498.693110,133.141350,497.893110C139.041350,497.293110,145.041350,497.893110,150.941350,497.793110C169.041350,497.293110,164.741350,501.093110,169.641350,483.393110C173.041350,470.893110,176.241350,458.293110,179.541350,445.793110C185.341350,457.793110,188.941350,469.693110,192.441350,481.593110C197.341350,498.193110,198.341350,498.893110,215.141350,497.993110C219.641350,497.793110,221.341350,497.093110,219.241350,492.093110C214.941350,481.893110,216.441350,471.693110,221.241350,462.193110C227.241350,450.193110,232.741350,437.693110,240.641350,426.993110C251.741350,411.793110,257.541350,395.393110,259.641350,376.993110C260.941350,365.293110,261.341350,365.393110,249.541350,364.993110C248.341350,364.993110,247.041350,364.893110,245.841350,364.893110C232.141350,364.393110,230.241350,366.393110,227.841350,380.293110C225.641350,392.893110,222.641350,405.393110,219.941350,417.993110C215.041350,410.493110,212.641350,402.893110,209.841350,395.393110C206.241350,385.793110,206.641350,372.193110,198.741350,367.593110C191.041350,362.993110,178.741350,366.493110,168.441350,365.793110C161.741350,365.293110,158.541350,367.393110,156.841350,374.293110C153.241350,389.293110,148.641350,404.093110,144.441350,418.893110C143.641350,418.693110,142.941350,418.693110,142.141350,418.693110ZM356.741350,518.593110C341.341350,518.593110,325.941350,518.593110,308.541350,518.593110C332.941350,535.993110,342.441350,535.793110,356.741350,518.593110ZM336.741350,493.893110C336.441350,489.893110,338.641350,482.493110,334.041350,482.593110C328.341350,482.793110,331.141350,490.193110,331.141350,494.293110C331.141350,499.093110,328.341350,505.493110,336.841350,509.493110C336.841350,503.493110,337.141350,498.593110,336.741350,493.893110ZM344.341350,507.993110C349.041350,500.493110,348.541350,494.593110,344.241350,488.693110C343.141350,494.693110,342.441350,500.693110,344.341350,507.993110ZM324.041350,488.693110C319.741350,494.593110,319.241350,500.493110,323.941350,507.993110C325.841350,500.693110,325.141350,494.693110,324.041350,488.693110Z" fill="rgb(0,0,0)" stroke="none" stroke-width="1"/></svg>