<svg xmlns="http://www.w3.org/2000/svg" version="1.1" xmlns:xlink="http://www.w3.org/1999/xlink" xmlns:svgjs="http://svgjs.com/svgjs" width="1440" height="560" preserveAspectRatio="none" viewBox="0 0 1440 560">
    <g mask="url(&quot;#SvgjsMask1484&quot;)" fill="none">
        <rect width="1440" height="560" x="0" y="0" fill="rgba(0, 0, 0, 1)"></rect>
        <path d="M25.85 280.94L55.3 297.94L55.3 331.94L25.85 348.94L-3.6 331.94L-3.6 297.94zM114.19 127.94L143.63 144.94L143.63 178.94L114.19 195.94L84.74 178.94L84.74 144.94zM84.74 178.94L114.19 195.94L114.19 229.94L84.74 246.94L55.3 229.94L55.3 195.94zM173.08 331.94L202.52 348.94L202.52 382.94L173.08 399.94L143.63 382.94L143.63 348.94zM202.52 484.94L231.97 501.94L231.97 535.94L202.52 552.94L173.08 535.94L173.08 501.94zM290.86 25.94L320.31 42.94L320.31 76.94L290.86 93.94L261.42 76.94L261.42 42.94zM261.42 76.94L290.86 93.94L290.86 127.94L261.42 144.94L231.97 127.94L231.97 93.94zM261.42 484.94L290.86 501.94L290.86 535.94L261.42 552.94L231.97 535.94L231.97 501.94zM349.75 433.94L379.2 450.94L379.2 484.94L349.75 501.94L320.31 484.94L320.31 450.94zM379.2 76.94L408.64 93.94L408.64 127.94L379.2 144.94L349.75 127.94L349.75 93.94zM408.64 127.94L438.09 144.94L438.09 178.94L408.64 195.94L379.2 178.94L379.2 144.94zM408.64 331.94L438.09 348.94L438.09 382.94L408.64 399.94L379.2 382.94L379.2 348.94zM496.98 -25.06L526.43 -8.06L526.43 25.94L496.98 42.94L467.54 25.94L467.54 -8.06zM496.98 280.94L526.43 297.94L526.43 331.94L496.98 348.94L467.54 331.94L467.54 297.94zM496.98 484.94L526.43 501.94L526.43 535.94L496.98 552.94L467.54 535.94L467.54 501.94zM585.32 229.94L614.76 246.94L614.76 280.94L585.32 297.94L555.87 280.94L555.87 246.94zM585.32 331.94L614.76 348.94L614.76 382.94L585.32 399.94L555.87 382.94L555.87 348.94zM820.88 331.94L850.33 348.94L850.33 382.94L820.88 399.94L791.44 382.94L791.44 348.94zM820.88 433.94L850.33 450.94L850.33 484.94L820.88 501.94L791.44 484.94L791.44 450.94zM879.78 535.94L909.22 552.94L909.22 586.94L879.78 603.94L850.33 586.94L850.33 552.94zM938.67 433.94L968.11 450.94L968.11 484.94L938.67 501.94L909.22 484.94L909.22 450.94zM997.56 433.94L1027 450.94L1027 484.94L997.56 501.94L968.11 484.94L968.11 450.94zM1027 -25.06L1056.45 -8.06L1056.45 25.94L1027 42.94L997.56 25.94L997.56 -8.06zM1027 76.94L1056.45 93.94L1056.45 127.94L1027 144.94L997.56 127.94L997.56 93.94zM1027 178.94L1056.45 195.94L1056.45 229.94L1027 246.94L997.56 229.94L997.56 195.94zM1174.23 127.94L1203.68 144.94L1203.68 178.94L1174.23 195.94L1144.79 178.94L1144.79 144.94zM1144.79 178.94L1174.23 195.94L1174.23 229.94L1144.79 246.94L1115.34 229.94L1115.34 195.94zM1174.23 433.94L1203.68 450.94L1203.68 484.94L1174.23 501.94L1144.79 484.94L1144.79 450.94zM1203.68 -25.06L1233.12 -8.06L1233.12 25.94L1203.68 42.94L1174.23 25.94L1174.23 -8.06zM1233.12 229.94L1262.57 246.94L1262.57 280.94L1233.12 297.94L1203.68 280.94L1203.68 246.94zM1262.57 280.94L1292.02 297.94L1292.02 331.94L1262.57 348.94L1233.12 331.94L1233.12 297.94zM1350.91 25.94L1380.35 42.94L1380.35 76.94L1350.91 93.94L1321.46 76.94L1321.46 42.94zM1380.35 280.94L1409.8 297.94L1409.8 331.94L1380.35 348.94L1350.91 331.94L1350.91 297.94zM1409.8 331.94L1439.24 348.94L1439.24 382.94L1409.8 399.94L1380.35 382.94L1380.35 348.94zM1380.35 484.94L1409.8 501.94L1409.8 535.94L1380.35 552.94L1350.91 535.94L1350.91 501.94zM1439.24 280.94L1468.69 297.94L1468.69 331.94L1439.24 348.94L1409.8 331.94L1409.8 297.94z" stroke="rgba(255, 188, 4, 1)" stroke-width="2"></path>
        <path d="M22.45 280.94 a3.4 3.4 0 1 0 6.8 0 a3.4 3.4 0 1 0 -6.8 0zM51.9 297.94 a3.4 3.4 0 1 0 6.8 0 a3.4 3.4 0 1 0 -6.8 0zM51.9 331.94 a3.4 3.4 0 1 0 6.8 0 a3.4 3.4 0 1 0 -6.8 0zM22.45 348.94 a3.4 3.4 0 1 0 6.8 0 a3.4 3.4 0 1 0 -6.8 0zM-7 331.94 a3.4 3.4 0 1 0 6.8 0 a3.4 3.4 0 1 0 -6.8 0zM-7 297.94 a3.4 3.4 0 1 0 6.8 0 a3.4 3.4 0 1 0 -6.8 0zM110.79 127.94 a3.4 3.4 0 1 0 6.8 0 a3.4 3.4 0 1 0 -6.8 0zM140.23 144.94 a3.4 3.4 0 1 0 6.8 0 a3.4 3.4 0 1 0 -6.8 0zM140.23 178.94 a3.4 3.4 0 1 0 6.8 0 a3.4 3.4 0 1 0 -6.8 0zM110.79 195.94 a3.4 3.4 0 1 0 6.8 0 a3.4 3.4 0 1 0 -6.8 0zM81.34 178.94 a3.4 3.4 0 1 0 6.8 0 a3.4 3.4 0 1 0 -6.8 0zM81.34 144.94 a3.4 3.4 0 1 0 6.8 0 a3.4 3.4 0 1 0 -6.8 0zM110.79 229.94 a3.4 3.4 0 1 0 6.8 0 a3.4 3.4 0 1 0 -6.8 0zM81.34 246.94 a3.4 3.4 0 1 0 6.8 0 a3.4 3.4 0 1 0 -6.8 0zM51.9 229.94 a3.4 3.4 0 1 0 6.8 0 a3.4 3.4 0 1 0 -6.8 0zM51.9 195.94 a3.4 3.4 0 1 0 6.8 0 a3.4 3.4 0 1 0 -6.8 0zM169.68 331.94 a3.4 3.4 0 1 0 6.8 0 a3.4 3.4 0 1 0 -6.8 0zM199.12 348.94 a3.4 3.4 0 1 0 6.8 0 a3.4 3.4 0 1 0 -6.8 0zM199.12 382.94 a3.4 3.4 0 1 0 6.8 0 a3.4 3.4 0 1 0 -6.8 0zM169.68 399.94 a3.4 3.4 0 1 0 6.8 0 a3.4 3.4 0 1 0 -6.8 0zM140.23 382.94 a3.4 3.4 0 1 0 6.8 0 a3.4 3.4 0 1 0 -6.8 0zM140.23 348.94 a3.4 3.4 0 1 0 6.8 0 a3.4 3.4 0 1 0 -6.8 0zM199.12 484.94 a3.4 3.4 0 1 0 6.8 0 a3.4 3.4 0 1 0 -6.8 0zM228.57 501.94 a3.4 3.4 0 1 0 6.8 0 a3.4 3.4 0 1 0 -6.8 0zM228.57 535.94 a3.4 3.4 0 1 0 6.8 0 a3.4 3.4 0 1 0 -6.8 0zM199.12 552.94 a3.4 3.4 0 1 0 6.8 0 a3.4 3.4 0 1 0 -6.8 0zM169.68 535.94 a3.4 3.4 0 1 0 6.8 0 a3.4 3.4 0 1 0 -6.8 0zM169.68 501.94 a3.4 3.4 0 1 0 6.8 0 a3.4 3.4 0 1 0 -6.8 0zM287.46 25.94 a3.4 3.4 0 1 0 6.8 0 a3.4 3.4 0 1 0 -6.8 0zM316.91 42.94 a3.4 3.4 0 1 0 6.8 0 a3.4 3.4 0 1 0 -6.8 0zM316.91 76.94 a3.4 3.4 0 1 0 6.8 0 a3.4 3.4 0 1 0 -6.8 0zM287.46 93.94 a3.4 3.4 0 1 0 6.8 0 a3.4 3.4 0 1 0 -6.8 0zM258.02 76.94 a3.4 3.4 0 1 0 6.8 0 a3.4 3.4 0 1 0 -6.8 0zM258.02 42.94 a3.4 3.4 0 1 0 6.8 0 a3.4 3.4 0 1 0 -6.8 0zM287.46 127.94 a3.4 3.4 0 1 0 6.8 0 a3.4 3.4 0 1 0 -6.8 0zM258.02 144.94 a3.4 3.4 0 1 0 6.8 0 a3.4 3.4 0 1 0 -6.8 0zM228.57 127.94 a3.4 3.4 0 1 0 6.8 0 a3.4 3.4 0 1 0 -6.8 0zM228.57 93.94 a3.4 3.4 0 1 0 6.8 0 a3.4 3.4 0 1 0 -6.8 0zM258.02 484.94 a3.4 3.4 0 1 0 6.8 0 a3.4 3.4 0 1 0 -6.8 0zM287.46 501.94 a3.4 3.4 0 1 0 6.8 0 a3.4 3.4 0 1 0 -6.8 0zM287.46 535.94 a3.4 3.4 0 1 0 6.8 0 a3.4 3.4 0 1 0 -6.8 0zM258.02 552.94 a3.4 3.4 0 1 0 6.8 0 a3.4 3.4 0 1 0 -6.8 0zM346.35 433.94 a3.4 3.4 0 1 0 6.8 0 a3.4 3.4 0 1 0 -6.8 0zM375.8 450.94 a3.4 3.4 0 1 0 6.8 0 a3.4 3.4 0 1 0 -6.8 0zM375.8 484.94 a3.4 3.4 0 1 0 6.8 0 a3.4 3.4 0 1 0 -6.8 0zM346.35 501.94 a3.4 3.4 0 1 0 6.8 0 a3.4 3.4 0 1 0 -6.8 0zM316.91 484.94 a3.4 3.4 0 1 0 6.8 0 a3.4 3.4 0 1 0 -6.8 0zM316.91 450.94 a3.4 3.4 0 1 0 6.8 0 a3.4 3.4 0 1 0 -6.8 0zM375.8 76.94 a3.4 3.4 0 1 0 6.8 0 a3.4 3.4 0 1 0 -6.8 0zM405.24 93.94 a3.4 3.4 0 1 0 6.8 0 a3.4 3.4 0 1 0 -6.8 0zM405.24 127.94 a3.4 3.4 0 1 0 6.8 0 a3.4 3.4 0 1 0 -6.8 0zM375.8 144.94 a3.4 3.4 0 1 0 6.8 0 a3.4 3.4 0 1 0 -6.8 0zM346.35 127.94 a3.4 3.4 0 1 0 6.8 0 a3.4 3.4 0 1 0 -6.8 0zM346.35 93.94 a3.4 3.4 0 1 0 6.8 0 a3.4 3.4 0 1 0 -6.8 0zM434.69 144.94 a3.4 3.4 0 1 0 6.8 0 a3.4 3.4 0 1 0 -6.8 0zM434.69 178.94 a3.4 3.4 0 1 0 6.8 0 a3.4 3.4 0 1 0 -6.8 0zM405.24 195.94 a3.4 3.4 0 1 0 6.8 0 a3.4 3.4 0 1 0 -6.8 0zM375.8 178.94 a3.4 3.4 0 1 0 6.8 0 a3.4 3.4 0 1 0 -6.8 0zM405.24 331.94 a3.4 3.4 0 1 0 6.8 0 a3.4 3.4 0 1 0 -6.8 0zM434.69 348.94 a3.4 3.4 0 1 0 6.8 0 a3.4 3.4 0 1 0 -6.8 0zM434.69 382.94 a3.4 3.4 0 1 0 6.8 0 a3.4 3.4 0 1 0 -6.8 0zM405.24 399.94 a3.4 3.4 0 1 0 6.8 0 a3.4 3.4 0 1 0 -6.8 0zM375.8 382.94 a3.4 3.4 0 1 0 6.8 0 a3.4 3.4 0 1 0 -6.8 0zM375.8 348.94 a3.4 3.4 0 1 0 6.8 0 a3.4 3.4 0 1 0 -6.8 0zM493.58 -25.06 a3.4 3.4 0 1 0 6.8 0 a3.4 3.4 0 1 0 -6.8 0zM523.03 -8.06 a3.4 3.4 0 1 0 6.8 0 a3.4 3.4 0 1 0 -6.8 0zM523.03 25.94 a3.4 3.4 0 1 0 6.8 0 a3.4 3.4 0 1 0 -6.8 0zM493.58 42.94 a3.4 3.4 0 1 0 6.8 0 a3.4 3.4 0 1 0 -6.8 0zM464.14 25.94 a3.4 3.4 0 1 0 6.8 0 a3.4 3.4 0 1 0 -6.8 0zM464.14 -8.06 a3.4 3.4 0 1 0 6.8 0 a3.4 3.4 0 1 0 -6.8 0zM493.58 280.94 a3.4 3.4 0 1 0 6.8 0 a3.4 3.4 0 1 0 -6.8 0zM523.03 297.94 a3.4 3.4 0 1 0 6.8 0 a3.4 3.4 0 1 0 -6.8 0zM523.03 331.94 a3.4 3.4 0 1 0 6.8 0 a3.4 3.4 0 1 0 -6.8 0zM493.58 348.94 a3.4 3.4 0 1 0 6.8 0 a3.4 3.4 0 1 0 -6.8 0zM464.14 331.94 a3.4 3.4 0 1 0 6.8 0 a3.4 3.4 0 1 0 -6.8 0zM464.14 297.94 a3.4 3.4 0 1 0 6.8 0 a3.4 3.4 0 1 0 -6.8 0zM493.58 484.94 a3.4 3.4 0 1 0 6.8 0 a3.4 3.4 0 1 0 -6.8 0zM523.03 501.94 a3.4 3.4 0 1 0 6.8 0 a3.4 3.4 0 1 0 -6.8 0zM523.03 535.94 a3.4 3.4 0 1 0 6.8 0 a3.4 3.4 0 1 0 -6.8 0zM493.58 552.94 a3.4 3.4 0 1 0 6.8 0 a3.4 3.4 0 1 0 -6.8 0zM464.14 535.94 a3.4 3.4 0 1 0 6.8 0 a3.4 3.4 0 1 0 -6.8 0zM464.14 501.94 a3.4 3.4 0 1 0 6.8 0 a3.4 3.4 0 1 0 -6.8 0zM581.92 229.94 a3.4 3.4 0 1 0 6.8 0 a3.4 3.4 0 1 0 -6.8 0zM611.36 246.94 a3.4 3.4 0 1 0 6.8 0 a3.4 3.4 0 1 0 -6.8 0zM611.36 280.94 a3.4 3.4 0 1 0 6.8 0 a3.4 3.4 0 1 0 -6.8 0zM581.92 297.94 a3.4 3.4 0 1 0 6.8 0 a3.4 3.4 0 1 0 -6.8 0zM552.47 280.94 a3.4 3.4 0 1 0 6.8 0 a3.4 3.4 0 1 0 -6.8 0zM552.47 246.94 a3.4 3.4 0 1 0 6.8 0 a3.4 3.4 0 1 0 -6.8 0zM581.92 331.94 a3.4 3.4 0 1 0 6.8 0 a3.4 3.4 0 1 0 -6.8 0zM611.36 348.94 a3.4 3.4 0 1 0 6.8 0 a3.4 3.4 0 1 0 -6.8 0zM611.36 382.94 a3.4 3.4 0 1 0 6.8 0 a3.4 3.4 0 1 0 -6.8 0zM581.92 399.94 a3.4 3.4 0 1 0 6.8 0 a3.4 3.4 0 1 0 -6.8 0zM552.47 382.94 a3.4 3.4 0 1 0 6.8 0 a3.4 3.4 0 1 0 -6.8 0zM552.47 348.94 a3.4 3.4 0 1 0 6.8 0 a3.4 3.4 0 1 0 -6.8 0zM817.48 331.94 a3.4 3.4 0 1 0 6.8 0 a3.4 3.4 0 1 0 -6.8 0zM846.93 348.94 a3.4 3.4 0 1 0 6.8 0 a3.4 3.4 0 1 0 -6.8 0zM846.93 382.94 a3.4 3.4 0 1 0 6.8 0 a3.4 3.4 0 1 0 -6.8 0zM817.48 399.94 a3.4 3.4 0 1 0 6.8 0 a3.4 3.4 0 1 0 -6.8 0zM788.04 382.94 a3.4 3.4 0 1 0 6.8 0 a3.4 3.4 0 1 0 -6.8 0zM788.04 348.94 a3.4 3.4 0 1 0 6.8 0 a3.4 3.4 0 1 0 -6.8 0zM817.48 433.94 a3.4 3.4 0 1 0 6.8 0 a3.4 3.4 0 1 0 -6.8 0zM846.93 450.94 a3.4 3.4 0 1 0 6.8 0 a3.4 3.4 0 1 0 -6.8 0zM846.93 484.94 a3.4 3.4 0 1 0 6.8 0 a3.4 3.4 0 1 0 -6.8 0zM817.48 501.94 a3.4 3.4 0 1 0 6.8 0 a3.4 3.4 0 1 0 -6.8 0zM788.04 484.94 a3.4 3.4 0 1 0 6.8 0 a3.4 3.4 0 1 0 -6.8 0zM788.04 450.94 a3.4 3.4 0 1 0 6.8 0 a3.4 3.4 0 1 0 -6.8 0zM876.38 535.94 a3.4 3.4 0 1 0 6.8 0 a3.4 3.4 0 1 0 -6.8 0zM905.82 552.94 a3.4 3.4 0 1 0 6.8 0 a3.4 3.4 0 1 0 -6.8 0zM905.82 586.94 a3.4 3.4 0 1 0 6.8 0 a3.4 3.4 0 1 0 -6.8 0zM876.38 603.94 a3.4 3.4 0 1 0 6.8 0 a3.4 3.4 0 1 0 -6.8 0zM846.93 586.94 a3.4 3.4 0 1 0 6.8 0 a3.4 3.4 0 1 0 -6.8 0zM846.93 552.94 a3.4 3.4 0 1 0 6.8 0 a3.4 3.4 0 1 0 -6.8 0zM935.27 433.94 a3.4 3.4 0 1 0 6.8 0 a3.4 3.4 0 1 0 -6.8 0zM964.71 450.94 a3.4 3.4 0 1 0 6.8 0 a3.4 3.4 0 1 0 -6.8 0zM964.71 484.94 a3.4 3.4 0 1 0 6.8 0 a3.4 3.4 0 1 0 -6.8 0zM935.27 501.94 a3.4 3.4 0 1 0 6.8 0 a3.4 3.4 0 1 0 -6.8 0zM905.82 484.94 a3.4 3.4 0 1 0 6.8 0 a3.4 3.4 0 1 0 -6.8 0zM905.82 450.94 a3.4 3.4 0 1 0 6.8 0 a3.4 3.4 0 1 0 -6.8 0zM994.16 433.94 a3.4 3.4 0 1 0 6.8 0 a3.4 3.4 0 1 0 -6.8 0zM1023.6 450.94 a3.4 3.4 0 1 0 6.8 0 a3.4 3.4 0 1 0 -6.8 0zM1023.6 484.94 a3.4 3.4 0 1 0 6.8 0 a3.4 3.4 0 1 0 -6.8 0zM994.16 501.94 a3.4 3.4 0 1 0 6.8 0 a3.4 3.4 0 1 0 -6.8 0zM1023.6 -25.06 a3.4 3.4 0 1 0 6.8 0 a3.4 3.4 0 1 0 -6.8 0zM1053.05 -8.06 a3.4 3.4 0 1 0 6.8 0 a3.4 3.4 0 1 0 -6.8 0zM1053.05 25.94 a3.4 3.4 0 1 0 6.8 0 a3.4 3.4 0 1 0 -6.8 0zM1023.6 42.94 a3.4 3.4 0 1 0 6.8 0 a3.4 3.4 0 1 0 -6.8 0zM994.16 25.94 a3.4 3.4 0 1 0 6.8 0 a3.4 3.4 0 1 0 -6.8 0zM994.16 -8.06 a3.4 3.4 0 1 0 6.8 0 a3.4 3.4 0 1 0 -6.8 0zM1023.6 76.94 a3.4 3.4 0 1 0 6.8 0 a3.4 3.4 0 1 0 -6.8 0zM1053.05 93.94 a3.4 3.4 0 1 0 6.8 0 a3.4 3.4 0 1 0 -6.8 0zM1053.05 127.94 a3.4 3.4 0 1 0 6.8 0 a3.4 3.4 0 1 0 -6.8 0zM1023.6 144.94 a3.4 3.4 0 1 0 6.8 0 a3.4 3.4 0 1 0 -6.8 0zM994.16 127.94 a3.4 3.4 0 1 0 6.8 0 a3.4 3.4 0 1 0 -6.8 0zM994.16 93.94 a3.4 3.4 0 1 0 6.8 0 a3.4 3.4 0 1 0 -6.8 0zM1023.6 178.94 a3.4 3.4 0 1 0 6.8 0 a3.4 3.4 0 1 0 -6.8 0zM1053.05 195.94 a3.4 3.4 0 1 0 6.8 0 a3.4 3.4 0 1 0 -6.8 0zM1053.05 229.94 a3.4 3.4 0 1 0 6.8 0 a3.4 3.4 0 1 0 -6.8 0zM1023.6 246.94 a3.4 3.4 0 1 0 6.8 0 a3.4 3.4 0 1 0 -6.8 0zM994.16 229.94 a3.4 3.4 0 1 0 6.8 0 a3.4 3.4 0 1 0 -6.8 0zM994.16 195.94 a3.4 3.4 0 1 0 6.8 0 a3.4 3.4 0 1 0 -6.8 0zM1170.83 127.94 a3.4 3.4 0 1 0 6.8 0 a3.4 3.4 0 1 0 -6.8 0zM1200.28 144.94 a3.4 3.4 0 1 0 6.8 0 a3.4 3.4 0 1 0 -6.8 0zM1200.28 178.94 a3.4 3.4 0 1 0 6.8 0 a3.4 3.4 0 1 0 -6.8 0zM1170.83 195.94 a3.4 3.4 0 1 0 6.8 0 a3.4 3.4 0 1 0 -6.8 0zM1141.39 178.94 a3.4 3.4 0 1 0 6.8 0 a3.4 3.4 0 1 0 -6.8 0zM1141.39 144.94 a3.4 3.4 0 1 0 6.8 0 a3.4 3.4 0 1 0 -6.8 0zM1170.83 229.94 a3.4 3.4 0 1 0 6.8 0 a3.4 3.4 0 1 0 -6.8 0zM1141.39 246.94 a3.4 3.4 0 1 0 6.8 0 a3.4 3.4 0 1 0 -6.8 0zM1111.94 229.94 a3.4 3.4 0 1 0 6.8 0 a3.4 3.4 0 1 0 -6.8 0zM1111.94 195.94 a3.4 3.4 0 1 0 6.8 0 a3.4 3.4 0 1 0 -6.8 0zM1170.83 433.94 a3.4 3.4 0 1 0 6.8 0 a3.4 3.4 0 1 0 -6.8 0zM1200.28 450.94 a3.4 3.4 0 1 0 6.8 0 a3.4 3.4 0 1 0 -6.8 0zM1200.28 484.94 a3.4 3.4 0 1 0 6.8 0 a3.4 3.4 0 1 0 -6.8 0zM1170.83 501.94 a3.4 3.4 0 1 0 6.8 0 a3.4 3.4 0 1 0 -6.8 0zM1141.39 484.94 a3.4 3.4 0 1 0 6.8 0 a3.4 3.4 0 1 0 -6.8 0zM1141.39 450.94 a3.4 3.4 0 1 0 6.8 0 a3.4 3.4 0 1 0 -6.8 0zM1200.28 -25.06 a3.4 3.4 0 1 0 6.8 0 a3.4 3.4 0 1 0 -6.8 0zM1229.72 -8.06 a3.4 3.4 0 1 0 6.8 0 a3.4 3.4 0 1 0 -6.8 0zM1229.72 25.94 a3.4 3.4 0 1 0 6.8 0 a3.4 3.4 0 1 0 -6.8 0zM1200.28 42.94 a3.4 3.4 0 1 0 6.8 0 a3.4 3.4 0 1 0 -6.8 0zM1170.83 25.94 a3.4 3.4 0 1 0 6.8 0 a3.4 3.4 0 1 0 -6.8 0zM1170.83 -8.06 a3.4 3.4 0 1 0 6.8 0 a3.4 3.4 0 1 0 -6.8 0zM1229.72 229.94 a3.4 3.4 0 1 0 6.8 0 a3.4 3.4 0 1 0 -6.8 0zM1259.17 246.94 a3.4 3.4 0 1 0 6.8 0 a3.4 3.4 0 1 0 -6.8 0zM1259.17 280.94 a3.4 3.4 0 1 0 6.8 0 a3.4 3.4 0 1 0 -6.8 0zM1229.72 297.94 a3.4 3.4 0 1 0 6.8 0 a3.4 3.4 0 1 0 -6.8 0zM1200.28 280.94 a3.4 3.4 0 1 0 6.8 0 a3.4 3.4 0 1 0 -6.8 0zM1200.28 246.94 a3.4 3.4 0 1 0 6.8 0 a3.4 3.4 0 1 0 -6.8 0zM1288.62 297.94 a3.4 3.4 0 1 0 6.8 0 a3.4 3.4 0 1 0 -6.8 0zM1288.62 331.94 a3.4 3.4 0 1 0 6.8 0 a3.4 3.4 0 1 0 -6.8 0zM1259.17 348.94 a3.4 3.4 0 1 0 6.8 0 a3.4 3.4 0 1 0 -6.8 0zM1229.72 331.94 a3.4 3.4 0 1 0 6.8 0 a3.4 3.4 0 1 0 -6.8 0zM1347.51 25.94 a3.4 3.4 0 1 0 6.8 0 a3.4 3.4 0 1 0 -6.8 0zM1376.95 42.94 a3.4 3.4 0 1 0 6.8 0 a3.4 3.4 0 1 0 -6.8 0zM1376.95 76.94 a3.4 3.4 0 1 0 6.8 0 a3.4 3.4 0 1 0 -6.8 0zM1347.51 93.94 a3.4 3.4 0 1 0 6.8 0 a3.4 3.4 0 1 0 -6.8 0zM1318.06 76.94 a3.4 3.4 0 1 0 6.8 0 a3.4 3.4 0 1 0 -6.8 0zM1318.06 42.94 a3.4 3.4 0 1 0 6.8 0 a3.4 3.4 0 1 0 -6.8 0zM1376.95 280.94 a3.4 3.4 0 1 0 6.8 0 a3.4 3.4 0 1 0 -6.8 0zM1406.4 297.94 a3.4 3.4 0 1 0 6.8 0 a3.4 3.4 0 1 0 -6.8 0zM1406.4 331.94 a3.4 3.4 0 1 0 6.8 0 a3.4 3.4 0 1 0 -6.8 0zM1376.95 348.94 a3.4 3.4 0 1 0 6.8 0 a3.4 3.4 0 1 0 -6.8 0zM1347.51 331.94 a3.4 3.4 0 1 0 6.8 0 a3.4 3.4 0 1 0 -6.8 0zM1347.51 297.94 a3.4 3.4 0 1 0 6.8 0 a3.4 3.4 0 1 0 -6.8 0zM1435.84 348.94 a3.4 3.4 0 1 0 6.8 0 a3.4 3.4 0 1 0 -6.8 0zM1435.84 382.94 a3.4 3.4 0 1 0 6.8 0 a3.4 3.4 0 1 0 -6.8 0zM1406.4 399.94 a3.4 3.4 0 1 0 6.8 0 a3.4 3.4 0 1 0 -6.8 0zM1376.95 382.94 a3.4 3.4 0 1 0 6.8 0 a3.4 3.4 0 1 0 -6.8 0zM1376.95 484.94 a3.4 3.4 0 1 0 6.8 0 a3.4 3.4 0 1 0 -6.8 0zM1406.4 501.94 a3.4 3.4 0 1 0 6.8 0 a3.4 3.4 0 1 0 -6.8 0zM1406.4 535.94 a3.4 3.4 0 1 0 6.8 0 a3.4 3.4 0 1 0 -6.8 0zM1376.95 552.94 a3.4 3.4 0 1 0 6.8 0 a3.4 3.4 0 1 0 -6.8 0zM1347.51 535.94 a3.4 3.4 0 1 0 6.8 0 a3.4 3.4 0 1 0 -6.8 0zM1347.51 501.94 a3.4 3.4 0 1 0 6.8 0 a3.4 3.4 0 1 0 -6.8 0zM1435.84 280.94 a3.4 3.4 0 1 0 6.8 0 a3.4 3.4 0 1 0 -6.8 0zM1465.29 297.94 a3.4 3.4 0 1 0 6.8 0 a3.4 3.4 0 1 0 -6.8 0zM1465.29 331.94 a3.4 3.4 0 1 0 6.8 0 a3.4 3.4 0 1 0 -6.8 0z" fill="rgba(255, 188, 4, 1)"></path>
        <path d="M132.17 350.5L175.47 375.5L175.47 425.5L132.17 450.5L88.87 425.5L88.87 375.5zM218.77 350.5L262.07 375.5L262.07 425.5L218.77 450.5L175.47 425.5L175.47 375.5zM262.07 -24.5L305.38 0.5L305.38 50.5L262.07 75.5L218.77 50.5L218.77 0.5zM305.38 350.5L348.68 375.5L348.68 425.5L305.38 450.5L262.07 425.5L262.07 375.5zM348.68 -24.5L391.98 0.5L391.98 50.5L348.68 75.5L305.38 50.5L305.38 0.5zM391.98 200.5L435.29 225.5L435.29 275.5L391.98 300.5L348.68 275.5L348.68 225.5zM521.89 125.5L565.19 150.5L565.19 200.5L521.89 225.5L478.59 200.5L478.59 150.5zM695.1 -24.5L738.4 0.5L738.4 50.5L695.1 75.5L651.8 50.5L651.8 0.5zM781.71 -24.5L825.01 0.5L825.01 50.5L781.71 75.5L738.4 50.5L738.4 0.5zM1041.52 425.5L1084.82 450.5L1084.82 500.5L1041.52 525.5L998.22 500.5L998.22 450.5zM1084.82 500.5L1128.13 525.5L1128.13 575.5L1084.82 600.5L1041.52 575.5L1041.52 525.5zM1344.64 50.5L1387.94 75.5L1387.94 125.5L1344.64 150.5L1301.34 125.5L1301.34 75.5z" stroke="url(#SvgjsLinearGradient1485)" stroke-width="2"></path>
    </g>
    <defs>
        <mask id="SvgjsMask1484">
            <rect width="1440" height="560" fill="#ffffff"></rect>
        </mask>
        <linearGradient x1="220.03199999999998" y1="-220.02399999999997" x2="1219.9679999999998" y2="780.024" gradientUnits="userSpaceOnUse" id="SvgjsLinearGradient1485">
            <stop stop-color="#0e2a47" offset="0"></stop>
            <stop stop-color="rgba(255, 255, 255, 1)" offset="1"></stop>
        </linearGradient>
    </defs>
</svg>